{
.appVersion = "1075";
DisplayStrings = (
/absMeemIni.ta/absMeemMed.ta/absHehDoachashmeeIni.ta/absHehDoachashmeeMed.ta/absHehDoachashmeeIni.ta_alt/absTahIni.ta/absTahMed.ta/absHehGoalIni.ta/absHehGoalMed.ta
);
classes = (
{
code = "";
disabled = 1;
name = .new;
}
);
copyright = "Copyright (c) 2014-2017, SIL International (http://www.sil.org) with Reserved Font Names \"Awami\" and \"SIL\".";
customParameters = (
{
name = licenseURL;
value = "http://scripts.sil.org/OFL";
},
{
name = trademark;
value = "Awami Nastaliq is a trademark of SIL International.";
},
{
name = license;

glyphs = (
{
color = (31,255,0,1);
glyphname = exclam;
lastChange = "2018-01-18 17:35:03 +0000";
layers = (
{
layerId = UUID0;
paths = (
{
closed = 1;
nodes = (
"455 1349 OFFCURVE",
"393 1389 OFFCURVE",
"343 1389 CURVE SMOOTH",
"278 1389 OFFCURVE",
"227 1337 OFFCURVE",
"227 1248 CURVE SMOOTH",
"227 1233 OFFCURVE",
"229 1219 OFFCURVE",
"235 1172 CURVE SMOOTH",
"321 359 LINE",
"361 359 LINE",
"451 1172 LINE SMOOTH",
"455 1198 OFFCURVE",
"455 1222 OFFCURVE",
"455 1239 CURVE"
);
},
{
closed = 1;
nodes = (
"451 152 OFFCURVE",
"393 193 OFFCURVE",
"342 193 CURVE SMOOTH",
"290 193 OFFCURVE",
"229 156 OFFCURVE",
"229 85 CURVE SMOOTH",
"229 3 OFFCURVE",
"296 -30 OFFCURVE",
"342 -30 CURVE SMOOTH",
"400 -30 OFFCURVE",
"451 22 OFFCURVE",
"451 85 CURVE"
);
}
);
width = 682;
}
);
unicode = 0021;
},
{
color = (31,255,0,1);
glyphname = exclam.arab;
lastChange = "2018-03-27 12:04:33 +0000";
layers = (
{
background = {
paths = (
{
closed = 1;
nodes = (
"416.36 129.6 OFFCURVE",
"390.76 137.92 OFFCURVE",
"349.16 178.88 CURVE SMOOTH",
"307.56 221.12 OFFCURVE",
"299.24 246.08 OFFCURVE",
"290.28 246.72 CURVE SMOOTH",
"268.52 246.72 OFFCURVE",
"171.88 143.68 OFFCURVE",
"171.88 120.64 CURVE SMOOTH",
"171.88 93.76 OFFCURVE",
"270.44 -6.08 OFFCURVE",
"297.96 -6.08 CURVE SMOOTH",
"319.08 -6.08 OFFCURVE",
"417 97.6 OFFCURVE",
"416.36 120.64 CURVE SMOOTH"
);
},
{
closed = 1;
nodes = (
"225.5 1097 OFFCURVE",
"259.25 855.4 OFFCURVE",
"239.25 638.6 CURVE SMOOTH",
"225.5 487.4 OFFCURVE",
"175.5 437.8 OFFCURVE",
"164.25 408.2 CURVE SMOOTH",
"159.25 393.8 OFFCURVE",
"199.25 361.8 OFFCURVE",
"216.75 377.8 CURVE SMOOTH",
"274.25 429 OFFCURVE",
"389.25 665.8 OFFCURVE",
"415.5 941 CURVE SMOOTH",
"429.25 1086.6 OFFCURVE",
"431.75 1242.6 OFFCURVE",
"431.75 1423.4 CURVE SMOOTH",
"431.75 1545 OFFCURVE",
"470.5 1579.4 OFFCURVE",
"479.25 1604.2 CURVE SMOOTH",
"485.5 1618.6 OFFCURVE",
"463 1657.8 OFFCURVE",
"438 1640.2 CURVE SMOOTH",
"386.75 1606.6 OFFCURVE",
"265.5 1478.6 OFFCURVE",
"251.75 1345.8 CURVE SMOOTH"
);
}
);
};
components = (
{
name = _nukta;
transform = "{0.7, 0, 0, 0.7, 60, 85}";
},
{
name = absAlef;
transform = "{1.25, 0, 0, 0.8, 90, 240}";
}
);
layerId = UUID0;
width = 650;
}
);
},
{
color = (31,255,0,1);
glyphname = quotedbl;
lastChange = "2018-01-18 17:35:03 +0000";
layers = (
{
layerId = UUID0;
paths = (
{
closed = 1;
nodes = (
"703 1340 OFFCURVE",
"665 1389 OFFCURVE",
"601 1389 CURVE SMOOTH",
"536 1389 OFFCURVE",
"499 1352 OFFCURVE",
"499 1267 CURVE SMOOTH",
"499 1236 OFFCURVE",
"506 1181 OFFCURVE",
"523 1097 CURVE SMOOTH",
"576 805 LINE",
"626 805 LINE",
"681 1097 LINE SMOOTH",
"698 1195 OFFCURVE",
"703 1255 OFFCURVE",
"703 1281 CURVE"
);
},
{
closed = 1;
nodes = (
"335 1344 OFFCURVE",
"292 1389 OFFCURVE",
"233 1389 CURVE SMOOTH",
"175 1389 OFFCURVE",
"135 1358 OFFCURVE",
"135 1267 CURVE SMOOTH",
"135 1236 OFFCURVE",
"140 1181 OFFCURVE",
"156 1101 CURVE SMOOTH",
"212 805 LINE",
"252 805 LINE",
"307 1098 LINE SMOOTH",
"325 1193 OFFCURVE",
"335 1255 OFFCURVE",
"335 1280 CURVE"
);
}
);
width = 835;
}
);
unicode = 0022;
},
{
color = (31,255,0,1);
glyphname = numbersign;
lastChange = "2018-01-18 17:35:03 +0000";
layers = (
{
layerId = UUID0;
paths = (
{
closed = 1;
nodes = (
"989 427 LINE",
"989 511 LINE",
"734 511 LINE",
"805 854 LINE",
"989 854 LINE",
"989 934 LINE",
"819 934 LINE",
"912 1389 LINE",
"830 1389 LINE",
"734 934 LINE",
"397 934 LINE",
"485 1389 LINE",
"404 1389 LINE",
"314 934 LINE",
"36 934 LINE",
"36 854 LINE",
"294 854 LINE",
"222 511 LINE",
"36 511 LINE",
"36 427 LINE",
"207 427 LINE",
"115 -30 LINE",
"199 -30 LINE",
"294 427 LINE",
"632 427 LINE",
"543 -30 LINE",
"623 -30 LINE",
"715 427 LINE"
);
},
{
closed = 1;
nodes = (
"720 854 LINE",
"650 511 LINE",
"307 511 LINE",
"378 854 LINE"
);
}
);
width = 1026;
}
);
unicode = 0023;
},
{
color = (31,255,0,1);
glyphname = dollar;
lastChange = "2018-01-18 17:35:03 +0000";
layers = (
{
layerId = UUID0;
paths = (
{
closed = 1;
nodes = (
"922 520 OFFCURVE",
"822 593 OFFCURVE",
"527 805 CURVE",
"527 1313 LINE",
"728 1294 OFFCURVE",
"804 1180 OFFCURVE",
"819 991 CURVE",
"858 991 LINE",
"858 1291 LINE",
"750 1333 OFFCURVE",
"682 1357 OFFCURVE",
"665 1363 CURVE",
"627 1370 OFFCURVE",
"580 1379 OFFCURVE",
"527 1381 CURVE",
"527 1473 LINE",
"463 1473 LINE",
"463 1381 LINE",
"327 1372 OFFCURVE",
"109 1283 OFFCURVE",
"109 1056 CURVE SMOOTH",
"109 858 OFFCURVE",
"239 767 OFFCURVE",
"463 621 CURVE",
"463 38 LINE",
"269 55 OFFCURVE",
"166 146 OFFCURVE",
"152 335 CURVE",
"109 335 LINE",
"109 51 LINE",
"204 10 OFFCURVE",
"346 -24 OFFCURVE",
"463 -30 CURVE",
"463 -156 LINE",
"527 -156 LINE",
"527 -30 LINE",
"731 -17 OFFCURVE",
"922 120 OFFCURVE",
"922 337 CURVE"
);
},
{
closed = 1;
nodes = (
"463 849 LINE",
"391 894 OFFCURVE",
"264 979 OFFCURVE",
"264 1118 CURVE SMOOTH",
"264 1272 OFFCURVE",
"398 1304 OFFCURVE",
"463 1313 CURVE"
);
},
{
closed = 1;
nodes = (
"764 107 OFFCURVE",
"600 43 OFFCURVE",
"527 38 CURVE",
"527 577 LINE",
"678 471 OFFCURVE",
"764 406 OFFCURVE",
"764 289 CURVE"
);
}
);
width = 1026;
}
);
unicode = 0024;
},
{
color = (31,255,0,1);
glyphname = percent;
lastChange = "2018-01-18 17:35:03 +0000";
layers = (
{
layerId = UUID0;
paths = (
{
closed = 1;
nodes = (
"1619 618 OFFCURVE",
"1540 735 OFFCURVE",
"1400 735 CURVE SMOOTH",
"1166 735 OFFCURVE",
"954 475 OFFCURVE",
"954 252 CURVE SMOOTH",
"954 98 OFFCURVE",
"1005 -30 OFFCURVE",
"1216 -30 CURVE SMOOTH",
"1393 -30 OFFCURVE",
"1619 186 OFFCURVE",
"1619 508 CURVE"
);
},
{
closed = 1;
nodes = (
"1335 1393 LINE",
"1236 1393 LINE",
"1168 1304 OFFCURVE",
"1053 1251 OFFCURVE",
"929 1250 CURVE SMOOTH",
"743 1248 OFFCURVE",
"767 1363 OFFCURVE",
"600 1363 CURVE SMOOTH",
"367 1363 OFFCURVE",
"156 1095 OFFCURVE",
"156 875 CURVE SMOOTH",
"156 697 OFFCURVE",
"239 593 OFFCURVE",
"400 593 CURVE SMOOTH",
"581 593 OFFCURVE",
"820 833 OFFCURVE",
"820 1111 CURVE SMOOTH",
"820 1145 OFFCURVE",
"805 1189 OFFCURVE",
"805 1220 CURVE",
"885 1189 OFFCURVE",
"1037 1206 OFFCURVE",
"1161 1258 CURVE",
"444 -30 LINE",
"543 -30 LINE"
);
},
{
closed = 1;
nodes = (
"1566 331 OFFCURVE",
"1432 34 OFFCURVE",
"1239 34 CURVE SMOOTH",
"1145 34 OFFCURVE",
"1111 98 OFFCURVE",
"1111 175 CURVE SMOOTH",
"1111 359 OFFCURVE",
"1250 668 OFFCURVE",
"1424 668 CURVE SMOOTH",
"1517 668 OFFCURVE",
"1566 577 OFFCURVE",
"1566 497 CURVE"
);
},
{
closed = 1;
nodes = (
"767 938 OFFCURVE",
"623 665 OFFCURVE",
"440 665 CURVE SMOOTH",
"342 665 OFFCURVE",
"312 728 OFFCURVE",
"312 816 CURVE SMOOTH",
"312 1098 OFFCURVE",
"532 1304 OFFCURVE",
"607 1304 CURVE SMOOTH",
"643 1304 OFFCURVE",
"673 1257 OFFCURVE",
"750 1235 CURVE",
"756 1203 OFFCURVE",
"767 1174 OFFCURVE",
"767 1140 CURVE"
);
}
);
width = 1773;
}
);
unicode = 0025;
},
{
color = (31,255,0,1);
glyphname = ampersand;
lastChange = "2018-01-18 17:35:03 +0000";
layers = (
{
layerId = UUID0;
paths = (
{
closed = 1;
nodes = (
"1495 270 LINE",
"1482 220 OFFCURVE",
"1440 122 OFFCURVE",
"1312 122 CURVE SMOOTH",
"1172 122 OFFCURVE",
"1071 243 OFFCURVE",
"1012 310 CURVE",
"1084 402 OFFCURVE",
"1153 500 OFFCURVE",
"1211 607 CURVE SMOOTH",
"1328 822 OFFCURVE",
"1355 822 OFFCURVE",
"1467 835 CURVE",
"1467 874 LINE",
"1044 874 LINE",
"1044 835 LINE",
"1063 835 OFFCURVE",
"1140 819 OFFCURVE",
"1140 724 CURVE SMOOTH",
"1140 627 OFFCURVE",
"1081 508 OFFCURVE",
"964 369 CURVE",
"869 496 OFFCURVE",
"781 632 OFFCURVE",
"698 782 CURVE",
"820 849 OFFCURVE",
"1027 950 OFFCURVE",
"1027 1143 CURVE SMOOTH",
"1027 1270 OFFCURVE",
"934 1389 OFFCURVE",
"757 1389 CURVE SMOOTH",
"593 1389 OFFCURVE",
"408 1288 OFFCURVE",
"408 1058 CURVE SMOOTH",
"408 935 OFFCURVE",
"459 828 OFFCURVE",
"491 758 CURVE",
"327 673 OFFCURVE",
"75 517 OFFCURVE",
"75 269 CURVE SMOOTH",
"75 122 OFFCURVE",
"195 -32 OFFCURVE",
"435 -32 CURVE SMOOTH",
"654 -32 OFFCURVE",
"789 92 OFFCURVE",
"872 164 CURVE",
"944 85 OFFCURVE",
"1065 -32 OFFCURVE",
"1222 -32 CURVE SMOOTH",
"1432 -32 OFFCURVE",
"1511 144 OFFCURVE",
"1532 244 CURVE"
);
},
{
closed = 1;
nodes = (
"911 976 OFFCURVE",
"747 888 OFFCURVE",
"665 850 CURVE",
"628 927 OFFCURVE",
"580 1043 OFFCURVE",
"580 1136 CURVE SMOOTH",
"580 1175 OFFCURVE",
"612 1318 OFFCURVE",
"757 1318 CURVE SMOOTH",
"837 1318 OFFCURVE",
"911 1250 OFFCURVE",
"911 1148 CURVE"
);
},
{
closed = 1;
nodes = (
"751 166 OFFCURVE",
"660 90 OFFCURVE",
"536 90 CURVE SMOOTH",
"371 90 OFFCURVE",
"284 227 OFFCURVE",
"284 359 CURVE SMOOTH",
"284 550 OFFCURVE",
"444 647 OFFCURVE",
"523 690 CURVE",
"566 609 OFFCURVE",
"601 543 OFFCURVE",
"635 485 CURVE SMOOTH",
"668 427 OFFCURVE",
"729 343 OFFCURVE",
"819 220 CURVE"
);
}
);
width = 1596;
}
);
unicode = 0026;
},
{
color = (31,255,0,1);
glyphname = quotesingle;
lastChange = "2018-01-18 17:35:03 +0000";
layers = (
{
layerId = UUID0;
paths = (
{
closed = 1;
nodes = (
"286 1328 OFFCURVE",
"254 1389 OFFCURVE",
"179 1389 CURVE SMOOTH",
"116 1389 OFFCURVE",
"85 1350 OFFCURVE",
"85 1267 CURVE SMOOTH",
"85 1239 OFFCURVE",
"90 1183 OFFCURVE",
"107 1101 CURVE SMOOTH",
"160 805 LINE",
"205 805 LINE",
"258 1098 LINE SMOOTH",
"276 1197 OFFCURVE",
"286 1258 OFFCURVE",
"286 1281 CURVE"
);
}
);
width = 371;
}
);
unicode = 0027;
},
{
color = (31,255,0,1);
glyphname = parenleft;
lastChange = "2018-01-18 17:35:03 +0000";
layers = (
{
layerId = UUID0;
paths = (
{
closed = 1;
nodes = (
"635 -402 LINE",
"321 -209 OFFCURVE",
"276 193 OFFCURVE",
"276 520 CURVE SMOOTH",
"276 964 OFFCURVE",
"412 1265 OFFCURVE",
"635 1382 CURVE",
"635 1424 LINE",
"307 1270 OFFCURVE",
"85 902 OFFCURVE",
"85 493 CURVE SMOOTH",
"85 89 OFFCURVE",
"301 -284 OFFCURVE",
"635 -440 CURVE"
);
}
);
width = 682;
}
);
unicode = 0028;
},
{
color = (31,255,0,1);
glyphname = parenright;
lastChange = "2018-01-18 17:35:03 +0000";
layers = (
{
layerId = UUID0;
paths = (
{
closed = 1;
nodes = (
"600 894 OFFCURVE",
"398 1248 OFFCURVE",
"45 1424 CURVE",
"45 1385 LINE",
"396 1158 OFFCURVE",
"408 724 OFFCURVE",
"408 463 CURVE SMOOTH",
"408 17 OFFCURVE",
"274 -281 OFFCURVE",
"45 -402 CURVE",
"45 -440 LINE",
"369 -297 OFFCURVE",
"600 80 OFFCURVE",
"600 489 CURVE"
);
}
);
width = 682;
}
);
unicode = 0029;
},
{
color = (31,255,0,1);
glyphname = parenleft.arab;
lastChange = "2018-01-18 17:35:03 +0000";
layers = (
{
background = {
paths = (
{
closed = 1;
nodes = (
"635 -402 LINE",
"321 -209 OFFCURVE",
"276 193 OFFCURVE",
"276 520 CURVE SMOOTH",
"276 964 OFFCURVE",
"412 1265 OFFCURVE",
"635 1382 CURVE",
"635 1424 LINE",
"307 1270 OFFCURVE",
"85 902 OFFCURVE",
"85 493 CURVE SMOOTH",
"85 89 OFFCURVE",
"301 -284 OFFCURVE",
"635 -440 CURVE"
);
}
);
};
layerId = UUID0;
paths = (
{
closed = 1;
nodes = (
"565 -453 OFFCURVE",
"596 -208 OFFCURVE",
"556 -181 CURVE SMOOTH",
"56 162 OFFCURVE",
"168 886 OFFCURVE",
"630 1359 CURVE SMOOTH",
"650 1379 OFFCURVE",
"603 1437 OFFCURVE",
"579 1418 CURVE SMOOTH",
"22 970 OFFCURVE",
"-143 -116 OFFCURVE",
"509 -426 CURVE SMOOTH"
);
}
);
width = 682;
}
);
},
{
color = (31,255,0,1);
glyphname = parenright.arab;
lastChange = "2018-01-18 17:35:03 +0000";
layers = (
{
background = {
paths = (
{
closed = 1;
nodes = (
"112 1437 OFFCURVE",
"81 1192 OFFCURVE",
"121 1165 CURVE SMOOTH",
"621 822 OFFCURVE",
"509 298 OFFCURVE",
"47 -375 CURVE SMOOTH",
"31 -398 OFFCURVE",
"78 -457 OFFCURVE",
"98 -434 CURVE SMOOTH",
"655 214 OFFCURVE",
"820 1100 OFFCURVE",
"168 1410 CURVE SMOOTH"
);
}
);
};
layerId = UUID0;
paths = (
{
closed = 1;
nodes = (
"112 1437 OFFCURVE",
"81 1192 OFFCURVE",
"121 1165 CURVE SMOOTH",
"621 822 OFFCURVE",
"509 98 OFFCURVE",
"47 -375 CURVE SMOOTH",
"27 -395 OFFCURVE",
"74 -453 OFFCURVE",
"98 -434 CURVE SMOOTH",
"655 14 OFFCURVE",
"820 1100 OFFCURVE",
"168 1410 CURVE SMOOTH"
);
}
);
width = 682;
}
);
},
{
color = (31,255,0,1);
glyphname = asterisk;
lastChange = "2018-01-18 17:35:03 +0000";
layers = (
{
layerId = UUID0;
paths = (
{
closed = 1;
nodes = (
"881 1217 OFFCURVE",
"842 1248 OFFCURVE",
"804 1248 CURVE SMOOTH",
"720 1248 OFFCURVE",
"615 1098 OFFCURVE",
"535 1043 CURVE",
"550 1133 OFFCURVE",
"596 1235 OFFCURVE",
"596 1320 CURVE SMOOTH",
"596 1366 OFFCURVE",
"570 1424 OFFCURVE",
"520 1424 CURVE SMOOTH",
"459 1424 OFFCURVE",
"432 1370 OFFCURVE",
"432 1318 CURVE SMOOTH",
"432 1257 OFFCURVE",
"485 1126 OFFCURVE",
"496 1043 CURVE",
"425 1098 OFFCURVE",
"307 1250 OFFCURVE",
"220 1250 CURVE SMOOTH",
"177 1250 OFFCURVE",
"146 1220 OFFCURVE",
"146 1178 CURVE SMOOTH",
"146 1058 OFFCURVE",
"391 1053 OFFCURVE",
"474 1009 CURVE",
"389 981 OFFCURVE",
"146 946 OFFCURVE",
"146 835 CURVE SMOOTH",
"146 795 OFFCURVE",
"189 766 OFFCURVE",
"227 766 CURVE SMOOTH",
"305 766 OFFCURVE",
"422 920 OFFCURVE",
"497 974 CURVE",
"477 888 OFFCURVE",
"432 782 OFFCURVE",
"432 697 CURVE SMOOTH",
"432 651 OFFCURVE",
"458 593 OFFCURVE",
"508 593 CURVE SMOOTH",
"568 593 OFFCURVE",
"596 647 OFFCURVE",
"596 700 CURVE SMOOTH",
"596 790 OFFCURVE",
"535 875 OFFCURVE",
"535 973 CURVE",
"605 919 OFFCURVE",
"718 767 OFFCURVE",
"805 767 CURVE SMOOTH",
"846 767 OFFCURVE",
"880 797 OFFCURVE",
"880 839 CURVE SMOOTH",
"880 949 OFFCURVE",
"647 971 OFFCURVE",
"558 1009 CURVE",
"642 1041 OFFCURVE",
"881 1061 OFFCURVE",
"881 1175 CURVE"
);
}
);
width = 1026;
}
);
unicode = 002A;
},
{
color = (31,255,0,1);
glyphname = asterisk.arab;
lastChange = "2018-01-18 17:35:03 +0000";
layers = (
{
background = {
paths = (
{
closed = 1;
nodes = (
"881 1217 OFFCURVE",
"842 1248 OFFCURVE",
"804 1248 CURVE SMOOTH",
"720 1248 OFFCURVE",
"615 1098 OFFCURVE",
"535 1043 CURVE",
"550 1133 OFFCURVE",
"596 1235 OFFCURVE",
"596 1320 CURVE SMOOTH",
"596 1366 OFFCURVE",
"570 1424 OFFCURVE",
"520 1424 CURVE SMOOTH",
"459 1424 OFFCURVE",
"432 1370 OFFCURVE",
"432 1318 CURVE SMOOTH",
"432 1257 OFFCURVE",
"485 1126 OFFCURVE",
"496 1043 CURVE",
"425 1098 OFFCURVE",
"307 1250 OFFCURVE",
"220 1250 CURVE SMOOTH",
"177 1250 OFFCURVE",
"146 1220 OFFCURVE",
"146 1178 CURVE SMOOTH",
"146 1058 OFFCURVE",
"391 1053 OFFCURVE",
"474 1009 CURVE",
"389 981 OFFCURVE",
"146 946 OFFCURVE",
"146 835 CURVE SMOOTH",
"146 795 OFFCURVE",
"189 766 OFFCURVE",
"227 766 CURVE SMOOTH",
"305 766 OFFCURVE",
"422 920 OFFCURVE",
"497 974 CURVE",
"477 888 OFFCURVE",
"432 782 OFFCURVE",
"432 697 CURVE SMOOTH",
"432 651 OFFCURVE",
"458 593 OFFCURVE",
"508 593 CURVE SMOOTH",
"568 593 OFFCURVE",
"596 647 OFFCURVE",
"596 700 CURVE SMOOTH",
"596 790 OFFCURVE",
"535 875 OFFCURVE",
"535 973 CURVE",
"605 919 OFFCURVE",
"718 767 OFFCURVE",
"805 767 CURVE SMOOTH",
"846 767 OFFCURVE",
"880 797 OFFCURVE",
"880 839 CURVE SMOOTH",
"880 949 OFFCURVE",
"647 971 OFFCURVE",
"558 1009 CURVE",
"642 1041 OFFCURVE",
"881 1061 OFFCURVE",
"881 1175 CURVE SMOOTH"
);
}
);
};
layerId = UUID0;
paths = (
{
closed = 1;
nodes = (
"400 1095 OFFCURVE",
"424 813 OFFCURVE",
"503 593 CURVE SMOOTH",
"511 571 OFFCURVE",
"562 590 OFFCURVE",
"557 609 CURVE SMOOTH",
"503 831 OFFCURVE",
"514 1083 OFFCURVE",
"596 1325 CURVE SMOOTH",
"617 1388 OFFCURVE",
"443 1402 OFFCURVE",
"434 1340 CURVE SMOOTH"
);
},
{
closed = 1;
nodes = (
"548 1115 OFFCURVE",
"316 953 OFFCURVE",
"165 775 CURVE SMOOTH",
"150 757 OFFCURVE",
"192 722 OFFCURVE",
"206 736 CURVE SMOOTH",
"371 894 OFFCURVE",
"595 1010 OFFCURVE",
"845 1060 CURVE SMOOTH",
"910 1073 OFFCURVE",
"836 1231 OFFCURVE",
"777 1208 CURVE SMOOTH"
);
},
{
closed = 1;
nodes = (
"361 963 OFFCURVE",
"617 843 OFFCURVE",
"847 801 CURVE SMOOTH",
"870 797 OFFCURVE",
"879 851 OFFCURVE",
"860 856 CURVE SMOOTH",
"641 920 OFFCURVE",
"428 1056 OFFCURVE",
"260 1248 CURVE SMOOTH",
"216 1297 OFFCURVE",
"117 1154 OFFCURVE",
"166 1115 CURVE"
);
}
);
width = 1026;
}
);
},
{
color = (31,255,0,1);
glyphname = plus;
lastChange = "2018-01-18 17:35:03 +0000";
layers = (
{
layerId = UUID0;
paths = (
{
closed = 1;
nodes = (
"1577 530 LINE",
"1577 653 LINE",
"1046 653 LINE",
"1046 1183 LINE",
"926 1183 LINE",
"926 653 LINE",
"396 653 LINE",
"396 530 LINE",
"926 530 LINE",
"926 0 LINE",
"1046 0 LINE",
"1046 530 LINE"
);
}
);
width = 1972;
}
);
unicode = 002B;
},
{
color = (31,255,0,1);
glyphname = comma;
lastChange = "2018-01-18 17:35:03 +0000";
layers = (
{
layerId = UUID0;
paths = (
{
closed = 1;
nodes = (
"408 128 OFFCURVE",
"319 199 OFFCURVE",
"241 199 CURVE SMOOTH",
"171 199 OFFCURVE",
"112 154 OFFCURVE",
"112 83 CURVE SMOOTH",
"112 3 OFFCURVE",
"162 -30 OFFCURVE",
"217 -30 CURVE SMOOTH",
"248 -30 OFFCURVE",
"273 0 OFFCURVE",
"304 0 CURVE SMOOTH",
"321 0 OFFCURVE",
"325 -24 OFFCURVE",
"325 -39 CURVE SMOOTH",
"325 -171 OFFCURVE",
"212 -269 OFFCURVE",
"112 -297 CURVE",
"112 -343 LINE",
"269 -289 OFFCURVE",
"408 -181 OFFCURVE",
"408 -10 CURVE"
);
}
);
width = 512;
}
);
unicode = 002C;
},
{
color = (31,255,0,1);
glyphname = hyphenminus;
lastChange = "2018-01-18 17:35:03 +0000";
layers = (
{
anchors = (
{
name = U;
position = "{343, 1000}";
}
);
layerId = UUID0;
paths = (
{
closed = 1;
nodes = (
"600 382 LINE",
"600 535 LINE",
"83 535 LINE",
"83 382 LINE"
);
}
);
width = 682;
}
);
unicode = 002D;
},
{
color = (31,255,0,1);
glyphname = period;
lastChange = "2018-01-18 17:35:03 +0000";
layers = (
{
layerId = UUID0;
paths = (
{
closed = 1;
nodes = (
"367 149 OFFCURVE",
"316 195 OFFCURVE",
"256 195 CURVE SMOOTH",
"193 195 OFFCURVE",
"146 148 OFFCURVE",
"146 85 CURVE SMOOTH",
"146 24 OFFCURVE",
"189 -30 OFFCURVE",
"256 -30 CURVE SMOOTH",
"321 -30 OFFCURVE",
"367 24 OFFCURVE",
"367 85 CURVE"
);
}
);
width = 512;
}
);
unicode = 002E;
},
{
color = (31,255,0,1);
glyphname = slash;
lastChange = "2018-01-18 17:35:03 +0000";
layers = (
{
layerId = UUID0;
paths = (
{
closed = 1;
nodes = (
"584 1424 LINE",
"505 1424 LINE",
"11 -30 LINE",
"95 -30 LINE"
);
}
);
width = 570;
}
);
unicode = 002F;
},
{
color = (31,255,0,1);
glyphname = fraction;
lastChange = "2018-01-18 17:35:03 +0000";
layers = (
{
layerId = UUID0;
paths = (
{
closed = 1;
nodes = (
"1061 1393 LINE",
"941 1393 LINE",
"0 -30 LINE",
"120 -30 LINE"
);
}
);
width = 1061;
}
);
unicode = 2044;
},
{
color = (31,255,0,1);
glyphname = zero;
lastChange = "2018-01-18 17:35:03 +0000";
layers = (
{
anchors = (
{
name = L;
position = "{513, -100}";
},
{
name = U;
position = "{513, 1435}";
}
);
hints = (
{
place = "{74, 196}";
},
{
place = "{757, 195}";
},
{
horizontal = 1;
place = "{-24, 63}";
},
{
horizontal = 1;
place = "{1320, 67}";
}
);
layerId = UUID0;
paths = (
{
closed = 1;
nodes = (
"952 325 OFFCURVE",
"796 -24 OFFCURVE",
"506 -24 CURVE SMOOTH",
"240 -24 OFFCURVE",
"74 320 OFFCURVE",
"74 670 CURVE SMOOTH",
"74 1104 OFFCURVE",
"283 1387 OFFCURVE",
"517 1387 CURVE SMOOTH",
"747 1387 OFFCURVE",
"952 1120 OFFCURVE",
"952 690 CURVE SMOOTH"
);
},
{
closed = 1;
nodes = (
"757 1099 OFFCURVE",
"673 1320 OFFCURVE",
"515 1320 CURVE SMOOTH",
"403 1320 OFFCURVE",
"270 1192 OFFCURVE",
"270 647 CURVE SMOOTH",
"270 244 OFFCURVE",
"365 39 OFFCURVE",
"511 39 CURVE SMOOTH",
"653 39 OFFCURVE",
"757 210 OFFCURVE",
"757 735 CURVE SMOOTH"
);
}
);
width = 1026;
}
);
unicode = 0030;
},
{
color = (31,255,0,1);
glyphname = one;
lastChange = "2018-01-18 17:35:03 +0000";
layers = (
{
anchors = (
{
name = L;
position = "{508, -100}";
},
{
name = U;
position = "{508, 1435}";
}
);
hints = (
{
place = "{440, 165}";
},
{
horizontal = 1;
place = "{0, 21}";
target = up;
type = BottomGhost;
},
{
horizontal = 1;
place = "{1387, -20}";
target = down;
type = TopGhost;
}
);
layerId = UUID0;
paths = (
{
closed = 1;
nodes = (
"264 0 LINE",
"264 38 LINE",
"435 38 OFFCURVE",
"440 69 OFFCURVE",
"440 241 CURVE SMOOTH",
"440 973 LINE",
"440 1058 LINE SMOOTH",
"440 1188 OFFCURVE",
"422 1270 OFFCURVE",
"254 1193 CURVE",
"241 1225 LINE",
"570 1387 LINE",
"605 1387 LINE",
"605 241 LINE SMOOTH",
"605 69 OFFCURVE",
"607 38 OFFCURVE",
"775 38 CURVE",
"775 0 LINE"
);
}
);
width = 1026;
}
);
unicode = 0031;
},
{
color = (31,255,0,1);
glyphname = two;
lastChange = "2018-01-18 17:35:03 +0000";
layers = (
{
anchors = (
{
name = L;
position = "{493, -100}";
},
{
name = U;
position = "{493, 1435}";
}
);
hints = (
{
place = "{687, 171}";
},
{
horizontal = 1;
place = "{0, 152}";
},
{
horizontal = 1;
place = "{1233, 154}";
}
);
layerId = UUID0;
paths = (
{
closed = 1;
nodes = (
"844 0 LINE",
"45 0 LINE",
"45 38 LINE",
"280 253 OFFCURVE",
"446 424 OFFCURVE",
"543 565 CURVE",
"639 702 OFFCURVE",
"687 825 OFFCURVE",
"687 936 CURVE SMOOTH",
"687 1167 OFFCURVE",
"503 1233 OFFCURVE",
"419 1233 CURVE SMOOTH",
"226 1233 OFFCURVE",
"147 1079 OFFCURVE",
"120 1004 CURVE",
"85 1004 LINE",
"101 1123 OFFCURVE",
"171 1387 OFFCURVE",
"469 1387 CURVE SMOOTH",
"662 1387 OFFCURVE",
"858 1250 OFFCURVE",
"858 1029 CURVE",
"856 817 OFFCURVE",
"683 602 OFFCURVE",
"568 480 CURVE",
"401 297 OFFCURVE",
"299 191 OFFCURVE",
"258 152 CURVE",
"613 152 LINE SMOOTH",
"817 152 OFFCURVE",
"843 172 OFFCURVE",
"904 260 CURVE",
"941 260 LINE"
);
}
);
width = 1026;
}
);
unicode = 0032;
},
{
color = (31,255,0,1);
glyphname = three;
lastChange = "2018-01-18 17:35:03 +0000";
layers = (
{
anchors = (
{
name = L;
position = "{471, -100}";
},
{
name = U;
position = "{471, 1435}";
}
);
hints = (
{
place = "{621, 166}";
},
{
place = "{707, 150}";
},
{
horizontal = 1;
place = "{-24, 88}";
},
{
horizontal = 1;
place = "{1248, 139}";
},
{
horizontal = 1;
place = "{-24, 180}";
}
);
layerId = UUID0;
paths = (
{
closed = 1;
nodes = (
"857 171 OFFCURVE",
"651 -24 OFFCURVE",
"320 -24 CURVE SMOOTH",
"92 -24 OFFCURVE",
"85 55 OFFCURVE",
"85 85 CURVE SMOOTH",
"85 124 OFFCURVE",
"122 156 OFFCURVE",
"164 156 CURVE",
"262 154 OFFCURVE",
"318 65 OFFCURVE",
"453 64 CURVE SMOOTH",
"573 64 OFFCURVE",
"707 167 OFFCURVE",
"707 327 CURVE SMOOTH",
"707 509 OFFCURVE",
"610 594 OFFCURVE",
"511 635 CURVE SMOOTH",
"452 660 OFFCURVE",
"386 672 OFFCURVE",
"312 673 CURVE",
"312 704 LINE",
"364 708 OFFCURVE",
"621 770 OFFCURVE",
"621 1020 CURVE SMOOTH",
"621 1195 OFFCURVE",
"486 1248 OFFCURVE",
"398 1248 CURVE SMOOTH",
"295 1248 OFFCURVE",
"208 1193 OFFCURVE",
"138 1082 CURVE",
"105 1098 LINE",
"144 1183 OFFCURVE",
"224 1387 OFFCURVE",
"471 1387 CURVE SMOOTH",
"733 1387 OFFCURVE",
"787 1179 OFFCURVE",
"787 1111 CURVE SMOOTH",
"787 1012 OFFCURVE",
"728 910 OFFCURVE",
"604 805 CURVE",
"689 773 OFFCURVE",
"857 678 OFFCURVE",
"857 450 CURVE SMOOTH"
);
}
);
width = 1026;
}
);
unicode = 0033;
},
{
color = (31,255,0,1);
glyphname = four;
lastChange = "2018-01-18 17:35:03 +0000";
layers = (
{
anchors = (
{
name = L;
position = "{492, -100}";
},
{
name = U;
position = "{492, 1435}";
}
);
hints = (
{
place = "{607, 167}";
},
{
horizontal = 1;
place = "{359, 141}";
},
{
horizontal = 1;
place = "{1387, -20}";
target = down;
type = TopGhost;
},
{
horizontal = 1;
place = "{0, 21}";
target = up;
type = BottomGhost;
}
);
layerId = UUID0;
paths = (
{
closed = 1;
nodes = (
"774 359 LINE",
"774 0 LINE",
"607 0 LINE",
"607 359 LINE",
"32 359 LINE",
"32 485 LINE",
"662 1387 LINE",
"774 1387 LINE",
"774 500 LINE",
"952 500 LINE",
"952 359 LINE"
);
},
{
closed = 1;
nodes = (
"607 1175 LINE",
"130 500 LINE",
"607 500 LINE"
);
}
);
width = 1026;
}
);
unicode = 0034;
},
{
color = (31,255,0,1);
glyphname = five;
lastChange = "2018-01-18 17:35:03 +0000";
layers = (
{
anchors = (
{
name = L;
position = "{494, -100}";
},
{
name = U;
position = "{494, 1435}";
}
);
hints = (
{
place = "{737, 130}";
},
{
horizontal = 1;
place = "{-24, 103}";
},
{
horizontal = 1;
place = "{1188, 169}";
},
{
horizontal = 1;
place = "{-24, 205}";
}
);
layerId = UUID0;
paths = (
{
closed = 1;
nodes = (
"812 1188 LINE",
"404 1188 LINE",
"314 1005 LINE",
"443 997 OFFCURVE",
"867 872 OFFCURVE",
"867 489 CURVE SMOOTH",
"867 149 OFFCURVE",
"557 -24 OFFCURVE",
"331 -24 CURVE SMOOTH",
"175 -24 OFFCURVE",
"98 38 OFFCURVE",
"98 109 CURVE SMOOTH",
"98 129 OFFCURVE",
"110 181 OFFCURVE",
"177 181 CURVE SMOOTH",
"272 180 OFFCURVE",
"309 81 OFFCURVE",
"444 79 CURVE",
"599 79 OFFCURVE",
"737 206 OFFCURVE",
"737 382 CURVE SMOOTH",
"737 465 OFFCURVE",
"703 590 OFFCURVE",
"588 689 CURVE",
"440 811 OFFCURVE",
"270 827 OFFCURVE",
"144 830 CURVE",
"404 1357 LINE",
"889 1357 LINE"
);
}
);
width = 1026;
}
);
unicode = 0035;
},
{
color = (31,255,0,1);
glyphname = six;
lastChange = "2018-01-18 17:35:03 +0000";
layers = (
{
anchors = (
{
name = L;
position = "{519, -100}";
},
{
name = U;
position = "{519, 1435}";
}
);
hints = (
{
place = "{89, 189}";
},
{
place = "{767, 179}";
},
{
horizontal = 1;
place = "{-24, 56}";
},
{
horizontal = 1;
place = "{772, 86}";
},
{
horizontal = 1;
place = "{1387, -20}";
target = down;
type = TopGhost;
}
);
layerId = UUID0;
paths = (
{
closed = 1;
nodes = (
"946 217 OFFCURVE",
"781 -24 OFFCURVE",
"515 -24 CURVE SMOOTH",
"264 -24 OFFCURVE",
"89 232 OFFCURVE",
"89 532 CURVE SMOOTH",
"89 830 OFFCURVE",
"234 1043 OFFCURVE",
"369 1172 CURVE",
"542 1332 OFFCURVE",
"724 1387 OFFCURVE",
"861 1387 CURVE SMOOTH",
"919 1387 LINE",
"919 1349 LINE",
"760 1341 OFFCURVE",
"637 1275 OFFCURVE",
"536 1175 CURVE SMOOTH",
"470 1109 OFFCURVE",
"365 974 OFFCURVE",
"314 757 CURVE",
"410 824 OFFCURVE",
"507 858 OFFCURVE",
"604 858 CURVE SMOOTH",
"726 858 OFFCURVE",
"946 755 OFFCURVE",
"946 458 CURVE SMOOTH"
);
},
{
closed = 1;
nodes = (
"767 559 OFFCURVE",
"690 772 OFFCURVE",
"506 772 CURVE SMOOTH",
"426 772 OFFCURVE",
"356 720 OFFCURVE",
"297 684 CURVE",
"286 596 OFFCURVE",
"278 523 OFFCURVE",
"278 467 CURVE SMOOTH",
"278 282 OFFCURVE",
"375 28 OFFCURVE",
"544 32 CURVE",
"663 37 OFFCURVE",
"767 144 OFFCURVE",
"767 348 CURVE SMOOTH"
);
}
);
width = 1026;
}
);
unicode = 0036;
},
{
color = (31,255,0,1);
glyphname = seven;
lastChange = "2018-01-18 17:35:03 +0000";
layers = (
{
anchors = (
{
name = L;
position = "{504, -100}";
},
{
name = U;
position = "{504, 1435}";
}
);
hints = (
{
horizontal = 1;
place = "{1193, 164}";
},
{
horizontal = 1;
place = "{-30, 21}";
target = up;
type = BottomGhost;
}
);
layerId = UUID0;
paths = (
{
closed = 1;
nodes = (
"480 -30 LINE",
"369 -30 LINE",
"775 1193 LINE",
"402 1193 LINE SMOOTH",
"184 1193 OFFCURVE",
"143 1098 OFFCURVE",
"105 1027 CURVE",
"75 1037 LINE",
"207 1357 LINE",
"931 1357 LINE",
"931 1320 LINE"
);
}
);
width = 1026;
}
);
unicode = 0037;
},
{
color = (31,255,0,1);
glyphname = eight;
lastChange = "2018-01-18 17:35:03 +0000";
layers = (
{
anchors = (
{
name = L;
position = "{515, -100}";
},
{
name = U;
position = "{515, 1435}";
}
);
hints = (
{
place = "{122, 164}";
},
{
place = "{140, 146}";
},
{
place = "{734, 143}";
},
{
place = "{766, 141}";
},
{
horizontal = 1;
place = "{-24, 56}";
},
{
horizontal = 1;
place = "{1327, 60}";
}
);
layerId = UUID0;
paths = (
{
closed = 1;
nodes = (
"907 200 OFFCURVE",
"828 -24 OFFCURVE",
"512 -24 CURVE SMOOTH",
"258 -24 OFFCURVE",
"122 155 OFFCURVE",
"122 310 CURVE SMOOTH",
"122 481 OFFCURVE",
"294 615 OFFCURVE",
"396 682 CURVE",
"288 772 OFFCURVE",
"140 882 OFFCURVE",
"140 1063 CURVE SMOOTH",
"140 1264 OFFCURVE",
"316 1387 OFFCURVE",
"512 1387 CURVE SMOOTH",
"810 1387 OFFCURVE",
"877 1172 OFFCURVE",
"877 1092 CURVE SMOOTH",
"877 931 OFFCURVE",
"711 827 OFFCURVE",
"598 753 CURVE",
"717 663 OFFCURVE",
"906 524 OFFCURVE",
"907 321 CURVE SMOOTH"
);
},
{
closed = 1;
nodes = (
"734 1276 OFFCURVE",
"625 1327 OFFCURVE",
"515 1327 CURVE SMOOTH",
"391 1327 OFFCURVE",
"286 1256 OFFCURVE",
"286 1130 CURVE SMOOTH",
"286 991 OFFCURVE",
"384 930 OFFCURVE",
"551 790 CURVE",
"653 889 OFFCURVE",
"734 946 OFFCURVE",
"734 1104 CURVE SMOOTH"
);
},
{
closed = 1;
nodes = (
"766 412 OFFCURVE",
"564 546 OFFCURVE",
"443 647 CURVE",
"387 601 OFFCURVE",
"276 496 OFFCURVE",
"276 314 CURVE SMOOTH",
"276 133 OFFCURVE",
"386 32 OFFCURVE",
"527 32 CURVE SMOOTH",
"655 32 OFFCURVE",
"766 108 OFFCURVE",
"766 241 CURVE SMOOTH"
);
}
);
width = 1026;
}
);
unicode = 0038;
},
{
color = (31,255,0,1);
glyphname = nine;
lastChange = "2018-01-18 17:35:03 +0000";
layers = (
{
anchors = (
{
name = L;
position = "{511, -100}";
},
{
name = U;
position = "{511, 1435}";
}
);
hints = (
{
place = "{83, 177}";
},
{
place = "{747, 189}";
},
{
horizontal = 1;
place = "{496, 89}";
},
{
horizontal = 1;
place = "{1320, 67}";
},
{
horizontal = 1;
place = "{-30, 21}";
target = up;
type = BottomGhost;
}
);
layerId = UUID0;
paths = (
{
closed = 1;
nodes = (
"936 603 OFFCURVE",
"860 407 OFFCURVE",
"707 239 CURVE",
"657 177 OFFCURVE",
"452 -30 OFFCURVE",
"166 -30 CURVE SMOOTH",
"109 -30 LINE",
"109 8 LINE",
"179 11 OFFCURVE",
"349 31 OFFCURVE",
"480 167 CURVE",
"579 278 OFFCURVE",
"665 411 OFFCURVE",
"712 598 CURVE",
"609 527 OFFCURVE",
"515 496 OFFCURVE",
"427 496 CURVE SMOOTH",
"204 496 OFFCURVE",
"83 695 OFFCURVE",
"83 899 CURVE SMOOTH",
"83 1185 OFFCURVE",
"282 1387 OFFCURVE",
"504 1387 CURVE SMOOTH",
"782 1387 OFFCURVE",
"936 1086 OFFCURVE",
"936 827 CURVE SMOOTH"
);
},
{
closed = 1;
nodes = (
"747 1171 OFFCURVE",
"601 1325 OFFCURVE",
"481 1320 CURVE",
"362 1317 OFFCURVE",
"260 1209 OFFCURVE",
"260 1004 CURVE SMOOTH",
"260 756 OFFCURVE",
"360 585 OFFCURVE",
"508 585 CURVE SMOOTH",
"587 585 OFFCURVE",
"702 635 OFFCURVE",
"728 670 CURVE",
"739 757 OFFCURVE",
"747 826 OFFCURVE",
"747 877 CURVE SMOOTH"
);
}
);
width = 1026;
}
);
unicode = 0039;
},
{
color = (31,255,0,1);
glyphname = colon;
lastChange = "2018-01-18 17:35:03 +0000";
layers = (
{
layerId = UUID0;
paths = (
{
closed = 1;
nodes = (
"398 897 OFFCURVE",
"346 944 OFFCURVE",
"289 944 CURVE SMOOTH",
"227 944 OFFCURVE",
"175 897 OFFCURVE",
"175 834 CURVE SMOOTH",
"175 774 OFFCURVE",
"227 724 OFFCURVE",
"289 724 CURVE SMOOTH",
"342 724 OFFCURVE",
"398 767 OFFCURVE",
"398 834 CURVE"
);
},
{
closed = 1;
nodes = (
"398 154 OFFCURVE",
"335 195 OFFCURVE",
"286 195 CURVE SMOOTH",
"237 195 OFFCURVE",
"174 158 OFFCURVE",
"174 85 CURVE SMOOTH",
"174 17 OFFCURVE",
"229 -30 OFFCURVE",
"286 -30 CURVE SMOOTH",
"342 -30 OFFCURVE",
"398 15 OFFCURVE",
"398 85 CURVE"
);
}
);
width = 573;
}
);
unicode = 003A;
},
{
color = (31,255,0,1);
glyphname = semicolon;
lastChange = "2018-01-18 17:35:03 +0000";
layers = (
{
layerId = UUID0;
paths = (
{
closed = 1;
nodes = (
"423 899 OFFCURVE",
"373 946 OFFCURVE",
"314 946 CURVE SMOOTH",
"252 946 OFFCURVE",
"201 899 OFFCURVE",
"201 835 CURVE SMOOTH",
"201 775 OFFCURVE",
"252 727 OFFCURVE",
"314 727 CURVE SMOOTH",
"367 727 OFFCURVE",
"423 769 OFFCURVE",
"423 835 CURVE"
);
},
{
closed = 1;
nodes = (
"469 128 OFFCURVE",
"378 199 OFFCURVE",
"301 199 CURVE SMOOTH",
"233 199 OFFCURVE",
"171 154 OFFCURVE",
"171 83 CURVE SMOOTH",
"171 3 OFFCURVE",
"222 -30 OFFCURVE",
"278 -30 CURVE SMOOTH",
"310 -30 OFFCURVE",
"333 0 OFFCURVE",
"366 0 CURVE SMOOTH",
"382 0 OFFCURVE",
"386 -24 OFFCURVE",
"386 -39 CURVE SMOOTH",
"386 -171 OFFCURVE",
"273 -269 OFFCURVE",
"171 -297 CURVE",
"171 -343 LINE",
"329 -289 OFFCURVE",
"469 -181 OFFCURVE",
"469 -10 CURVE"
);
}
);
width = 573;
}
);
unicode = 003B;
},
{
color = (31,255,0,1);
glyphname = less;
lastChange = "2018-01-18 17:35:03 +0000";
layers = (
{
layerId = UUID0;
paths = (
{
closed = 1;
nodes = (
"1577 77 LINE",
"1577 199 LINE",
"521 591 LINE",
"1577 984 LINE",
"1577 1106 LINE",
"396 653 LINE",
"396 530 LINE"
);
}
);
width = 1972;
}
);
unicode = 003C;
},
{
color = (31,255,0,1);
glyphname = equal;
lastChange = "2018-01-18 17:35:03 +0000";
layers = (
{
layerId = UUID0;
paths = (
{
closed = 1;
nodes = (
"1577 710 LINE",
"1577 833 LINE",
"396 833 LINE",
"396 710 LINE"
);
},
{
closed = 1;
nodes = (
"1577 351 LINE",
"1577 474 LINE",
"396 474 LINE",
"396 351 LINE"
);
}
);
width = 1972;
}
);
unicode = 003D;
},
{
color = (31,255,0,1);
glyphname = greater;
lastChange = "2018-01-18 17:35:03 +0000";
layers = (
{
layerId = UUID0;
paths = (
{
closed = 1;
nodes = (
"1577 530 LINE",
"1577 653 LINE",
"396 1106 LINE",
"396 984 LINE",
"1450 591 LINE",
"396 199 LINE",
"396 77 LINE"
);
}
);
width = 1972;
}
);
unicode = 003E;
},
{
color = (31,255,0,1);
glyphname = question;
lastChange = "2018-01-18 17:35:03 +0000";
layers = (
{
layerId = UUID0;
paths = (
{
closed = 1;
nodes = (
"828 1270 OFFCURVE",
"670 1389 OFFCURVE",
"453 1389 CURVE SMOOTH",
"220 1389 OFFCURVE",
"92 1250 OFFCURVE",
"92 1101 CURVE SMOOTH",
"92 971 OFFCURVE",
"175 943 OFFCURVE",
"204 943 CURVE SMOOTH",
"239 943 OFFCURVE",
"284 973 OFFCURVE",
"284 1029 CURVE SMOOTH",
"284 1074 OFFCURVE",
"220 1145 OFFCURVE",
"220 1201 CURVE SMOOTH",
"220 1260 OFFCURVE",
"282 1333 OFFCURVE",
"411 1333 CURVE SMOOTH",
"515 1333 OFFCURVE",
"643 1258 OFFCURVE",
"643 1058 CURVE SMOOTH",
"643 952 OFFCURVE",
"589 828 OFFCURVE",
"549 758 CURVE SMOOTH",
"459 612 OFFCURVE",
"420 480 OFFCURVE",
"412 320 CURVE",
"455 320 LINE",
"463 506 OFFCURVE",
"530 581 OFFCURVE",
"673 742 CURVE SMOOTH",
"734 811 OFFCURVE",
"828 920 OFFCURVE",
"828 1073 CURVE"
);
},
{
closed = 1;
nodes = (
"551 152 OFFCURVE",
"497 197 OFFCURVE",
"443 197 CURVE SMOOTH",
"382 197 OFFCURVE",
"327 149 OFFCURVE",
"327 85 CURVE SMOOTH",
"327 13 OFFCURVE",
"384 -28 OFFCURVE",
"443 -28 CURVE SMOOTH",
"493 -28 OFFCURVE",
"551 11 OFFCURVE",
"551 85 CURVE"
);
}
);
width = 911;
}
);
unicode = 003F;
},
{
color = (31,255,0,1);
glyphname = at;
lastChange = "2018-01-18 17:35:03 +0000";
layers = (
{
layerId = UUID0;
paths = (
{
closed = 1;
nodes = (
"1780 171 LINE",
"1702 -8 OFFCURVE",
"1482 -381 OFFCURVE",
"976 -381 CURVE SMOOTH",
"444 -381 OFFCURVE",
"192 15 OFFCURVE",
"192 419 CURVE SMOOTH",
"192 981 OFFCURVE",
"588 1372 OFFCURVE",
"1050 1372 CURVE SMOOTH",
"1405 1372 OFFCURVE",
"1697 1142 OFFCURVE",
"1697 757 CURVE SMOOTH",
"1697 345 OFFCURVE",
"1434 102 OFFCURVE",
"1275 102 CURVE SMOOTH",
"1213 102 OFFCURVE",
"1198 158 OFFCURVE",
"1198 177 CURVE SMOOTH",
"1198 239 OFFCURVE",
"1250 408 OFFCURVE",
"1294 560 CURVE SMOOTH",
"1408 960 LINE",
"1251 936 LINE",
"1220 827 LINE",
"1211 874 OFFCURVE",
"1174 966 OFFCURVE",
"1046 966 CURVE SMOOTH",
"820 966 OFFCURVE",
"497 589 OFFCURVE",
"497 262 CURVE SMOOTH",
"497 118 OFFCURVE",
"583 32 OFFCURVE",
"676 32 CURVE SMOOTH",
"830 32 OFFCURVE",
"973 197 OFFCURVE",
"1071 316 CURVE",
"1043 154 OFFCURVE",
"1034 32 OFFCURVE",
"1206 32 CURVE SMOOTH",
"1517 32 OFFCURVE",
"1758 343 OFFCURVE",
"1758 737 CURVE SMOOTH",
"1758 1186 OFFCURVE",
"1434 1424 OFFCURVE",
"1043 1424 CURVE SMOOTH",
"607 1424 OFFCURVE",
"97 1090 OFFCURVE",
"97 446 CURVE SMOOTH",
"97 28 OFFCURVE",
"389 -444 OFFCURVE",
"971 -444 CURVE SMOOTH",
"1524 -444 OFFCURVE",
"1786 -15 OFFCURVE",
"1838 171 CURVE"
);
},
{
closed = 1;
nodes = (
"1059 339 OFFCURVE",
"902 152 OFFCURVE",
"769 152 CURVE SMOOTH",
"720 152 OFFCURVE",
"654 197 OFFCURVE",
"654 294 CURVE SMOOTH",
"654 466 OFFCURVE",
"861 919 OFFCURVE",
"1059 919 CURVE SMOOTH",
"1186 919 OFFCURVE",
"1228 767 OFFCURVE",
"1127 515 CURVE"
);
}
);
width = 1889;
}
);
unicode = 0040;
},
{
color = (31,255,0,1);
glyphname = A;
lastChange = "2018-01-18 17:35:03 +0000";
layers = (
{
anchors = (
{
name = L;
position = "{744, -112}";
},
{
name = U;
position = "{735, 1435}";
}
);
hints = (
{
horizontal = 1;
place = "{455, 73}";
},
{
horizontal = 1;
place = "{0, 21}";
target = up;
type = BottomGhost;
},
{
horizontal = 1;
place = "{1389, -20}";
target = down;
type = TopGhost;
}
);
layerId = UUID0;
paths = (
{
closed = 1;
nodes = (
"922 0 LINE",
"922 38 LINE",
"1112 41 OFFCURVE",
"1064 151 OFFCURVE",
"1020 260 CURVE",
"938 455 LINE",
"412 455 LINE",
"320 239 LINE",
"269 116 OFFCURVE",
"255 54 OFFCURVE",
"444 38 CURVE",
"444 0 LINE",
"15 0 LINE",
"15 38 LINE",
"131 46 OFFCURVE",
"176 122 OFFCURVE",
"241 270 CURVE",
"718 1389 LINE",
"753 1389 LINE",
"1225 260 LINE",
"1306 69 OFFCURVE",
"1343 46 OFFCURVE",
"1457 38 CURVE",
"1457 -3 LINE"
);
},
{
closed = 1;
nodes = (
"681 1079 LINE",
"444 528 LINE",
"911 528 LINE"
);
}
);
width = 1473;
}
);
unicode = 0041;
},
{
color = (31,255,0,1);
glyphname = B;
lastChange = "2018-01-18 17:35:03 +0000";
layers = (
{
anchors = (
{
name = L;
position = "{645, -100}";
},
{
name = U;
position = "{645, 1435}";
}
);
hints = (
{
place = "{229, 193}";
},
{
place = "{982, 211}";
},
{
place = "{1023, 232}";
},
{
horizontal = 1;
place = "{0, 71}";
},
{
horizontal = 1;
place = "{665, 69}";
},
{
horizontal = 1;
place = "{1289, 68}";
}
);
layerId = UUID0;
paths = (
{
closed = 1;
nodes = (
"1255 275 OFFCURVE",
"1205 169 OFFCURVE",
"1118 98 CURVE",
"1030 32 OFFCURVE",
"907 0 OFFCURVE",
"674 0 CURVE SMOOTH",
"36 0 LINE",
"36 38 LINE",
"85 38 LINE SMOOTH",
"141 38 OFFCURVE",
"182 56 OFFCURVE",
"207 92 CURVE",
"220 115 OFFCURVE",
"229 164 OFFCURVE",
"229 241 CURVE SMOOTH",
"229 1118 LINE SMOOTH",
"229 1201 OFFCURVE",
"220 1255 OFFCURVE",
"201 1278 CURVE",
"174 1305 OFFCURVE",
"138 1320 OFFCURVE",
"85 1320 CURVE SMOOTH",
"36 1320 LINE",
"36 1357 LINE",
"621 1357 LINE SMOOTH",
"1100 1357 OFFCURVE",
"1193 1155 OFFCURVE",
"1193 994 CURVE SMOOTH",
"1193 862 OFFCURVE",
"1111 742 OFFCURVE",
"946 695 CURVE",
"1161 655 OFFCURVE",
"1255 526 OFFCURVE",
"1255 371 CURVE SMOOTH"
);
},
{
closed = 1;
nodes = (
"982 1158 OFFCURVE",
"859 1289 OFFCURVE",
"604 1289 CURVE SMOOTH",
"535 1289 OFFCURVE",
"475 1285 OFFCURVE",
"422 1270 CURVE",
"422 747 LINE",
"474 735 OFFCURVE",
"533 734 OFFCURVE",
"613 734 CURVE SMOOTH",
"878 734 OFFCURVE",
"982 832 OFFCURVE",
"982 1004 CURVE SMOOTH"
);
},
{
closed = 1;
nodes = (
"1023 535 OFFCURVE",
"875 665 OFFCURVE",
"600 665 CURVE SMOOTH",
"515 665 OFFCURVE",
"459 662 OFFCURVE",
"422 654 CURVE",
"422 98 LINE",
"501 81 OFFCURVE",
"577 71 OFFCURVE",
"653 71 CURVE SMOOTH",
"893 71 OFFCURVE",
"1023 190 OFFCURVE",
"1023 355 CURVE SMOOTH"
);
}
);
width = 1333;
}
);
unicode = 0042;
},
{
color = (31,255,0,1);
glyphname = C;
lastChange = "2018-01-18 17:35:03 +0000";
layers = (
{
anchors = (
{
name = H;
position = "{684, 0}";
},
{
name = L;
position = "{741, -100}";
},
{
name = U;
position = "{741, 1435}";
}
);
background = {
paths = (
{
closed = 1;
nodes = (
"1295 318 LINE",
"1245 229 LINE",
"1129 98 LINE",
"991 11 LINE",
"829 -32 LINE",
"733 -32 LINE",
"629 -32 LINE",
"451 19 LINE",
"304 110 LINE",
"191 238 LINE",
"113 391 LINE",
"73 566 LINE",
"73 658 LINE",
"73 806 LINE",
"172 1071 LINE",
"353 1271 LINE",
"609 1388 LINE",
"765 1388 LINE",
"842 1388 LINE",
"959 1358 LINE",
"1044 1323 LINE",
"1100 1293 LINE",
"1115 1293 LINE",
"1142 1293 LINE",
"1187 1340 LINE",
"1198 1388 LINE",
"1234 1388 LINE",
"1266 927 LINE",
"1234 927 LINE",
"1203 1031 LINE",
"1113 1179 LINE",
"998 1273 LINE",
"860 1317 LINE",
"781 1317 LINE",
"676 1317 LINE",
"500 1238 LINE",
"373 1074 LINE",
"301 826 LINE",
"301 656 LINE",
"301 511 LINE",
"374 287 LINE",
"508 135 LINE",
"695 57 LINE",
"810 57 LINE",
"877 57 LINE",
"991 82 LINE",
"1099 145 LINE",
"1206 254 LINE",
"1266 339 LINE"
);
}
);
};
hints = (
{
place = "{74, 227}";
},
{
horizontal = 1;
place = "{-32, 89}";
},
{
horizontal = 1;
place = "{1318, 71}";
},
{
horizontal = 1;
place = "{927, -20}";
target = down;
type = TopGhost;
}
);
layerId = UUID0;
paths = (
{
closed = 1;
nodes = (
"1266 339 LINE",
"1106 113 OFFCURVE",
"988 57 OFFCURVE",
"811 57 CURVE SMOOTH",
"505 57 OFFCURVE",
"301 268 OFFCURVE",
"301 657 CURVE SMOOTH",
"301 1107 OFFCURVE",
"503 1318 OFFCURVE",
"781 1318 CURVE SMOOTH",
"991 1318 OFFCURVE",
"1152 1206 OFFCURVE",
"1235 927 CURVE",
"1266 927 LINE",
"1235 1389 LINE",
"1198 1389 LINE",
"1184 1325 OFFCURVE",
"1152 1294 OFFCURVE",
"1115 1294 CURVE SMOOTH",
"1074 1294 OFFCURVE",
"971 1389 OFFCURVE",
"766 1389 CURVE SMOOTH",
"347 1389 OFFCURVE",
"74 1053 OFFCURVE",
"74 658 CURVE SMOOTH",
"74 289 OFFCURVE",
"316 -32 OFFCURVE",
"734 -32 CURVE SMOOTH",
"989 -32 OFFCURVE",
"1163 82 OFFCURVE",
"1296 319 CURVE"
);
}
);
width = 1368;
}
);
unicode = 0043;
},
{
color = (31,255,0,1);
glyphname = D;
lastChange = "2018-01-18 17:35:03 +0000";
layers = (
{
anchors = (
{
name = L;
position = "{719, -100}";
},
{
name = U;
position = "{719, 1435}";
}
);
hints = (
{
place = "{229, 193}";
},
{
place = "{1175, 227}";
},
{
horizontal = 1;
place = "{0, 69}";
},
{
horizontal = 1;
place = "{1281, 76}";
}
);
layerId = UUID0;
paths = (
{
closed = 1;
nodes = (
"1402 304 OFFCURVE",
"1167 0 OFFCURVE",
"643 0 CURVE SMOOTH",
"36 0 LINE",
"36 38 LINE",
"87 38 LINE SMOOTH",
"144 38 OFFCURVE",
"186 55 OFFCURVE",
"207 92 CURVE SMOOTH",
"220 115 OFFCURVE",
"229 164 OFFCURVE",
"229 241 CURVE SMOOTH",
"229 1118 LINE SMOOTH",
"229 1201 OFFCURVE",
"221 1255 OFFCURVE",
"204 1278 CURVE",
"175 1305 OFFCURVE",
"138 1320 OFFCURVE",
"87 1320 CURVE SMOOTH",
"36 1320 LINE",
"36 1357 LINE",
"588 1357 LINE SMOOTH",
"888 1357 OFFCURVE",
"1063 1309 OFFCURVE",
"1193 1197 CURVE",
"1318 1085 OFFCURVE",
"1402 898 OFFCURVE",
"1402 687 CURVE SMOOTH"
);
},
{
closed = 1;
nodes = (
"1175 1053 OFFCURVE",
"948 1281 OFFCURVE",
"627 1281 CURVE SMOOTH",
"567 1281 OFFCURVE",
"501 1274 OFFCURVE",
"422 1251 CURVE",
"422 98 LINE",
"506 81 OFFCURVE",
"576 69 OFFCURVE",
"635 69 CURVE SMOOTH",
"942 66 OFFCURVE",
"1175 298 OFFCURVE",
"1175 676 CURVE SMOOTH"
);
}
);
width = 1481;
}
);
unicode = 0044;
},
{
color = (31,255,0,1);
glyphname = E;
lastChange = "2018-01-18 17:35:03 +0000";
layers = (
{
anchors = (
{
name = L;
position = "{624, -100}";
},
{
name = U;
position = "{624, 1435}";
}
);
hints = (
{
place = "{237, 190}";
},
{
horizontal = 1;
place = "{0, 74}";
},
{
horizontal = 1;
place = "{673, 74}";
},
{
horizontal = 1;
place = "{1283, 74}";
},
{
horizontal = 1;
place = "{943, -20}";
target = down;
type = TopGhost;
}
);
layerId = UUID0;
paths = (
{
closed = 1;
nodes = (
"1089 0 LINE",
"43 0 LINE",
"43 38 LINE",
"90 38 LINE SMOOTH",
"113 38 OFFCURVE",
"171 45 OFFCURVE",
"197 69 CURVE SMOOTH",
"223 93 OFFCURVE",
"237 122 OFFCURVE",
"237 241 CURVE SMOOTH",
"237 1121 LINE SMOOTH",
"237 1210 OFFCURVE",
"227 1261 OFFCURVE",
"212 1280 CURVE",
"187 1307 OFFCURVE",
"147 1320 OFFCURVE",
"90 1320 CURVE SMOOTH",
"43 1320 LINE",
"43 1357 LINE",
"1089 1357 LINE",
"1104 1061 LINE",
"1065 1061 LINE",
"1037 1178 OFFCURVE",
"1040 1283 OFFCURVE",
"804 1283 CURVE SMOOTH",
"427 1283 LINE",
"427 747 LINE",
"727 747 LINE SMOOTH",
"910 747 OFFCURVE",
"923 806 OFFCURVE",
"941 943 CURVE",
"979 943 LINE",
"979 471 LINE",
"941 471 LINE",
"922 612 OFFCURVE",
"908 673 OFFCURVE",
"727 673 CURVE SMOOTH",
"427 673 LINE",
"427 224 LINE",
"427 164 LINE SMOOTH",
"427 111 OFFCURVE",
"447 74 OFFCURVE",
"543 74 CURVE SMOOTH",
"772 74 LINE SMOOTH",
"992 74 OFFCURVE",
"1039 115 OFFCURVE",
"1166 342 CURVE",
"1206 342 LINE"
);
}
);
width = 1251;
}
);
unicode = 0045;
},
{
color = (31,255,0,1);
glyphname = F;
lastChange = "2018-01-18 17:35:03 +0000";
layers = (
{
anchors = (
{
name = L;
position = "{545, -100}";
},
{
name = U;
position = "{545, 1435}";
}
);
hints = (
{
place = "{227, 193}";
},
{
horizontal = 1;
place = "{666, 85}";
},
{
horizontal = 1;
place = "{1283, 74}";
},
{
horizontal = 1;
place = "{0, 21}";
target = up;
type = BottomGhost;
},
{
horizontal = 1;
place = "{935, -20}";
target = down;
type = TopGhost;
}
);
layerId = UUID0;
paths = (
{
closed = 1;
nodes = (
"1021 1061 LINE",
"976 1228 OFFCURVE",
"917 1283 OFFCURVE",
"720 1283 CURVE SMOOTH",
"420 1283 LINE",
"420 751 LINE",
"666 751 LINE SMOOTH",
"784 751 OFFCURVE",
"825 795 OFFCURVE",
"844 935 CURVE",
"881 935 LINE",
"881 475 LINE",
"844 475 LINE",
"844 605 OFFCURVE",
"805 666 OFFCURVE",
"666 666 CURVE SMOOTH",
"420 666 LINE",
"420 241 LINE SMOOTH",
"420 153 OFFCURVE",
"422 108 OFFCURVE",
"443 89 CURVE",
"468 54 OFFCURVE",
"519 38 OFFCURVE",
"566 38 CURVE SMOOTH",
"615 38 LINE",
"615 0 LINE",
"34 0 LINE",
"34 38 LINE",
"83 38 LINE SMOOTH",
"136 38 OFFCURVE",
"177 54 OFFCURVE",
"204 87 CURVE",
"219 109 OFFCURVE",
"227 160 OFFCURVE",
"227 241 CURVE SMOOTH",
"227 1118 LINE SMOOTH",
"227 1215 OFFCURVE",
"219 1255 OFFCURVE",
"199 1275 CURVE SMOOTH",
"171 1304 OFFCURVE",
"126 1320 OFFCURVE",
"83 1320 CURVE SMOOTH",
"34 1320 LINE",
"34 1357 LINE",
"1043 1357 LINE",
"1058 1061 LINE"
);
}
);
width = 1140;
}
);
unicode = 0046;
},
{
color = (31,255,0,1);
glyphname = G;
lastChange = "2018-01-18 17:35:03 +0000";
layers = (
{
anchors = (
{
name = L;
position = "{760, -100}";
},
{
name = U;
position = "{760, 1435}";
}
);
hints = (
{
place = "{71, 230}";
},
{
place = "{1104, 195}";
},
{
horizontal = 1;
place = "{-32, 70}";
},
{
horizontal = 1;
place = "{1319, 70}";
}
);
layerId = UUID0;
paths = (
{
closed = 1;
nodes = (
"1427 704 LINE SMOOTH",
"1374 704 OFFCURVE",
"1340 686 OFFCURVE",
"1320 651 CURVE SMOOTH",
"1307 628 OFFCURVE",
"1299 577 OFFCURVE",
"1299 504 CURVE SMOOTH",
"1299 90 LINE",
"1150 3 OFFCURVE",
"993 -32 OFFCURVE",
"822 -32 CURVE SMOOTH",
"352 -32 OFFCURVE",
"71 271 OFFCURVE",
"71 658 CURVE SMOOTH",
"71 990 OFFCURVE",
"321 1389 OFFCURVE",
"790 1389 CURVE SMOOTH",
"1018 1389 OFFCURVE",
"1124 1302 OFFCURVE",
"1174 1302 CURVE SMOOTH",
"1190 1302 OFFCURVE",
"1217 1317 OFFCURVE",
"1222 1389 CURVE",
"1260 1389 LINE",
"1294 960 LINE",
"1260 960 LINE",
"1172 1220 OFFCURVE",
"1013 1319 OFFCURVE",
"811 1319 CURVE SMOOTH",
"480 1319 OFFCURVE",
"304 1051 OFFCURVE",
"301 703 CURVE SMOOTH",
"297 314 OFFCURVE",
"526 38 OFFCURVE",
"825 38 CURVE SMOOTH",
"921 38 OFFCURVE",
"1015 58 OFFCURVE",
"1104 113 CURVE",
"1104 504 LINE SMOOTH",
"1104 674 OFFCURVE",
"1074 701 OFFCURVE",
"927 704 CURVE",
"927 739 LINE",
"1450 739 LINE",
"1450 704 LINE"
);
}
);
width = 1481;
}
);
unicode = 0047;
},
{
color = (31,255,0,1);
glyphname = H;
lastChange = "2018-01-18 17:35:03 +0000";
layers = (
{
anchors = (
{
name = L;
position = "{737, -100}";
},
{
name = U;
position = "{737, 1435}";
}
);
hints = (
{
place = "{229, 191}";
},
{
place = "{1053, 190}";
},
{
horizontal = 1;
place = "{654, 74}";
},
{
horizontal = 1;
place = "{0, 21}";
target = up;
type = BottomGhost;
},
{
horizontal = 1;
place = "{1357, -20}";
target = down;
type = TopGhost;
}
);
layerId = UUID0;
paths = (
{
closed = 1;
nodes = (
"858 0 LINE",
"858 38 LINE",
"907 38 LINE SMOOTH",
"962 38 OFFCURVE",
"1002 54 OFFCURVE",
"1027 87 CURVE SMOOTH",
"1042 107 OFFCURVE",
"1053 157 OFFCURVE",
"1053 241 CURVE SMOOTH",
"1053 654 LINE",
"420 654 LINE",
"420 241 LINE SMOOTH",
"420 149 OFFCURVE",
"427 108 OFFCURVE",
"446 85 CURVE SMOOTH",
"469 57 OFFCURVE",
"523 38 OFFCURVE",
"568 38 CURVE SMOOTH",
"618 38 LINE",
"618 0 LINE",
"36 0 LINE",
"36 38 LINE",
"85 38 LINE SMOOTH",
"139 38 OFFCURVE",
"179 54 OFFCURVE",
"205 87 CURVE SMOOTH",
"221 109 OFFCURVE",
"229 160 OFFCURVE",
"229 241 CURVE SMOOTH",
"229 1118 LINE SMOOTH",
"229 1212 OFFCURVE",
"223 1250 OFFCURVE",
"201 1275 CURVE",
"183 1301 OFFCURVE",
"125 1320 OFFCURVE",
"85 1320 CURVE SMOOTH",
"36 1320 LINE",
"36 1357 LINE",
"618 1357 LINE",
"618 1320 LINE",
"568 1320 LINE SMOOTH",
"524 1320 OFFCURVE",
"480 1310 OFFCURVE",
"451 1278 CURVE SMOOTH",
"432 1256 OFFCURVE",
"420 1222 OFFCURVE",
"420 1118 CURVE SMOOTH",
"420 728 LINE",
"1053 728 LINE",
"1053 1118 LINE SMOOTH",
"1053 1215 OFFCURVE",
"1042 1259 OFFCURVE",
"1023 1278 CURVE SMOOTH",
"998 1303 OFFCURVE",
"954 1320 OFFCURVE",
"907 1320 CURVE SMOOTH",
"858 1320 LINE",
"858 1357 LINE",
"1440 1357 LINE",
"1440 1320 LINE",
"1390 1320 LINE SMOOTH",
"1350 1320 OFFCURVE",
"1302 1305 OFFCURVE",
"1274 1278 CURVE",
"1244 1245 OFFCURVE",
"1243 1225 OFFCURVE",
"1243 1118 CURVE SMOOTH",
"1243 241 LINE SMOOTH",
"1243 153 OFFCURVE",
"1246 116 OFFCURVE",
"1267 87 CURVE SMOOTH",
"1292 52 OFFCURVE",
"1345 38 OFFCURVE",
"1390 38 CURVE SMOOTH",
"1440 38 LINE",
"1440 0 LINE"
);
}
);
width = 1481;
}
);
unicode = 0048;
},
{
color = (31,255,0,1);
glyphname = I;
lastChange = "2018-01-18 17:35:03 +0000";
layers = (
{
anchors = (
{
name = L;
position = "{342, -100}";
},
{
name = U;
position = "{342, 1435}";
}
);
hints = (
{
place = "{244, 194}";
},
{
horizontal = 1;
place = "{0, 21}";
target = up;
type = BottomGhost;
},
{
horizontal = 1;
place = "{1357, -20}";
target = down;
type = TopGhost;
}
);
layerId = UUID0;
paths = (
{
closed = 1;
nodes = (
"51 0 LINE",
"51 38 LINE",
"100 38 LINE SMOOTH",
"157 38 OFFCURVE",
"193 52 OFFCURVE",
"220 87 CURVE SMOOTH",
"236 106 OFFCURVE",
"244 157 OFFCURVE",
"244 241 CURVE SMOOTH",
"244 1118 LINE SMOOTH",
"244 1211 OFFCURVE",
"243 1243 OFFCURVE",
"222 1270 CURVE SMOOTH",
"198 1302 OFFCURVE",
"147 1320 OFFCURVE",
"100 1320 CURVE SMOOTH",
"51 1320 LINE",
"51 1357 LINE",
"632 1357 LINE",
"632 1320 LINE",
"583 1320 LINE SMOOTH",
"530 1320 OFFCURVE",
"490 1304 OFFCURVE",
"463 1272 CURVE",
"448 1249 OFFCURVE",
"438 1199 OFFCURVE",
"438 1118 CURVE SMOOTH",
"438 241 LINE SMOOTH",
"438 153 OFFCURVE",
"446 109 OFFCURVE",
"461 85 CURVE SMOOTH",
"474 64 OFFCURVE",
"537 38 OFFCURVE",
"583 38 CURVE SMOOTH",
"632 38 LINE",
"632 0 LINE"
);
}
);
width = 682;
}
);
unicode = 0049;
},
{
color = (31,255,0,1);
glyphname = J;
lastChange = "2018-01-18 17:35:03 +0000";
layers = (
{
anchors = (
{
name = L;
position = "{413, -100}";
},
{
name = U;
position = "{496, 1435}";
}
);
hints = (
{
place = "{400, 191}";
},
{
horizontal = 1;
place = "{-32, 71}";
},
{
horizontal = 1;
place = "{-32, 259}";
},
{
horizontal = 1;
place = "{1357, -20}";
target = down;
type = TopGhost;
}
);
layerId = UUID0;
paths = (
{
closed = 1;
nodes = (
"735 1320 LINE SMOOTH",
"679 1320 OFFCURVE",
"643 1304 OFFCURVE",
"615 1272 CURVE",
"599 1248 OFFCURVE",
"591 1197 OFFCURVE",
"591 1118 CURVE SMOOTH",
"591 453 LINE SMOOTH",
"591 39 OFFCURVE",
"369 -32 OFFCURVE",
"244 -32 CURVE SMOOTH",
"112 -32 OFFCURVE",
"43 45 OFFCURVE",
"43 122 CURVE SMOOTH",
"43 195 OFFCURVE",
"93 227 OFFCURVE",
"144 227 CURVE SMOOTH",
"266 227 OFFCURVE",
"244 39 OFFCURVE",
"325 39 CURVE SMOOTH",
"360 39 OFFCURVE",
"400 78 OFFCURVE",
"400 192 CURVE SMOOTH",
"400 1118 LINE SMOOTH",
"400 1198 OFFCURVE",
"397 1241 OFFCURVE",
"381 1266 CURVE SMOOTH",
"361 1295 OFFCURVE",
"309 1320 OFFCURVE",
"252 1320 CURVE SMOOTH",
"205 1320 LINE",
"205 1357 LINE",
"784 1357 LINE",
"784 1320 LINE"
);
}
);
width = 798;
}
);
unicode = 004A;
},
{
color = (31,255,0,1);
glyphname = K;
lastChange = "2018-01-18 17:35:03 +0000";
layers = (
{
anchors = (
{
name = L;
position = "{766, -100}";
},
{
name = U;
position = "{766, 1435}";
}
);
hints = (
{
place = "{227, 193}";
},
{
horizontal = 1;
place = "{0, 21}";
target = up;
type = BottomGhost;
},
{
horizontal = 1;
place = "{1357, -20}";
target = down;
type = TopGhost;
}
);
layerId = UUID0;
paths = (
{
closed = 1;
nodes = (
"852 0 LINE",
"852 38 LINE",
"931 38 OFFCURVE",
"958 65 OFFCURVE",
"961 100 CURVE",
"968 128 OFFCURVE",
"945 154 OFFCURVE",
"888 213 CURVE",
"480 620 LINE",
"420 560 LINE",
"420 241 LINE SMOOTH",
"420 154 OFFCURVE",
"423 115 OFFCURVE",
"444 87 CURVE SMOOTH",
"467 55 OFFCURVE",
"517 38 OFFCURVE",
"566 38 CURVE SMOOTH",
"613 38 LINE",
"613 0 LINE",
"36 0 LINE",
"36 38 LINE",
"83 38 LINE SMOOTH",
"138 38 OFFCURVE",
"179 54 OFFCURVE",
"205 87 CURVE SMOOTH",
"220 106 OFFCURVE",
"227 158 OFFCURVE",
"227 241 CURVE SMOOTH",
"227 1118 LINE SMOOTH",
"227 1210 OFFCURVE",
"218 1257 OFFCURVE",
"201 1278 CURVE SMOOTH",
"186 1296 OFFCURVE",
"126 1320 OFFCURVE",
"83 1320 CURVE SMOOTH",
"36 1320 LINE",
"36 1357 LINE",
"613 1357 LINE",
"613 1320 LINE",
"566 1320 LINE SMOOTH",
"526 1320 OFFCURVE",
"481 1310 OFFCURVE",
"453 1281 CURVE",
"432 1263 OFFCURVE",
"420 1230 OFFCURVE",
"420 1118 CURVE SMOOTH",
"420 692 LINE",
"435 704 OFFCURVE",
"478 746 OFFCURVE",
"558 819 CURVE SMOOTH",
"757 1003 OFFCURVE",
"874 1133 OFFCURVE",
"917 1193 CURVE SMOOTH",
"934 1218 OFFCURVE",
"943 1242 OFFCURVE",
"943 1265 CURVE SMOOTH",
"943 1292 OFFCURVE",
"920 1320 OFFCURVE",
"852 1320 CURVE SMOOTH",
"820 1320 LINE",
"820 1357 LINE",
"1320 1357 LINE",
"1320 1320 LINE",
"1263 1320 OFFCURVE",
"1225 1311 OFFCURVE",
"1151 1266 CURVE",
"1063 1210 OFFCURVE",
"1077 1221 OFFCURVE",
"820 960 CURVE",
"613 753 LINE",
"1113 254 LINE SMOOTH",
"1195 172 OFFCURVE",
"1266 116 OFFCURVE",
"1325 87 CURVE",
"1382 56 OFFCURVE",
"1440 45 OFFCURVE",
"1497 38 CURVE",
"1497 0 LINE"
);
}
);
width = 1481;
}
);
unicode = 004B;
},
{
color = (31,255,0,1);
glyphname = L;
lastChange = "2018-01-18 17:35:03 +0000";
layers = (
{
anchors = (
{
name = L;
position = "{624, -100}";
},
{
name = U;
position = "{624, 1435}";
}
);
hints = (
{
place = "{237, 190}";
},
{
horizontal = 1;
place = "{0, 87}";
},
{
horizontal = 1;
place = "{1357, -20}";
target = down;
type = TopGhost;
}
);
layerId = UUID0;
paths = (
{
closed = 1;
nodes = (
"1092 0 LINE",
"38 0 LINE",
"38 38 LINE",
"156 38 OFFCURVE",
"237 53 OFFCURVE",
"237 207 CURVE SMOOTH",
"237 1150 LINE SMOOTH",
"237 1303 OFFCURVE",
"156 1319 OFFCURVE",
"38 1319 CURVE",
"38 1357 LINE",
"627 1357 LINE",
"627 1319 LINE",
"509 1319 OFFCURVE",
"427 1303 OFFCURVE",
"427 1150 CURVE SMOOTH",
"427 256 LINE SMOOTH",
"427 102 OFFCURVE",
"479 87 OFFCURVE",
"598 87 CURVE SMOOTH",
"735 87 LINE SMOOTH",
"898 87 OFFCURVE",
"969 92 OFFCURVE",
"1023 146 CURVE",
"1093 203 OFFCURVE",
"1127 255 OFFCURVE",
"1175 374 CURVE",
"1211 369 LINE"
);
}
);
width = 1251;
}
);
unicode = 004C;
},
{
color = (31,255,0,1);
glyphname = M;
lastChange = "2018-01-18 17:35:03 +0000";
layers = (
{
anchors = (
{
name = L;
position = "{907, -100}";
},
{
name = U;
position = "{907, 1435}";
}
);
hints = (
{
place = "{224, 90}";
},
{
place = "{1396, 192}";
},
{
horizontal = 1;
place = "{0, 21}";
target = up;
type = BottomGhost;
},
{
horizontal = 1;
place = "{1357, -20}";
target = down;
type = TopGhost;
}
);
layerId = UUID0;
paths = (
{
closed = 1;
nodes = (
"1203 0 LINE",
"1203 38 LINE",
"1250 38 LINE SMOOTH",
"1313 38 OFFCURVE",
"1349 53 OFFCURVE",
"1374 90 CURVE SMOOTH",
"1389 111 OFFCURVE",
"1396 160 OFFCURVE",
"1396 237 CURVE SMOOTH",
"1396 1142 LINE",
"872 0 LINE",
"837 0 LINE",
"314 1142 LINE",
"314 237 LINE SMOOTH",
"314 152 OFFCURVE",
"324 99 OFFCURVE",
"343 79 CURVE",
"364 52 OFFCURVE",
"403 38 OFFCURVE",
"459 38 CURVE SMOOTH",
"506 38 LINE",
"506 0 LINE",
"36 0 LINE",
"36 38 LINE",
"83 38 LINE SMOOTH",
"140 38 OFFCURVE",
"177 53 OFFCURVE",
"205 90 CURVE",
"217 111 OFFCURVE",
"224 157 OFFCURVE",
"224 237 CURVE SMOOTH",
"224 1121 LINE SMOOTH",
"224 1208 OFFCURVE",
"217 1258 OFFCURVE",
"181 1283 CURVE",
"152 1307 OFFCURVE",
"117 1320 OFFCURVE",
"36 1320 CURVE",
"36 1357 LINE",
"419 1357 LINE",
"911 296 LINE",
"1396 1357 LINE",
"1780 1357 LINE",
"1780 1320 LINE",
"1733 1320 LINE SMOOTH",
"1676 1320 OFFCURVE",
"1635 1303 OFFCURVE",
"1609 1270 CURVE",
"1594 1245 OFFCURVE",
"1588 1200 OFFCURVE",
"1588 1121 CURVE SMOOTH",
"1588 237 LINE SMOOTH",
"1588 154 OFFCURVE",
"1598 101 OFFCURVE",
"1617 79 CURVE SMOOTH",
"1640 52 OFFCURVE",
"1678 38 OFFCURVE",
"1733 38 CURVE SMOOTH",
"1780 38 LINE",
"1780 0 LINE"
);
}
);
width = 1824;
}
);
unicode = 004D;
},
{
color = (31,255,0,1);
glyphname = N;
lastChange = "2018-01-18 17:35:03 +0000";
layers = (
{
anchors = (
{
name = L;
position = "{731, -100}";
},
{
name = U;
position = "{731, 1435}";
}
);
hints = (
{
place = "{241, 86}";
},
{
place = "{1172, 88}";
},
{
horizontal = 1;
place = "{1357, -20}";
target = down;
type = TopGhost;
},
{
horizontal = 1;
place = "{0, 21}";
target = up;
type = BottomGhost;
},
{
horizontal = 1;
place = "{-22, 21}";
target = up;
type = BottomGhost;
}
);
layerId = UUID0;
paths = (
{
closed = 1;
nodes = (
"1404 1320 LINE SMOOTH",
"1345 1320 OFFCURVE",
"1304 1305 OFFCURVE",
"1281 1270 CURVE SMOOTH",
"1267 1247 OFFCURVE",
"1260 1197 OFFCURVE",
"1260 1121 CURVE SMOOTH",
"1260 -22 LINE",
"1225 -22 LINE",
"327 1071 LINE",
"327 237 LINE SMOOTH",
"327 154 OFFCURVE",
"336 101 OFFCURVE",
"355 79 CURVE SMOOTH",
"380 52 OFFCURVE",
"419 38 OFFCURVE",
"474 38 CURVE SMOOTH",
"521 38 LINE",
"521 0 LINE",
"47 0 LINE",
"47 38 LINE",
"94 38 LINE SMOOTH",
"154 38 OFFCURVE",
"194 53 OFFCURVE",
"217 90 CURVE",
"233 111 OFFCURVE",
"241 157 OFFCURVE",
"241 237 CURVE SMOOTH",
"241 1180 LINE",
"213 1208 OFFCURVE",
"174 1320 OFFCURVE",
"11 1320 CURVE",
"11 1357 LINE",
"343 1357 LINE",
"1172 339 LINE",
"1172 1121 LINE SMOOTH",
"1172 1207 OFFCURVE",
"1162 1259 OFFCURVE",
"1143 1278 CURVE",
"1118 1306 OFFCURVE",
"1079 1320 OFFCURVE",
"1026 1320 CURVE SMOOTH",
"981 1320 LINE",
"981 1357 LINE",
"1450 1357 LINE",
"1450 1320 LINE"
);
}
);
width = 1481;
}
);
unicode = 004E;
},
{
color = (31,255,0,1);
glyphname = O;
lastChange = "2018-01-18 17:35:03 +0000";
layers = (
{
anchors = (
{
name = L;
position = "{735, -100}";
},
{
name = U;
position = "{735, 1435}";
}
);
hints = (
{
place = "{71, 230}";
},
{
place = "{1174, 226}";
},
{
horizontal = 1;
place = "{-32, 71}";
},
{
horizontal = 1;
place = "{1318, 71}";
}
);
layerId = UUID0;
paths = (
{
closed = 1;
nodes = (
"1400 275 OFFCURVE",
"1111 -32 OFFCURVE",
"734 -32 CURVE SMOOTH",
"365 -32 OFFCURVE",
"71 255 OFFCURVE",
"71 682 CURVE SMOOTH",
"71 1089 OFFCURVE",
"365 1389 OFFCURVE",
"751 1389 CURVE SMOOTH",
"1106 1389 OFFCURVE",
"1400 1092 OFFCURVE",
"1400 687 CURVE SMOOTH"
);
},
{
closed = 1;
nodes = (
"1174 1073 OFFCURVE",
"1032 1315 OFFCURVE",
"729 1318 CURVE",
"457 1318 OFFCURVE",
"301 1076 OFFCURVE",
"301 689 CURVE SMOOTH",
"301 303 OFFCURVE",
"453 42 OFFCURVE",
"731 39 CURVE",
"990 39 OFFCURVE",
"1171 233 OFFCURVE",
"1174 660 CURVE"
);
}
);
width = 1481;
}
);
unicode = 004F;
},
{
color = (31,255,0,1);
glyphname = P;
lastChange = "2018-01-18 17:35:03 +0000";
layers = (
{
anchors = (
{
name = L;
position = "{552, -100}";
},
{
name = U;
position = "{552, 1435}";
}
);
hints = (
{
place = "{227, 193}";
},
{
place = "{839, 229}";
},
{
horizontal = 1;
place = "{607, 66}";
},
{
horizontal = 1;
place = "{1278, 79}";
},
{
horizontal = 1;
place = "{0, 21}";
target = up;
type = BottomGhost;
}
);
layerId = UUID0;
paths = (
{
closed = 1;
nodes = (
"1068 776 OFFCURVE",
"952 604 OFFCURVE",
"593 607 CURVE SMOOTH",
"559 607 LINE SMOOTH",
"527 607 OFFCURVE",
"498 608 OFFCURVE",
"420 618 CURVE",
"420 241 LINE SMOOTH",
"420 156 OFFCURVE",
"426 102 OFFCURVE",
"450 83 CURVE",
"475 53 OFFCURVE",
"514 38 OFFCURVE",
"565 38 CURVE SMOOTH",
"615 38 LINE",
"615 0 LINE",
"36 0 LINE",
"36 38 LINE",
"85 38 LINE SMOOTH",
"140 38 OFFCURVE",
"183 55 OFFCURVE",
"207 92 CURVE",
"218 113 OFFCURVE",
"227 161 OFFCURVE",
"227 241 CURVE SMOOTH",
"227 1118 LINE SMOOTH",
"227 1201 OFFCURVE",
"218 1255 OFFCURVE",
"201 1278 CURVE",
"174 1305 OFFCURVE",
"138 1320 OFFCURVE",
"85 1320 CURVE SMOOTH",
"36 1320 LINE",
"36 1357 LINE",
"530 1357 LINE SMOOTH",
"671 1357 OFFCURVE",
"818 1342 OFFCURVE",
"912 1272 CURVE SMOOTH",
"1001 1207 OFFCURVE",
"1068 1122 OFFCURVE",
"1068 982 CURVE SMOOTH"
);
},
{
closed = 1;
nodes = (
"844 1127 OFFCURVE",
"742 1278 OFFCURVE",
"551 1278 CURVE SMOOTH",
"519 1278 OFFCURVE",
"475 1269 OFFCURVE",
"420 1258 CURVE",
"420 684 LINE",
"491 673 OFFCURVE",
"544 673 OFFCURVE",
"583 673 CURVE SMOOTH",
"723 673 OFFCURVE",
"836 786 OFFCURVE",
"839 961 CURVE"
);
}
);
width = 1140;
}
);
unicode = 0050;
},
{
color = (31,255,0,1);
glyphname = Q;
lastChange = "2018-01-18 17:35:03 +0000";
layers = (
{
anchors = (
{
name = L;
position = "{736, -270}";
},
{
name = U;
position = "{736, 1435}";
}
);
hints = (
{
place = "{71, 230}";
},
{
place = "{1174, 228}";
},
{
horizontal = 1;
place = "{1313, 76}";
},
{
horizontal = 1;
place = "{-402, 21}";
target = up;
type = BottomGhost;
}
);
layerId = UUID0;
paths = (
{
closed = 1;
nodes = (
"1402 346 OFFCURVE",
"1200 78 OFFCURVE",
"904 -13 CURVE",
"1034 -244 OFFCURVE",
"1188 -353 OFFCURVE",
"1395 -369 CURVE",
"1395 -402 LINE",
"1071 -388 OFFCURVE",
"733 -205 OFFCURVE",
"558 -13 CURVE",
"199 112 OFFCURVE",
"71 389 OFFCURVE",
"71 681 CURVE SMOOTH",
"71 1089 OFFCURVE",
"367 1389 OFFCURVE",
"747 1389 CURVE SMOOTH",
"1107 1389 OFFCURVE",
"1402 1093 OFFCURVE",
"1402 678 CURVE SMOOTH"
);
},
{
closed = 1;
nodes = (
"1174 1057 OFFCURVE",
"1019 1313 OFFCURVE",
"734 1313 CURVE SMOOTH",
"466 1313 OFFCURVE",
"301 1094 OFFCURVE",
"301 681 CURVE SMOOTH",
"301 299 OFFCURVE",
"453 38 OFFCURVE",
"734 38 CURVE",
"1013 35 OFFCURVE",
"1174 270 OFFCURVE",
"1174 653 CURVE SMOOTH"
);
}
);
width = 1481;
}
);
unicode = 0051;
},
{
color = (31,255,0,1);
glyphname = R;
lastChange = "2018-01-18 17:35:03 +0000";
layers = (
{
anchors = (
{
name = L;
position = "{712, -100}";
},
{
name = U;
position = "{612, 1435}";
}
);
hints = (
{
place = "{229, 191}";
},
{
place = "{869, 226}";
},
{
horizontal = 1;
place = "{1281, 76}";
},
{
horizontal = 1;
place = "{0, 21}";
target = up;
type = BottomGhost;
}
);
layerId = UUID0;
paths = (
{
closed = 1;
nodes = (
"1023 0 LINE",
"565 635 LINE",
"528 634 OFFCURVE",
"502 630 OFFCURVE",
"481 630 CURVE SMOOTH",
"461 630 OFFCURVE",
"443 630 OFFCURVE",
"420 635 CURVE",
"420 241 LINE SMOOTH",
"420 155 OFFCURVE",
"430 102 OFFCURVE",
"450 83 CURVE",
"475 53 OFFCURVE",
"514 38 OFFCURVE",
"565 38 CURVE SMOOTH",
"618 38 LINE",
"618 0 LINE",
"36 0 LINE",
"36 38 LINE",
"87 38 LINE SMOOTH",
"146 38 OFFCURVE",
"186 56 OFFCURVE",
"209 92 CURVE SMOOTH",
"222 113 OFFCURVE",
"229 163 OFFCURVE",
"229 241 CURVE SMOOTH",
"229 1118 LINE SMOOTH",
"229 1201 OFFCURVE",
"221 1255 OFFCURVE",
"204 1278 CURVE",
"175 1305 OFFCURVE",
"138 1320 OFFCURVE",
"87 1320 CURVE SMOOTH",
"36 1320 LINE",
"36 1357 LINE",
"528 1357 LINE SMOOTH",
"673 1357 OFFCURVE",
"781 1348 OFFCURVE",
"850 1325 CURVE SMOOTH",
"989 1280 OFFCURVE",
"1095 1163 OFFCURVE",
"1095 1011 CURVE SMOOTH",
"1095 840 OFFCURVE",
"988 714 OFFCURVE",
"761 660 CURVE",
"1038 270 LINE",
"1162 98 OFFCURVE",
"1238 54 OFFCURVE",
"1387 38 CURVE",
"1387 0 LINE"
);
},
{
closed = 1;
nodes = (
"869 1162 OFFCURVE",
"756 1281 OFFCURVE",
"577 1281 CURVE SMOOTH",
"542 1281 OFFCURVE",
"491 1276 OFFCURVE",
"420 1265 CURVE",
"420 698 LINE",
"477 698 LINE SMOOTH",
"743 698 OFFCURVE",
"869 823 OFFCURVE",
"869 994 CURVE SMOOTH"
);
}
);
width = 1368;
}
);
unicode = 0052;
},
{
color = (31,255,0,1);
glyphname = S;
lastChange = "2018-01-18 17:35:03 +0000";
layers = (
{
anchors = (
{
name = L;
position = "{581, -100}";
},
{
name = U;
position = "{581, 1435}";
}
);
hints = (
{
place = "{141, 148}";
},
{
place = "{852, 180}";
},
{
horizontal = 1;
place = "{-32, 79}";
},
{
horizontal = 1;
place = "{1310, 79}";
},
{
horizontal = 1;
place = "{919, -20}";
target = down;
type = TopGhost;
}
);
layerId = UUID0;
paths = (
{
closed = 1;
nodes = (
"1032 140 OFFCURVE",
"852 -32 OFFCURVE",
"604 -32 CURVE SMOOTH",
"418 -32 OFFCURVE",
"302 46 OFFCURVE",
"238 46 CURVE SMOOTH",
"206 46 OFFCURVE",
"186 25 OFFCURVE",
"177 -32 CURVE",
"141 -32 LINE",
"141 435 LINE",
"177 435 LINE",
"212 153 OFFCURVE",
"389 47 OFFCURVE",
"581 47 CURVE SMOOTH",
"747 47 OFFCURVE",
"852 150 OFFCURVE",
"852 269 CURVE SMOOTH",
"852 405 OFFCURVE",
"764 458 OFFCURVE",
"526 593 CURVE",
"201 774 OFFCURVE",
"130 863 OFFCURVE",
"130 1032 CURVE SMOOTH",
"130 1223 OFFCURVE",
"284 1389 OFFCURVE",
"526 1389 CURVE SMOOTH",
"682 1389 OFFCURVE",
"781 1312 OFFCURVE",
"838 1312 CURVE SMOOTH",
"869 1312 OFFCURVE",
"888 1330 OFFCURVE",
"904 1389 CURVE",
"941 1389 LINE",
"941 919 LINE",
"904 919 LINE",
"877 1172 OFFCURVE",
"717 1310 OFFCURVE",
"527 1310 CURVE SMOOTH",
"394 1310 OFFCURVE",
"289 1212 OFFCURVE",
"289 1101 CURVE SMOOTH",
"289 993 OFFCURVE",
"357 932 OFFCURVE",
"626 787 CURVE SMOOTH",
"754 718 OFFCURVE",
"838 664 OFFCURVE",
"885 628 CURVE SMOOTH",
"977 560 OFFCURVE",
"1032 458 OFFCURVE",
"1032 346 CURVE SMOOTH"
);
}
);
width = 1140;
}
);
unicode = 0053;
},
{
color = (31,255,0,1);
glyphname = T;
lastChange = "2018-01-18 17:35:03 +0000";
layers = (
{
anchors = (
{
name = L;
position = "{624, -100}";
},
{
name = U;
position = "{624, 1435}";
}
);
hints = (
{
place = "{526, 192}";
},
{
horizontal = 1;
place = "{1274, 83}";
},
{
horizontal = 1;
place = "{0, 21}";
target = up;
type = BottomGhost;
}
);
layerId = UUID0;
paths = (
{
closed = 1;
nodes = (
"1158 1038 LINE",
"1145 1137 OFFCURVE",
"1126 1175 OFFCURVE",
"1095 1206 CURVE",
"1052 1253 OFFCURVE",
"999 1274 OFFCURVE",
"910 1274 CURVE SMOOTH",
"718 1274 LINE",
"718 237 LINE SMOOTH",
"718 153 OFFCURVE",
"729 100 OFFCURVE",
"745 79 CURVE",
"769 52 OFFCURVE",
"808 38 OFFCURVE",
"861 38 CURVE SMOOTH",
"910 38 LINE",
"910 0 LINE",
"333 0 LINE",
"333 38 LINE",
"382 38 LINE SMOOTH",
"442 38 OFFCURVE",
"477 53 OFFCURVE",
"504 90 CURVE",
"517 111 OFFCURVE",
"526 157 OFFCURVE",
"526 237 CURVE SMOOTH",
"526 1274 LINE",
"363 1274 LINE SMOOTH",
"256 1274 OFFCURVE",
"216 1264 OFFCURVE",
"179 1230 CURVE",
"130 1194 OFFCURVE",
"102 1130 OFFCURVE",
"94 1038 CURVE",
"49 1038 LINE",
"64 1357 LINE",
"1189 1357 LINE",
"1201 1038 LINE"
);
}
);
width = 1248;
}
);
unicode = 0054;
},
{
color = (31,255,0,1);
glyphname = U;
lastChange = "2018-01-18 17:35:03 +0000";
layers = (
{
anchors = (
{
name = L;
position = "{744, -100}";
},
{
name = U;
position = "{744, 1435}";
}
);
hints = (
{
place = "{207, 193}";
},
{
place = "{1174, 91}";
},
{
horizontal = 1;
place = "{-32, 85}";
},
{
horizontal = 1;
place = "{1357, -20}";
target = down;
type = TopGhost;
}
);
layerId = UUID0;
paths = (
{
closed = 1;
nodes = (
"1408 1320 LINE SMOOTH",
"1352 1320 OFFCURVE",
"1317 1299 OFFCURVE",
"1286 1251 CURVE",
"1270 1232 OFFCURVE",
"1265 1186 OFFCURVE",
"1265 1111 CURVE SMOOTH",
"1265 558 LINE SMOOTH",
"1265 371 OFFCURVE",
"1240 219 OFFCURVE",
"1145 118 CURVE SMOOTH",
"1049 14 OFFCURVE",
"938 -32 OFFCURVE",
"739 -32 CURVE SMOOTH",
"184 -32 OFFCURVE",
"207 371 OFFCURVE",
"207 585 CURVE SMOOTH",
"207 1118 LINE SMOOTH",
"207 1202 OFFCURVE",
"197 1256 OFFCURVE",
"174 1281 CURVE",
"153 1310 OFFCURVE",
"116 1320 OFFCURVE",
"61 1320 CURVE SMOOTH",
"30 1320 LINE",
"30 1357 LINE",
"577 1357 LINE",
"577 1320 LINE",
"527 1320 LINE SMOOTH",
"471 1320 OFFCURVE",
"449 1304 OFFCURVE",
"425 1267 CURVE SMOOTH",
"410 1242 OFFCURVE",
"400 1193 OFFCURVE",
"400 1118 CURVE SMOOTH",
"400 526 LINE SMOOTH",
"400 348 OFFCURVE",
"408 53 OFFCURVE",
"753 53 CURVE SMOOTH",
"917 53 OFFCURVE",
"1028 130 OFFCURVE",
"1079 175 CURVE",
"1163 255 OFFCURVE",
"1174 425 OFFCURVE",
"1174 520 CURVE SMOOTH",
"1174 568 LINE",
"1174 1118 LINE SMOOTH",
"1174 1202 OFFCURVE",
"1165 1254 OFFCURVE",
"1145 1278 CURVE",
"1118 1306 OFFCURVE",
"1080 1320 OFFCURVE",
"1029 1320 CURVE SMOOTH",
"979 1320 LINE",
"979 1357 LINE",
"1459 1357 LINE",
"1459 1320 LINE"
);
}
);
width = 1481;
}
);
unicode = 0055;
},
{
color = (31,255,0,1);
glyphname = V;
lastChange = "2018-01-18 17:35:03 +0000";
layers = (
{
anchors = (
{
name = L;
position = "{735, -100}";
},
{
name = U;
position = "{735, 1435}";
}
);
background = {
paths = (
{
closed = 1;
nodes = (
"1454 1320 LINE",
"1419 1315 LINE",
"1363 1293 LINE",
"1346 1275 LINE",
"1294 1227 LINE",
"1251 1125 LINE",
"779 -32 LINE",
"741 -32 LINE",
"235 1139 LINE",
"217 1183 LINE",
"191 1232 LINE",
"171 1259 LINE",
"155 1272 LINE",
"146 1279 LINE",
"123 1297 LINE",
"65 1316 LINE",
"17 1320 LINE",
"17 1356 LINE",
"572 1356 LINE",
"572 1320 LINE",
"512 1315 LINE",
"447 1292 LINE",
"434 1271 LINE",
"416 1245 LINE",
"433 1150 LINE",
"467 1072 LINE",
"814 276 LINE",
"1134 1064 LINE",
"1163 1139 LINE",
"1187 1231 LINE",
"1171 1258 LINE",
"1166 1267 LINE",
"1150 1283 LINE",
"1121 1299 LINE",
"1074 1314 LINE",
"1037 1320 LINE",
"1037 1356 LINE",
"1454 1356 LINE"
);
}
);
};
hints = (
{
horizontal = 1;
place = "{1357, -20}";
target = down;
type = TopGhost;
},
{
horizontal = 1;
place = "{-33, 21}";
target = up;
type = BottomGhost;
}
);
layerId = UUID0;
paths = (
{
closed = 1;
nodes = (
"1455 1320 LINE",
"1408 1315 OFFCURVE",
"1370 1300 OFFCURVE",
"1347 1275 CURVE",
"1312 1243 OFFCURVE",
"1280 1193 OFFCURVE",
"1251 1126 CURVE",
"780 -32 LINE",
"742 -32 LINE",
"235 1140 LINE",
"187 1255 OFFCURVE",
"170 1262 OFFCURVE",
"146 1280 CURVE SMOOTH",
"115 1303 OFFCURVE",
"82 1316 OFFCURVE",
"17 1320 CURVE",
"17 1357 LINE",
"573 1357 LINE",
"573 1320 LINE",
"492 1315 OFFCURVE",
"451 1300 OFFCURVE",
"435 1272 CURVE",
"410 1236 OFFCURVE",
"423 1176 OFFCURVE",
"467 1073 CURVE",
"814 276 LINE",
"1135 1065 LINE",
"1174 1165 OFFCURVE",
"1193 1223 OFFCURVE",
"1172 1258 CURVE",
"1157 1280 OFFCURVE",
"1135 1304 OFFCURVE",
"1037 1320 CURVE",
"1037 1357 LINE",
"1455 1357 LINE"
);
}
);
width = 1481;
}
);
unicode = 0056;
},
{
color = (31,255,0,1);
glyphname = W;
lastChange = "2018-01-18 17:35:03 +0000";
layers = (
{
anchors = (
{
name = L;
position = "{974, -100}";
},
{
name = U;
position = "{974, 1435}";
}
);
background = {
paths = (
{
closed = 1;
nodes = (
"1918 1320 LINE",
"1895 1320 LINE",
"1854 1313 LINE",
"1818 1293 LINE",
"1785 1258 LINE",
"1770 1230 LINE",
"1761 1213 LINE",
"1727 1130 LINE",
"1705 1064 LINE",
"1328 -32 LINE",
"1287 -32 LINE",
"980 835 LINE",
"672 -32 LINE",
"634 -32 LINE",
"233 1096 LINE",
"213 1152 LINE",
"188 1218 LINE",
"172 1254 LINE",
"159 1271 LINE",
"150 1277 LINE",
"132 1300 LINE",
"73 1320 LINE",
"28 1320 LINE",
"28 1356 LINE",
"528 1356 LINE",
"528 1320 LINE",
"504 1320 LINE",
"431 1320 LINE",
"408 1275 LINE",
"403 1265 LINE",
"398 1243 LINE",
"404 1202 LINE",
"423 1134 LINE",
"442 1078 LINE",
"707 316 LINE",
"933 963 LINE",
"911 1038 LINE",
"885 1103 LINE",
"874 1131 LINE",
"850 1187 LINE",
"823 1237 LINE",
"796 1276 LINE",
"782 1287 LINE",
"762 1304 LINE",
"715 1320 LINE",
"672 1320 LINE",
"672 1356 LINE",
"1200 1356 LINE",
"1200 1320 LINE",
"1165 1320 LINE",
"1057 1320 LINE",
"1057 1232 LINE",
"1057 1205 LINE",
"1077 1118 LINE",
"1100 1055 LINE",
"1362 316 LINE",
"1620 1064 LINE",
"1635 1109 LINE",
"1656 1177 LINE",
"1664 1227 LINE",
"1659 1263 LINE",
"1648 1277 LINE",
"1629 1303 LINE",
"1561 1320 LINE",
"1514 1320 LINE",
"1514 1356 LINE",
"1918 1356 LINE"
);
}
);
};
hints = (
{
horizontal = 1;
place = "{1357, -20}";
target = down;
type = TopGhost;
},
{
horizontal = 1;
place = "{-33, 21}";
target = up;
type = BottomGhost;
}
);
layerId = UUID0;
paths = (
{
closed = 1;
nodes = (
"1919 1320 LINE",
"1857 1320 OFFCURVE",
"1812 1306 OFFCURVE",
"1771 1230 CURVE SMOOTH",
"1759 1207 OFFCURVE",
"1734 1152 OFFCURVE",
"1705 1065 CURVE",
"1328 -32 LINE",
"1288 -32 LINE",
"981 835 LINE",
"673 -32 LINE",
"635 -32 LINE",
"233 1097 LINE",
"179 1245 OFFCURVE",
"175 1262 OFFCURVE",
"149 1278 CURVE",
"126 1309 OFFCURVE",
"89 1320 OFFCURVE",
"28 1320 CURVE",
"28 1357 LINE",
"528 1357 LINE",
"528 1320 LINE",
"504 1320 LINE SMOOTH",
"455 1320 OFFCURVE",
"423 1305 OFFCURVE",
"408 1275 CURVE SMOOTH",
"396 1249 OFFCURVE",
"390 1228 OFFCURVE",
"443 1079 CURVE",
"707 316 LINE",
"934 964 LINE",
"919 1013 OFFCURVE",
"903 1060 OFFCURVE",
"885 1104 CURVE SMOOTH",
"856 1179 OFFCURVE",
"820 1258 OFFCURVE",
"782 1288 CURVE SMOOTH",
"755 1309 OFFCURVE",
"729 1320 OFFCURVE",
"673 1320 CURVE",
"673 1357 LINE",
"1201 1357 LINE",
"1201 1320 LINE",
"1166 1320 LINE SMOOTH",
"1094 1320 OFFCURVE",
"1058 1291 OFFCURVE",
"1058 1233 CURVE SMOOTH",
"1058 1196 OFFCURVE",
"1070 1140 OFFCURVE",
"1101 1056 CURVE",
"1363 316 LINE",
"1620 1065 LINE",
"1661 1187 OFFCURVE",
"1677 1238 OFFCURVE",
"1649 1278 CURVE SMOOTH",
"1624 1313 OFFCURVE",
"1578 1320 OFFCURVE",
"1515 1320 CURVE",
"1515 1357 LINE",
"1919 1357 LINE"
);
}
);
width = 1935;
}
);
unicode = 0057;
},
{
color = (31,255,0,1);
glyphname = X;
lastChange = "2018-01-18 17:35:03 +0000";
layers = (
{
anchors = (
{
name = L;
position = "{734, -100}";
},
{
name = U;
position = "{734, 1435}";
}
);
hints = (
{
horizontal = 1;
place = "{0, 21}";
target = up;
type = BottomGhost;
},
{
horizontal = 1;
place = "{1357, -20}";
target = down;
type = TopGhost;
}
);
layerId = UUID0;
paths = (
{
closed = 1;
nodes = (
"874 0 LINE",
"874 38 LINE",
"942 38 OFFCURVE",
"975 47 OFFCURVE",
"994 75 CURVE SMOOTH",
"1021 116 OFFCURVE",
"1018 133 OFFCURVE",
"943 248 CURVE SMOOTH",
"713 598 LINE",
"427 233 LINE SMOOTH",
"374 165 OFFCURVE",
"367 147 OFFCURVE",
"367 115 CURVE SMOOTH",
"367 73 OFFCURVE",
"392 41 OFFCURVE",
"497 38 CURVE",
"497 0 LINE",
"13 0 LINE",
"13 38 LINE",
"133 41 OFFCURVE",
"256 149 OFFCURVE",
"348 262 CURVE",
"670 668 LINE",
"402 1061 LINE",
"264 1266 OFFCURVE",
"176 1315 OFFCURVE",
"43 1320 CURVE",
"43 1357 LINE",
"670 1357 LINE",
"670 1320 LINE",
"618 1319 OFFCURVE",
"581 1310 OFFCURVE",
"560 1294 CURVE",
"520 1259 OFFCURVE",
"515 1232 OFFCURVE",
"577 1136 CURVE",
"787 825 LINE",
"1027 1130 LINE",
"1086 1202 OFFCURVE",
"1104 1248 OFFCURVE",
"1079 1281 CURVE SMOOTH",
"1061 1306 OFFCURVE",
"1040 1320 OFFCURVE",
"943 1320 CURVE",
"943 1357 LINE",
"1426 1357 LINE",
"1426 1320 LINE",
"1279 1315 OFFCURVE",
"1224 1244 OFFCURVE",
"1109 1097 CURVE",
"835 753 LINE",
"1127 319 LINE SMOOTH",
"1291 75 OFFCURVE",
"1337 46 OFFCURVE",
"1455 38 CURVE",
"1455 0 LINE"
);
}
);
width = 1481;
}
);
unicode = 0058;
},
{
color = (31,255,0,1);
glyphname = Y;
lastChange = "2018-01-18 17:35:03 +0000";
layers = (
{
anchors = (
{
name = L;
position = "{734, -100}";
},
{
name = U;
position = "{734, 1435}";
}
);
hints = (
{
place = "{635, 193}";
},
{
horizontal = 1;
place = "{1357, -20}";
target = down;
type = TopGhost;
},
{
horizontal = 1;
place = "{0, 21}";
target = up;
type = BottomGhost;
}
);
layerId = UUID0;
paths = (
{
closed = 1;
nodes = (
"1426 1320 LINE SMOOTH",
"1392 1320 OFFCURVE",
"1316 1296 OFFCURVE",
"1258 1233 CURVE SMOOTH",
"1230 1202 OFFCURVE",
"1199 1157 OFFCURVE",
"1158 1090 CURVE",
"828 576 LINE",
"828 237 LINE SMOOTH",
"828 152 OFFCURVE",
"838 99 OFFCURVE",
"858 79 CURVE",
"881 52 OFFCURVE",
"921 38 OFFCURVE",
"979 38 CURVE SMOOTH",
"1021 38 LINE",
"1021 0 LINE",
"446 0 LINE",
"446 38 LINE",
"493 38 LINE SMOOTH",
"550 38 OFFCURVE",
"588 53 OFFCURVE",
"615 90 CURVE",
"627 111 OFFCURVE",
"635 157 OFFCURVE",
"635 237 CURVE SMOOTH",
"635 558 LINE",
"264 1126 LINE",
"220 1190 OFFCURVE",
"193 1235 OFFCURVE",
"156 1266 CURVE",
"121 1293 OFFCURVE",
"70 1320 OFFCURVE",
"17 1320 CURVE",
"17 1357 LINE",
"600 1357 LINE",
"600 1320 LINE",
"570 1320 LINE SMOOTH",
"534 1320 OFFCURVE",
"444 1306 OFFCURVE",
"444 1233 CURVE SMOOTH",
"444 1210 OFFCURVE",
"464 1166 OFFCURVE",
"504 1101 CURVE",
"787 665 LINE",
"1056 1082 LINE",
"1114 1175 OFFCURVE",
"1136 1225 OFFCURVE",
"1098 1274 CURVE",
"1083 1301 OFFCURVE",
"1054 1320 OFFCURVE",
"979 1320 CURVE",
"979 1357 LINE",
"1450 1357 LINE",
"1450 1320 LINE"
);
}
);
width = 1481;
}
);
unicode = 0059;
},
{
color = (31,255,0,1);
glyphname = Z;
lastChange = "2018-01-18 17:35:03 +0000";
layers = (
{
anchors = (
{
name = L;
position = "{612, -100}";
},
{
name = U;
position = "{612, 1435}";
}
);
hints = (
{
horizontal = 1;
place = "{0, 83}";
},
{
horizontal = 1;
place = "{1278, 79}";
}
);
layerId = UUID0;
paths = (
{
closed = 1;
nodes = (
"1133 0 LINE",
"28 0 LINE",
"28 38 LINE",
"896 1278 LINE",
"463 1278 LINE SMOOTH",
"359 1278 OFFCURVE",
"306 1264 OFFCURVE",
"266 1228 CURVE SMOOTH",
"232 1199 OFFCURVE",
"207 1147 OFFCURVE",
"186 1018 CURVE",
"148 1018 LINE",
"175 1357 LINE",
"1180 1357 LINE",
"289 83 LINE",
"844 83 LINE SMOOTH",
"929 83 OFFCURVE",
"993 99 OFFCURVE",
"1038 138 CURVE",
"1086 175 OFFCURVE",
"1125 249 OFFCURVE",
"1164 366 CURVE",
"1195 359 LINE"
);
}
);
width = 1251;
}
);
unicode = 005A;
},
{
color = (31,255,0,1);
glyphname = bracketleft;
lastChange = "2018-01-18 17:35:03 +0000";
layers = (
{
layerId = UUID0;
paths = (
{
closed = 1;
nodes = (
"607 -406 LINE",
"607 -327 LINE",
"316 -327 LINE",
"316 1312 LINE",
"607 1312 LINE",
"607 1389 LINE",
"166 1389 LINE",
"166 -406 LINE"
);
}
);
width = 682;
}
);
unicode = 005B;
},
{
color = (31,255,0,1);
glyphname = backslash;
lastChange = "2018-01-18 17:35:03 +0000";
layers = (
{
layerId = UUID0;
paths = (
{
closed = 1;
nodes = (
"577 -30 LINE",
"89 1424 LINE",
"2 1424 LINE",
"496 -30 LINE"
);
}
);
width = 570;
}
);
unicode = 005C;
},
{
color = (31,255,0,1);
glyphname = bracketright;
lastChange = "2018-01-18 17:35:03 +0000";
layers = (
{
layerId = UUID0;
paths = (
{
closed = 1;
nodes = (
"517 -408 LINE",
"517 1389 LINE",
"77 1389 LINE",
"77 1312 LINE",
"367 1312 LINE",
"367 -327 LINE",
"77 -327 LINE",
"77 -408 LINE"
);
}
);
width = 682;
}
);
unicode = 005D;
},
{
color = (31,255,0,1);
glyphname = asciicircum;
lastChange = "2018-01-18 17:35:03 +0000";
layers = (
{
anchors = (
{
name = U;
position = "{321, 1375}";
}
);
layerId = UUID0;
paths = (
{
closed = 1;
nodes = (
"573 1043 LINE",
"321 1257 LINE",
"71 1043 LINE",
"0 1043 LINE",
"258 1387 LINE",
"386 1387 LINE",
"643 1043 LINE"
);
}
);
width = 643;
}
);
unicode = 005E;
},
{
color = (31,255,0,1);
glyphname = underscore;
lastChange = "2018-01-18 17:35:03 +0000";
layers = (
{
layerId = UUID0;
paths = (
{
closed = 1;
nodes = (
"643 -296 LINE",
"643 -186 LINE",
"0 -186 LINE",
"0 -296 LINE"
);
}
);
width = 643;
}
);
unicode = 005F;
},
{
color = (31,255,0,1);
glyphname = grave;
lastChange = "2018-01-18 17:35:03 +0000";
layers = (
{
anchors = (
{
name = U;
position = "{233, 1375}";
}
);
layerId = UUID0;
paths = (
{
closed = 1;
nodes = (
"467 1043 LINE",
"183 1328 LINE SMOOTH",
"146 1366 OFFCURVE",
"98 1396 OFFCURVE",
"64 1396 CURVE SMOOTH",
"24 1396 OFFCURVE",
"0 1366 OFFCURVE",
"0 1319 CURVE SMOOTH",
"0 1283 OFFCURVE",
"55 1251 OFFCURVE",
"89 1230 CURVE SMOOTH",
"384 1043 LINE"
);
}
);
width = 703;
}
);
unicode = 0060;
},
{
color = (31,255,0,1);
glyphname = a;
lastChange = "2018-01-18 17:35:03 +0000";
layers = (
{
anchors = (
{
name = L;
position = "{445, -100}";
},
{
name = U;
position = "{445, 1000}";
}
);
background = {
paths = (
{
closed = 1;
nodes = (
"909 132 LINE",
"796 -17 LINE",
"690 -17 LINE",
"668 -17 LINE",
"629 -3 LINE",
"600 31 LINE",
"583 88 LINE",
"583 132 LINE",
"523 85 LINE",
"444 26 LINE",
"383 -6 LINE",
"328 -17 LINE",
"292 -17 LINE",
"243 -17 LINE",
"163 16 LINE",
"105 77 LINE",
"73 164 LINE",
"73 217 LINE",
"73 268 LINE",
"110 360 LINE",
"220 453 LINE",
"420 551 LINE",
"583 607 LINE",
"583 645 LINE",
"583 711 LINE",
"562 801 LINE",
"520 858 LINE",
"456 883 LINE",
"412 883 LINE",
"349 883 LINE",
"277 818 LINE",
"274 771 LINE",
"276 711 LINE",
"278 668 LINE",
"231 617 LINE",
"193 617 LINE",
"153 617 LINE",
"109 668 LINE",
"109 713 LINE",
"109 767 LINE",
"164 852 LINE",
"257 911 LINE",
"378 942 LINE",
"444 942 LINE",
"543 942 LINE",
"664 899 LINE",
"730 818 LINE",
"751 702 LINE",
"751 630 LINE",
"751 318 LINE",
"751 254 LINE",
"755 172 LINE",
"756 158 LINE",
"761 131 LINE",
"781 109 LINE",
"800 109 LINE",
"809 109 LINE",
"825 114 LINE",
"847 130 LINE",
"881 162 LINE",
"909 190 LINE"
);
},
{
closed = 1;
nodes = (
"583 548 LINE",
"467 503 LINE",
"332 428 LINE",
"262 360 LINE",
"243 297 LINE",
"243 264 LINE",
"243 228 LINE",
"265 168 LINE",
"302 123 LINE",
"353 97 LINE",
"382 96 LINE",
"421 94 LINE",
"520 146 LINE",
"583 197 LINE"
);
}
);
};
hints = (
{
place = "{74, 169}";
},
{
place = "{109, 167}";
},
{
place = "{583, 168}";
},
{
horizontal = 1;
place = "{-17, 114}";
},
{
horizontal = 1;
place = "{883, 60}";
}
);
layerId = UUID0;
paths = (
{
closed = 1;
nodes = (
"910 132 LINE",
"835 33 OFFCURVE",
"761 -17 OFFCURVE",
"690 -17 CURVE SMOOTH",
"631 -17 OFFCURVE",
"583 16 OFFCURVE",
"583 132 CURVE",
"422 6 OFFCURVE",
"389 -17 OFFCURVE",
"292 -17 CURVE SMOOTH",
"161 -17 OFFCURVE",
"74 75 OFFCURVE",
"74 217 CURVE SMOOTH",
"74 352 OFFCURVE",
"147 457 OFFCURVE",
"583 607 CURVE",
"583 645 LINE SMOOTH",
"583 822 OFFCURVE",
"529 883 OFFCURVE",
"412 883 CURVE SMOOTH",
"329 883 OFFCURVE",
"278 835 OFFCURVE",
"274 772 CURVE",
"276 712 LINE",
"279 653 OFFCURVE",
"244 618 OFFCURVE",
"193 618 CURVE SMOOTH",
"140 618 OFFCURVE",
"109 653 OFFCURVE",
"109 713 CURVE SMOOTH",
"109 857 OFFCURVE",
"269 943 OFFCURVE",
"444 943 CURVE SMOOTH",
"710 943 OFFCURVE",
"751 824 OFFCURVE",
"751 630 CURVE SMOOTH",
"751 319 LINE SMOOTH",
"751 232 OFFCURVE",
"756 177 OFFCURVE",
"757 158 CURVE",
"762 122 OFFCURVE",
"775 109 OFFCURVE",
"800 109 CURVE SMOOTH",
"828 109 OFFCURVE",
"834 116 OFFCURVE",
"910 190 CURVE"
);
},
{
closed = 1;
nodes = (
"583 549 LINE",
"274 429 OFFCURVE",
"243 351 OFFCURVE",
"243 264 CURVE SMOOTH",
"243 170 OFFCURVE",
"305 97 OFFCURVE",
"382 97 CURVE",
"434 93 OFFCURVE",
"499 129 OFFCURVE",
"583 197 CURVE"
);
}
);
width = 911;
}
);
unicode = 0061;
},
{
color = (31,255,0,1);
glyphname = b;
lastChange = "2018-01-18 17:35:03 +0000";
layers = (
{
anchors = (
{
name = L;
position = "{540, -100}";
},
{
name = U;
position = "{540, 1435}";
}
);
hints = (
{
place = "{148, 168}";
},
{
place = "{781, 173}";
},
{
horizontal = 1;
place = "{-30, 75}";
},
{
horizontal = 1;
place = "{804, 139}";
},
{
horizontal = 1;
place = "{1424, -20}";
target = down;
type = TopGhost;
}
);
layerId = UUID0;
paths = (
{
closed = 1;
nodes = (
"954 192 OFFCURVE",
"733 -30 OFFCURVE",
"481 -30 CURVE SMOOTH",
"376 -30 OFFCURVE",
"267 8 OFFCURVE",
"148 89 CURVE",
"148 1037 LINE SMOOTH",
"148 1242 OFFCURVE",
"140 1261 OFFCURVE",
"116 1280 CURVE",
"95 1299 OFFCURVE",
"69 1298 OFFCURVE",
"6 1278 CURVE",
"-8 1313 LINE",
"269 1424 LINE",
"316 1424 LINE",
"316 758 LINE",
"404 881 OFFCURVE",
"500 943 OFFCURVE",
"604 943 CURVE SMOOTH",
"790 943 OFFCURVE",
"954 773 OFFCURVE",
"954 496 CURVE SMOOTH"
);
},
{
closed = 1;
nodes = (
"781 667 OFFCURVE",
"662 804 OFFCURVE",
"523 804 CURVE SMOOTH",
"472 804 OFFCURVE",
"419 789 OFFCURVE",
"316 697 CURVE",
"316 146 LINE",
"381 81 OFFCURVE",
"455 45 OFFCURVE",
"532 45 CURVE SMOOTH",
"652 45 OFFCURVE",
"781 177 OFFCURVE",
"781 438 CURVE SMOOTH"
);
}
);
width = 1026;
}
);
unicode = 0062;
},
{
color = (31,255,0,1);
glyphname = c;
lastChange = "2018-01-18 17:35:03 +0000";
layers = (
{
anchors = (
{
name = H;
position = "{455, 0}";
},
{
name = L;
position = "{481, -100}";
},
{
name = U;
position = "{481, 1000}";
}
);
background = {
paths = (
{
closed = 1;
nodes = (
"841 348 LINE",
"828 265 LINE",
"756 126 LINE",
"653 26 LINE",
"527 -30 LINE",
"459 -30 LINE",
"378 -30 LINE",
"236 39 LINE",
"130 166 LINE",
"69 346 LINE",
"69 457 LINE",
"69 566 LINE",
"139 745 LINE",
"258 872 LINE",
"417 942 LINE",
"506 942 LINE",
"643 942 LINE",
"729 871 LINE",
"772 836 LINE",
"818 762 LINE",
"818 724 LINE",
"818 689 LINE",
"771 639 LINE",
"724 639 LINE",
"709 639 LINE",
"673 645 LINE",
"640 668 LINE",
"616 715 LINE",
"613 756 LINE",
"608 810 LINE",
"543 877 LINE",
"474 877 LINE",
"417 877 LINE",
"327 826 LINE",
"265 737 LINE",
"233 615 LINE",
"233 544 LINE",
"233 463 LINE",
"272 313 LINE",
"348 198 LINE",
"458 130 LINE",
"530 130 LINE",
"572 130 LINE",
"649 149 LINE",
"719 201 LINE",
"784 292 LINE",
"814 363 LINE"
);
}
);
};
hints = (
{
place = "{69, 164}";
},
{
place = "{233, 380}";
},
{
horizontal = 1;
place = "{-30, 160}";
},
{
horizontal = 1;
place = "{877, 66}";
}
);
layerId = UUID0;
paths = (
{
closed = 1;
nodes = (
"814 363 LINE",
"735 174 OFFCURVE",
"644 130 OFFCURVE",
"530 130 CURVE SMOOTH",
"339 130 OFFCURVE",
"233 327 OFFCURVE",
"233 544 CURVE SMOOTH",
"233 734 OFFCURVE",
"321 877 OFFCURVE",
"474 877 CURVE SMOOTH",
"566 877 OFFCURVE",
"607 829 OFFCURVE",
"613 757 CURVE SMOOTH",
"622 646 OFFCURVE",
"684 639 OFFCURVE",
"724 639 CURVE SMOOTH",
"788 639 OFFCURVE",
"819 677 OFFCURVE",
"819 724 CURVE SMOOTH",
"819 775 OFFCURVE",
"788 825 OFFCURVE",
"729 872 CURVE SMOOTH",
"672 919 OFFCURVE",
"597 943 OFFCURVE",
"506 943 CURVE SMOOTH",
"268 943 OFFCURVE",
"69 747 OFFCURVE",
"69 458 CURVE SMOOTH",
"69 160 OFFCURVE",
"243 -30 OFFCURVE",
"459 -30 CURVE SMOOTH",
"641 -30 OFFCURVE",
"805 128 OFFCURVE",
"842 348 CURVE"
);
}
);
width = 911;
}
);
unicode = 0063;
},
{
color = (31,255,0,1);
glyphname = d;
lastChange = "2018-01-18 17:35:03 +0000";
layers = (
{
anchors = (
{
name = L;
position = "{550, -100}";
},
{
name = U;
position = "{547, 1435}";
}
);
hints = (
{
place = "{67, 185}";
},
{
place = "{712, 168}";
},
{
horizontal = 1;
place = "{-30, 113}";
},
{
horizontal = 1;
place = "{883, 61}";
},
{
horizontal = 1;
place = "{1424, -20}";
target = down;
type = TopGhost;
}
);
layerId = UUID0;
paths = (
{
closed = 1;
nodes = (
"757 -30 LINE",
"712 -30 LINE",
"712 102 LINE",
"629 17 OFFCURVE",
"551 -30 OFFCURVE",
"444 -30 CURVE SMOOTH",
"241 -30 OFFCURVE",
"67 161 OFFCURVE",
"67 420 CURVE SMOOTH",
"67 658 OFFCURVE",
"228 944 OFFCURVE",
"512 944 CURVE SMOOTH",
"593 944 OFFCURVE",
"659 920 OFFCURVE",
"712 867 CURVE",
"712 1037 LINE SMOOTH",
"712 1241 OFFCURVE",
"702 1256 OFFCURVE",
"681 1280 CURVE",
"658 1303 OFFCURVE",
"625 1295 OFFCURVE",
"573 1278 CURVE",
"558 1313 LINE",
"834 1424 LINE",
"880 1424 LINE",
"880 363 LINE SMOOTH",
"880 168 OFFCURVE",
"881 136 OFFCURVE",
"911 116 CURVE",
"934 96 OFFCURVE",
"968 100 OFFCURVE",
"1021 120 CURVE",
"1034 85 LINE"
);
},
{
closed = 1;
nodes = (
"712 647 LINE SMOOTH",
"712 747 OFFCURVE",
"632 880 OFFCURVE",
"500 883 CURVE",
"365 888 OFFCURVE",
"252 738 OFFCURVE",
"252 500 CURVE SMOOTH",
"252 203 OFFCURVE",
"405 86 OFFCURVE",
"535 83 CURVE",
"598 83 OFFCURVE",
"653 113 OFFCURVE",
"712 174 CURVE"
);
}
);
width = 1026;
}
);
unicode = 0064;
},
{
color = (31,255,0,1);
glyphname = e;
lastChange = "2018-01-18 17:35:03 +0000";
layers = (
{
anchors = (
{
name = L;
position = "{485, -100}";
},
{
name = U;
position = "{485, 1000}";
}
);
background = {
paths = (
{
closed = 1;
nodes = (
"852 335 LINE",
"842 268 LINE",
"780 137 LINE",
"684 34 LINE",
"554 -30 LINE",
"475 -30 LINE",
"394 -30 LINE",
"248 37 LINE",
"139 162 LINE",
"75 339 LINE",
"75 448 LINE",
"75 564 LINE",
"138 748 LINE",
"251 876 LINE",
"407 944 LINE",
"500 944 LINE",
"576 944 LINE",
"705 893 LINE",
"799 797 LINE",
"852 659 LINE",
"852 572 LINE",
"217 572 LINE",
"217 470 LINE",
"271 308 LINE",
"363 196 LINE",
"484 137 LINE",
"551 136 LINE",
"596 135 LINE",
"673 156 LINE",
"739 207 LINE",
"796 292 LINE",
"820 355 LINE"
);
},
{
closed = 1;
nodes = (
"643 628 LINE",
"643 704 LINE",
"599 799 LINE",
"537 853 LINE",
"469 873 LINE",
"444 873 LINE",
"404 873 LINE",
"327 841 LINE",
"265 779 LINE",
"223 687 LINE",
"217 628 LINE"
);
}
);
};
hints = (
{
place = "{75, 142}";
},
{
place = "{643, 209}";
},
{
horizontal = 1;
place = "{-30, 166}";
},
{
horizontal = 1;
place = "{573, 55}";
},
{
horizontal = 1;
place = "{874, 70}";
}
);
layerId = UUID0;
paths = (
{
closed = 1;
nodes = (
"852 335 LINE",
"828 156 OFFCURVE",
"684 -30 OFFCURVE",
"475 -30 CURVE SMOOTH",
"258 -30 OFFCURVE",
"75 156 OFFCURVE",
"75 448 CURVE SMOOTH",
"75 759 OFFCURVE",
"252 944 OFFCURVE",
"500 944 CURVE SMOOTH",
"703 944 OFFCURVE",
"852 804 OFFCURVE",
"852 573 CURVE",
"217 573 LINE",
"217 298 OFFCURVE",
"372 139 OFFCURVE",
"551 136 CURVE",
"670 133 OFFCURVE",
"758 186 OFFCURVE",
"820 355 CURVE"
);
},
{
closed = 1;
nodes = (
"643 628 LINE",
"643 829 OFFCURVE",
"510 874 OFFCURVE",
"444 874 CURVE SMOOTH",
"337 874 OFFCURVE",
"233 788 OFFCURVE",
"217 628 CURVE"
);
}
);
width = 911;
}
);
unicode = 0065;
},
{
color = (31,255,0,1);
glyphname = f;
lastChange = "2018-01-18 17:35:03 +0000";
layers = (
{
anchors = (
{
name = L;
position = "{338, -100}";
},
{
name = U;
position = "{570, 1375}";
}
);
hints = (
{
place = "{254, 168}";
},
{
horizontal = 1;
place = "{844, 73}";
},
{
horizontal = 1;
place = "{1168, 256}";
},
{
horizontal = 1;
place = "{1349, 75}";
},
{
horizontal = 1;
place = "{0, 21}";
target = up;
type = BottomGhost;
}
);
layerId = UUID0;
paths = (
{
closed = 1;
nodes = (
"891 1218 OFFCURVE",
"858 1168 OFFCURVE",
"811 1168 CURVE SMOOTH",
"705 1168 OFFCURVE",
"701 1347 OFFCURVE",
"560 1349 CURVE",
"433 1349 OFFCURVE",
"422 1241 OFFCURVE",
"422 982 CURVE SMOOTH",
"422 917 LINE",
"658 917 LINE",
"658 844 LINE",
"422 844 LINE",
"422 243 LINE SMOOTH",
"422 158 OFFCURVE",
"430 103 OFFCURVE",
"451 80 CURVE",
"473 52 OFFCURVE",
"506 38 OFFCURVE",
"550 38 CURVE SMOOTH",
"632 38 LINE",
"632 0 LINE",
"80 0 LINE",
"80 38 LINE",
"122 38 LINE SMOOTH",
"154 38 OFFCURVE",
"182 42 OFFCURVE",
"213 69 CURVE",
"244 98 OFFCURVE",
"254 126 OFFCURVE",
"254 243 CURVE SMOOTH",
"254 844 LINE",
"75 844 LINE",
"75 917 LINE",
"254 917 LINE",
"254 979 LINE SMOOTH",
"254 1392 OFFCURVE",
"575 1424 OFFCURVE",
"639 1424 CURVE SMOOTH",
"756 1424 OFFCURVE",
"891 1345 OFFCURVE",
"891 1251 CURVE SMOOTH"
);
}
);
width = 682;
}
);
unicode = 0066;
},
{
color = (31,255,0,1);
glyphname = g;
lastChange = "2018-01-18 17:35:03 +0000";
layers = (
{
anchors = (
{
name = L;
position = "{524, -500}";
},
{
name = U;
position = "{511, 1000}";
}
);
hints = (
{
place = "{61, 144}";
},
{
place = "{136, 174}";
},
{
place = "{682, 177}";
},
{
place = "{904, 72}";
},
{
horizontal = 1;
place = "{-444, 123}";
},
{
horizontal = 1;
place = "{-22, 154}";
},
{
horizontal = 1;
place = "{296, 49}";
},
{
horizontal = 1;
place = "{896, 47}";
}
);
layerId = UUID0;
paths = (
{
closed = 1;
nodes = (
"988 828 OFFCURVE",
"984 806 OFFCURVE",
"979 797 CURVE",
"972 790 OFFCURVE",
"961 789 OFFCURVE",
"946 789 CURVE",
"939 788 OFFCURVE",
"931 788 OFFCURVE",
"922 789 CURVE",
"805 789 LINE",
"840 741 OFFCURVE",
"859 681 OFFCURVE",
"859 605 CURVE",
"862 438 OFFCURVE",
"728 296 OFFCURVE",
"499 296 CURVE SMOOTH",
"454 296 OFFCURVE",
"406 301 OFFCURVE",
"359 316 CURVE",
"305 276 OFFCURVE",
"258 205 OFFCURVE",
"299 167 CURVE",
"325 141 OFFCURVE",
"359 144 OFFCURVE",
"657 132 CURVE",
"728 132 OFFCURVE",
"976 127 OFFCURVE",
"976 -85 CURVE SMOOTH",
"976 -269 OFFCURVE",
"756 -444 OFFCURVE",
"463 -444 CURVE SMOOTH",
"262 -444 OFFCURVE",
"61 -348 OFFCURVE",
"61 -252 CURVE SMOOTH",
"61 -199 OFFCURVE",
"101 -135 OFFCURVE",
"244 8 CURVE",
"183 47 OFFCURVE",
"149 71 OFFCURVE",
"149 118 CURVE SMOOTH",
"149 165 OFFCURVE",
"172 218 OFFCURVE",
"310 335 CURVE",
"193 385 OFFCURVE",
"136 504 OFFCURVE",
"136 613 CURVE SMOOTH",
"136 785 OFFCURVE",
"272 943 OFFCURVE",
"500 943 CURVE SMOOTH",
"658 943 OFFCURVE",
"707 874 OFFCURVE",
"834 874 CURVE SMOOTH",
"896 874 OFFCURVE",
"920 879 OFFCURVE",
"948 879 CURVE SMOOTH",
"956 879 OFFCURVE",
"965 878 OFFCURVE",
"974 875 CURVE",
"983 874 OFFCURVE",
"988 860 OFFCURVE",
"988 835 CURVE SMOOTH"
);
},
{
closed = 1;
nodes = (
"682 767 OFFCURVE",
"608 896 OFFCURVE",
"483 896 CURVE SMOOTH",
"387 896 OFFCURVE",
"310 824 OFFCURVE",
"310 657 CURVE SMOOTH",
"310 475 OFFCURVE",
"383 345 OFFCURVE",
"511 345 CURVE SMOOTH",
"607 345 OFFCURVE",
"682 415 OFFCURVE",
"682 580 CURVE SMOOTH"
);
},
{
closed = 1;
nodes = (
"904 -57 OFFCURVE",
"858 -33 OFFCURVE",
"647 -22 CURVE SMOOTH",
"498 -15 OFFCURVE",
"380 -12 OFFCURVE",
"299 0 CURVE",
"242 -68 OFFCURVE",
"205 -114 OFFCURVE",
"205 -175 CURVE SMOOTH",
"205 -259 OFFCURVE",
"346 -321 OFFCURVE",
"551 -321 CURVE SMOOTH",
"791 -321 OFFCURVE",
"904 -218 OFFCURVE",
"904 -122 CURVE SMOOTH"
);
}
);
width = 1026;
}
);
unicode = 0067;
},
{
color = (31,255,0,1);
glyphname = h;
lastChange = "2018-01-18 17:35:03 +0000";
layers = (
{
anchors = (
{
name = L;
position = "{513, -100}";
},
{
name = U;
position = "{513, 1435}";
}
);
hints = (
{
place = "{167, 168}";
},
{
place = "{710, 167}";
},
{
horizontal = 1;
place = "{822, 121}";
},
{
horizontal = 1;
place = "{0, 21}";
target = up;
type = BottomGhost;
},
{
horizontal = 1;
place = "{1424, -20}";
target = down;
type = TopGhost;
}
);
layerId = UUID0;
paths = (
{
closed = 1;
nodes = (
"562 0 LINE",
"562 38 LINE",
"678 38 OFFCURVE",
"710 64 OFFCURVE",
"710 189 CURVE SMOOTH",
"710 530 LINE SMOOTH",
"710 650 OFFCURVE",
"721 822 OFFCURVE",
"562 822 CURVE SMOOTH",
"500 822 OFFCURVE",
"435 805 OFFCURVE",
"335 690 CURVE",
"335 189 LINE SMOOTH",
"335 64 OFFCURVE",
"350 38 OFFCURVE",
"481 38 CURVE",
"481 0 LINE",
"28 0 LINE",
"28 38 LINE",
"150 38 OFFCURVE",
"167 76 OFFCURVE",
"167 189 CURVE SMOOTH",
"167 1156 LINE SMOOTH",
"167 1251 OFFCURVE",
"155 1294 OFFCURVE",
"100 1294 CURVE SMOOTH",
"83 1294 OFFCURVE",
"56 1290 OFFCURVE",
"28 1278 CURVE",
"11 1313 LINE",
"289 1424 LINE",
"335 1424 LINE",
"335 753 LINE",
"442 913 OFFCURVE",
"544 943 OFFCURVE",
"639 943 CURVE SMOOTH",
"871 943 OFFCURVE",
"877 709 OFFCURVE",
"877 530 CURVE SMOOTH",
"877 189 LINE SMOOTH",
"877 70 OFFCURVE",
"894 38 OFFCURVE",
"1015 38 CURVE",
"1015 0 LINE"
);
}
);
width = 1026;
}
);
unicode = 0068;
},
{
color = (31,255,0,1);
glyphname = i;
lastChange = "2018-01-18 17:35:03 +0000";
layers = (
{
anchors = (
{
name = L;
position = "{300, -100}";
},
{
name = U;
position = "{294, 1000}";
}
);
hints = (
{
place = "{199, 203}";
},
{
place = "{217, 167}";
},
{
horizontal = 1;
place = "{1126, 202}";
},
{
horizontal = 1;
place = "{0, 21}";
target = up;
type = BottomGhost;
},
{
horizontal = 1;
place = "{943, -20}";
target = down;
type = TopGhost;
}
);
layerId = UUID0;
paths = (
{
closed = 1;
nodes = (
"402 1172 OFFCURVE",
"360 1126 OFFCURVE",
"301 1126 CURVE SMOOTH",
"244 1126 OFFCURVE",
"199 1168 OFFCURVE",
"199 1228 CURVE SMOOTH",
"199 1288 OFFCURVE",
"246 1328 OFFCURVE",
"301 1328 CURVE SMOOTH",
"357 1328 OFFCURVE",
"402 1285 OFFCURVE",
"402 1228 CURVE SMOOTH"
);
},
{
closed = 1;
nodes = (
"77 0 LINE",
"77 38 LINE",
"193 38 OFFCURVE",
"217 64 OFFCURVE",
"217 189 CURVE SMOOTH",
"217 678 LINE SMOOTH",
"217 766 OFFCURVE",
"203 812 OFFCURVE",
"148 812 CURVE SMOOTH",
"131 812 OFFCURVE",
"108 806 OFFCURVE",
"77 797 CURVE",
"64 833 LINE",
"342 943 LINE",
"384 943 LINE",
"384 189 LINE SMOOTH",
"384 64 OFFCURVE",
"410 38 OFFCURVE",
"526 38 CURVE",
"526 0 LINE"
);
}
);
width = 570;
}
);
unicode = 0069;
},
{
color = (31,255,0,1);
glyphname = j;
lastChange = "2018-01-18 17:35:03 +0000";
layers = (
{
anchors = (
{
name = L;
position = "{121, -500}";
},
{
name = U;
position = "{300, 1000}";
}
);
background = {
paths = (
{
closed = 1;
nodes = (
"400 1228 LINE",
"400 1207 LINE",
"385 1170 LINE",
"357 1142 LINE",
"320 1125 LINE",
"297 1125 LINE",
"253 1125 LINE",
"195 1183 LINE",
"195 1228 LINE",
"195 1249 LINE",
"212 1286 LINE",
"240 1314 LINE",
"277 1330 LINE",
"297 1330 LINE",
"316 1330 LINE",
"353 1314 LINE",
"382 1286 LINE",
"400 1249 LINE"
);
},
{
closed = 1;
nodes = (
"384 19 LINE",
"384 -100 LINE",
"330 -274 LINE",
"233 -388 LINE",
"100 -444 LINE",
"22 -444 LINE",
"-26 -444 LINE",
"-94 -424 LINE",
"-136 -394 LINE",
"-157 -358 LINE",
"-158 -343 LINE",
"-158 -306 LINE",
"-109 -256 LINE",
"-75 -256 LINE",
"-40 -256 LINE",
"11 -287 LINE",
"43 -320 LINE",
"89 -363 LINE",
"124 -363 LINE",
"160 -363 LINE",
"198 -314 LINE",
"215 -236 LINE",
"217 -141 LINE",
"217 -94 LINE",
"217 558 LINE",
"217 623 LINE",
"214 709 LINE",
"207 764 LINE",
"196 792 LINE",
"188 798 LINE",
"168 813 LINE",
"118 811 LINE",
"75 796 LINE",
"64 832 LINE",
"341 942 LINE",
"384 942 LINE"
);
}
);
};
hints = (
{
place = "{195, 205}";
},
{
place = "{217, 167}";
},
{
horizontal = 1;
place = "{-444, 81}";
},
{
horizontal = 1;
place = "{943, -20}";
target = down;
type = TopGhost;
},
{
horizontal = 1;
place = "{1331, -20}";
target = down;
type = TopGhost;
}
);
layerId = UUID0;
paths = (
{
closed = 1;
nodes = (
"400 1174 OFFCURVE",
"358 1126 OFFCURVE",
"297 1126 CURVE SMOOTH",
"238 1126 OFFCURVE",
"195 1168 OFFCURVE",
"195 1228 CURVE SMOOTH",
"195 1285 OFFCURVE",
"244 1331 OFFCURVE",
"297 1331 CURVE SMOOTH",
"348 1331 OFFCURVE",
"400 1285 OFFCURVE",
"400 1228 CURVE SMOOTH"
);
},
{
closed = 1;
nodes = (
"384 20 LINE SMOOTH",
"384 -299 OFFCURVE",
"231 -444 OFFCURVE",
"22 -444 CURVE SMOOTH",
"-104 -444 OFFCURVE",
"-158 -384 OFFCURVE",
"-158 -343 CURVE SMOOTH",
"-158 -294 OFFCURVE",
"-120 -256 OFFCURVE",
"-75 -256 CURVE SMOOTH",
"-28 -256 OFFCURVE",
"0 -277 OFFCURVE",
"43 -320 CURVE",
"74 -349 OFFCURVE",
"101 -363 OFFCURVE",
"124 -363 CURVE SMOOTH",
"220 -363 OFFCURVE",
"217 -218 OFFCURVE",
"217 -94 CURVE SMOOTH",
"217 558 LINE SMOOTH",
"217 732 OFFCURVE",
"209 783 OFFCURVE",
"189 798 CURVE SMOOTH",
"161 818 OFFCURVE",
"132 817 OFFCURVE",
"75 797 CURVE",
"64 833 LINE",
"342 943 LINE",
"384 943 LINE"
);
}
);
width = 570;
}
);
unicode = 006A;
},
{
color = (31,255,0,1);
glyphname = k;
lastChange = "2018-01-18 17:35:03 +0000";
layers = (
{
anchors = (
{
name = L;
position = "{526, -100}";
},
{
name = U;
position = "{526, 1435}";
}
);
hints = (
{
place = "{166, 171}";
},
{
horizontal = 1;
place = "{0, 21}";
target = up;
type = BottomGhost;
},
{
horizontal = 1;
place = "{917, -20}";
target = down;
type = TopGhost;
},
{
horizontal = 1;
place = "{1424, -20}";
target = down;
type = TopGhost;
}
);
layerId = UUID0;
paths = (
{
closed = 1;
nodes = (
"591 0 LINE",
"591 38 LINE",
"630 38 OFFCURVE",
"648 42 OFFCURVE",
"653 61 CURVE",
"656 66 OFFCURVE",
"657 72 OFFCURVE",
"657 77 CURVE SMOOTH",
"657 96 OFFCURVE",
"647 113 OFFCURVE",
"618 152 CURVE",
"337 506 LINE",
"337 207 LINE SMOOTH",
"337 121 OFFCURVE",
"341 92 OFFCURVE",
"359 71 CURVE SMOOTH",
"383 44 OFFCURVE",
"398 38 OFFCURVE",
"483 38 CURVE",
"483 0 LINE",
"13 0 LINE",
"13 38 LINE",
"77 38 OFFCURVE",
"117 43 OFFCURVE",
"140 67 CURVE SMOOTH",
"159 87 OFFCURVE",
"166 128 OFFCURVE",
"166 201 CURVE SMOOTH",
"166 1035 LINE SMOOTH",
"166 1244 OFFCURVE",
"162 1261 OFFCURVE",
"138 1280 CURVE SMOOTH",
"123 1293 OFFCURVE",
"97 1305 OFFCURVE",
"34 1278 CURVE",
"13 1313 LINE",
"290 1424 LINE",
"337 1424 LINE",
"337 528 LINE",
"568 724 LINE SMOOTH",
"655 797 OFFCURVE",
"662 814 OFFCURVE",
"662 834 CURVE SMOOTH",
"662 861 OFFCURVE",
"643 881 OFFCURVE",
"591 885 CURVE",
"591 917 LINE",
"989 917 LINE",
"989 885 LINE",
"934 883 OFFCURVE",
"889 874 OFFCURVE",
"854 859 CURVE",
"818 846 OFFCURVE",
"779 818 OFFCURVE",
"734 777 CURVE SMOOTH",
"493 562 LINE",
"734 262 LINE SMOOTH",
"890 66 OFFCURVE",
"886 85 OFFCURVE",
"950 45 CURVE",
"963 38 OFFCURVE",
"993 38 OFFCURVE",
"1037 38 CURVE",
"1037 0 LINE"
);
}
);
width = 1026;
}
);
unicode = 006B;
},
{
color = (31,255,0,1);
glyphname = l;
lastChange = "2018-01-18 17:35:03 +0000";
layers = (
{
anchors = (
{
name = L;
position = "{292, -100}";
},
{
name = U;
position = "{292, 1475}";
}
);
hints = (
{
place = "{212, 166}";
},
{
horizontal = 1;
place = "{0, 21}";
target = up;
type = BottomGhost;
},
{
horizontal = 1;
place = "{1424, -20}";
target = down;
type = TopGhost;
}
);
layerId = UUID0;
paths = (
{
closed = 1;
nodes = (
"77 0 LINE",
"77 38 LINE",
"138 38 OFFCURVE",
"162 41 OFFCURVE",
"183 69 CURVE SMOOTH",
"198 89 OFFCURVE",
"212 122 OFFCURVE",
"212 207 CURVE SMOOTH",
"212 1038 LINE SMOOTH",
"212 1246 OFFCURVE",
"203 1263 OFFCURVE",
"183 1280 CURVE",
"171 1288 OFFCURVE",
"158 1293 OFFCURVE",
"143 1293 CURVE SMOOTH",
"126 1293 OFFCURVE",
"105 1289 OFFCURVE",
"77 1278 CURVE",
"59 1313 LINE",
"335 1424 LINE",
"378 1424 LINE",
"378 207 LINE SMOOTH",
"378 129 OFFCURVE",
"386 94 OFFCURVE",
"404 74 CURVE",
"424 49 OFFCURVE",
"447 38 OFFCURVE",
"527 38 CURVE",
"527 0 LINE"
);
}
);
width = 570;
}
);
unicode = 006C;
},
{
color = (31,255,0,1);
glyphname = m;
lastChange = "2018-01-18 17:35:03 +0000";
layers = (
{
anchors = (
{
name = L;
position = "{800, -100}";
},
{
name = U;
position = "{800, 1000}";
}
);
hints = (
{
place = "{167, 168}";
},
{
place = "{727, 167}";
},
{
place = "{1281, 168}";
},
{
horizontal = 1;
place = "{827, 116}";
},
{
horizontal = 1;
place = "{0, 21}";
target = up;
type = BottomGhost;
}
);
layerId = UUID0;
paths = (
{
closed = 1;
nodes = (
"1135 0 LINE",
"1135 38 LINE",
"1278 38 OFFCURVE",
"1281 84 OFFCURVE",
"1281 207 CURVE SMOOTH",
"1281 604 LINE SMOOTH",
"1281 768 OFFCURVE",
"1234 825 OFFCURVE",
"1130 825 CURVE SMOOTH",
"1073 825 OFFCURVE",
"989 798 OFFCURVE",
"894 700 CURVE",
"894 207 LINE SMOOTH",
"894 76 OFFCURVE",
"900 38 OFFCURVE",
"1041 38 CURVE",
"1041 0 LINE",
"576 0 LINE",
"576 38 LINE",
"733 38 OFFCURVE",
"727 91 OFFCURVE",
"727 207 CURVE SMOOTH",
"727 604 LINE SMOOTH",
"727 767 OFFCURVE",
"666 827 OFFCURVE",
"570 827 CURVE SMOOTH",
"475 827 OFFCURVE",
"391 759 OFFCURVE",
"335 700 CURVE",
"335 207 LINE SMOOTH",
"335 53 OFFCURVE",
"365 38 OFFCURVE",
"483 38 CURVE",
"483 0 LINE",
"30 0 LINE",
"30 38 LINE",
"146 38 OFFCURVE",
"167 64 OFFCURVE",
"167 207 CURVE SMOOTH",
"167 558 LINE SMOOTH",
"167 763 OFFCURVE",
"179 848 OFFCURVE",
"30 797 CURVE",
"13 833 LINE",
"292 943 LINE",
"335 943 LINE",
"335 750 LINE",
"483 909 OFFCURVE",
"563 943 OFFCURVE",
"653 943 CURVE SMOOTH",
"762 943 OFFCURVE",
"855 883 OFFCURVE",
"885 750 CURVE",
"1021 904 OFFCURVE",
"1105 943 OFFCURVE",
"1206 943 CURVE SMOOTH",
"1354 943 OFFCURVE",
"1449 851 OFFCURVE",
"1449 604 CURVE SMOOTH",
"1449 207 LINE SMOOTH",
"1449 67 OFFCURVE",
"1476 38 OFFCURVE",
"1588 38 CURVE",
"1588 0 LINE"
);
}
);
width = 1596;
}
);
unicode = 006D;
},
{
color = (31,255,0,1);
glyphname = n;
lastChange = "2018-01-18 17:35:03 +0000";
layers = (
{
anchors = (
{
name = L;
position = "{515, -100}";
},
{
name = U;
position = "{515, 1000}";
}
);
hints = (
{
place = "{164, 167}";
},
{
place = "{712, 168}";
},
{
horizontal = 1;
place = "{820, 123}";
},
{
horizontal = 1;
place = "{0, 21}";
target = up;
type = BottomGhost;
}
);
layerId = UUID0;
paths = (
{
closed = 1;
nodes = (
"562 0 LINE",
"562 38 LINE",
"699 38 OFFCURVE",
"712 67 OFFCURVE",
"712 207 CURVE SMOOTH",
"712 581 LINE SMOOTH",
"712 749 OFFCURVE",
"676 820 OFFCURVE",
"568 820 CURVE SMOOTH",
"492 820 OFFCURVE",
"411 779 OFFCURVE",
"331 690 CURVE",
"331 207 LINE SMOOTH",
"331 64 OFFCURVE",
"349 38 OFFCURVE",
"481 38 CURVE",
"481 0 LINE",
"26 0 LINE",
"26 38 LINE",
"141 38 OFFCURVE",
"164 67 OFFCURVE",
"164 207 CURVE SMOOTH",
"164 549 LINE SMOOTH",
"164 765 OFFCURVE",
"155 783 OFFCURVE",
"135 798 CURVE SMOOTH",
"112 817 OFFCURVE",
"76 817 OFFCURVE",
"26 797 CURVE",
"10 833 LINE",
"290 943 LINE",
"331 943 LINE",
"331 751 LINE",
"440 879 OFFCURVE",
"542 943 OFFCURVE",
"639 943 CURVE SMOOTH",
"817 943 OFFCURVE",
"880 806 OFFCURVE",
"880 600 CURVE SMOOTH",
"880 207 LINE SMOOTH",
"880 71 OFFCURVE",
"899 38 OFFCURVE",
"1021 38 CURVE",
"1021 0 LINE"
);
}
);
width = 1026;
}
);
unicode = 006E;
},
{
color = (31,255,0,1);
glyphname = o;
lastChange = "2018-01-18 17:35:03 +0000";
layers = (
{
anchors = (
{
name = L;
position = "{512, -100}";
},
{
name = U;
position = "{512, 1000}";
}
);
hints = (
{
place = "{69, 185}";
},
{
place = "{767, 187}";
},
{
horizontal = 1;
place = "{-30, 73}";
},
{
horizontal = 1;
place = "{880, 63}";
}
);
layerId = UUID0;
paths = (
{
closed = 1;
nodes = (
"954 239 OFFCURVE",
"805 -30 OFFCURVE",
"503 -30 CURVE SMOOTH",
"245 -30 OFFCURVE",
"69 195 OFFCURVE",
"69 450 CURVE SMOOTH",
"69 697 OFFCURVE",
"237 943 OFFCURVE",
"512 943 CURVE SMOOTH",
"777 943 OFFCURVE",
"954 738 OFFCURVE",
"954 475 CURVE SMOOTH"
);
},
{
closed = 1;
nodes = (
"767 669 OFFCURVE",
"657 880 OFFCURVE",
"481 880 CURVE SMOOTH",
"377 880 OFFCURVE",
"254 798 OFFCURVE",
"254 532 CURVE SMOOTH",
"254 270 OFFCURVE",
"369 43 OFFCURVE",
"544 43 CURVE SMOOTH",
"678 43 OFFCURVE",
"767 136 OFFCURVE",
"767 398 CURVE SMOOTH"
);
}
);
width = 1026;
}
);
unicode = 006F;
},
{
color = (31,255,0,1);
glyphname = p;
lastChange = "2018-01-18 17:35:03 +0000";
layers = (
{
anchors = (
{
name = L;
position = "{473, -500}";
},
{
name = U;
position = "{473, 1000}";
}
);
hints = (
{
place = "{148, 171}";
},
{
place = "{797, 160}";
},
{
horizontal = 1;
place = "{-30, 62}";
},
{
horizontal = 1;
place = "{820, 123}";
},
{
horizontal = 1;
place = "{941, -20}";
target = down;
type = TopGhost;
},
{
horizontal = 1;
place = "{-441, 21}";
target = up;
type = BottomGhost;
}
);
layerId = UUID0;
paths = (
{
closed = 1;
nodes = (
"957 205 OFFCURVE",
"785 -30 OFFCURVE",
"536 -30 CURVE SMOOTH",
"480 -30 OFFCURVE",
"402 -25 OFFCURVE",
"319 53 CURVE",
"319 -224 LINE SMOOTH",
"319 -369 OFFCURVE",
"326 -397 OFFCURVE",
"474 -402 CURVE",
"474 -440 LINE",
"-12 -440 LINE",
"-12 -402 LINE",
"137 -397 OFFCURVE",
"148 -373 OFFCURVE",
"148 -220 CURVE SMOOTH",
"148 647 LINE SMOOTH",
"148 750 OFFCURVE",
"147 771 OFFCURVE",
"115 797 CURVE",
"94 810 OFFCURVE",
"63 817 OFFCURVE",
"6 792 CURVE",
"-6 827 LINE",
"281 941 LINE",
"319 941 LINE",
"319 727 LINE",
"409 886 OFFCURVE",
"505 943 OFFCURVE",
"613 943 CURVE SMOOTH",
"815 943 OFFCURVE",
"957 747 OFFCURVE",
"957 493 CURVE SMOOTH"
);
},
{
closed = 1;
nodes = (
"797 695 OFFCURVE",
"675 820 OFFCURVE",
"532 820 CURVE SMOOTH",
"452 820 OFFCURVE",
"401 756 OFFCURVE",
"319 666 CURVE",
"319 323 LINE SMOOTH",
"319 252 OFFCURVE",
"322 203 OFFCURVE",
"327 177 CURVE",
"348 107 OFFCURVE",
"414 32 OFFCURVE",
"532 32 CURVE SMOOTH",
"690 32 OFFCURVE",
"797 171 OFFCURVE",
"797 398 CURVE SMOOTH"
);
}
);
width = 1026;
}
);
unicode = 0070;
},
{
color = (31,255,0,1);
glyphname = q;
lastChange = "2018-01-18 17:35:03 +0000";
layers = (
{
anchors = (
{
name = L;
position = "{549, -500}";
},
{
name = U;
position = "{549, 1000}";
}
);
hints = (
{
place = "{67, 170}";
},
{
place = "{712, 168}";
},
{
horizontal = 1;
place = "{-30, 143}";
},
{
horizontal = 1;
place = "{874, 69}";
},
{
horizontal = 1;
place = "{-441, 21}";
target = up;
type = BottomGhost;
}
);
layerId = UUID0;
paths = (
{
closed = 1;
nodes = (
"562 -440 LINE",
"562 -402 LINE",
"679 -402 OFFCURVE",
"712 -388 OFFCURVE",
"712 -237 CURVE SMOOTH",
"712 160 LINE",
"592 16 OFFCURVE",
"513 -30 OFFCURVE",
"411 -30 CURVE SMOOTH",
"242 -30 OFFCURVE",
"67 134 OFFCURVE",
"67 419 CURVE SMOOTH",
"67 725 OFFCURVE",
"272 943 OFFCURVE",
"540 943 CURVE SMOOTH",
"616 943 OFFCURVE",
"684 927 OFFCURVE",
"729 880 CURVE",
"769 900 OFFCURVE",
"811 919 OFFCURVE",
"844 943 CURVE",
"880 943 LINE",
"880 -237 LINE SMOOTH",
"880 -377 OFFCURVE",
"906 -402 OFFCURVE",
"1029 -402 CURVE",
"1029 -440 LINE"
);
},
{
closed = 1;
nodes = (
"712 653 LINE SMOOTH",
"712 784 OFFCURVE",
"645 874 OFFCURVE",
"508 874 CURVE SMOOTH",
"361 874 OFFCURVE",
"237 749 OFFCURVE",
"237 491 CURVE SMOOTH",
"237 238 OFFCURVE",
"367 113 OFFCURVE",
"515 113 CURVE SMOOTH",
"600 113 OFFCURVE",
"650 150 OFFCURVE",
"712 220 CURVE"
);
}
);
width = 1026;
}
);
unicode = 0071;
},
{
color = (31,255,0,1);
glyphname = r;
lastChange = "2018-01-18 17:35:03 +0000";
layers = (
{
anchors = (
{
name = L;
position = "{353, -100}";
},
{
name = U;
position = "{353, 1000}";
}
);
hints = (
{
place = "{164, 167}";
},
{
horizontal = 1;
place = "{739, 204}";
},
{
horizontal = 1;
place = "{0, 21}";
target = up;
type = BottomGhost;
}
);
layerId = UUID0;
paths = (
{
closed = 1;
nodes = (
"698 785 OFFCURVE",
"658 739 OFFCURVE",
"607 739 CURVE SMOOTH",
"540 739 OFFCURVE",
"509 811 OFFCURVE",
"466 811 CURVE SMOOTH",
"431 811 OFFCURVE",
"382 751 OFFCURVE",
"331 654 CURVE",
"331 213 LINE SMOOTH",
"331 96 OFFCURVE",
"362 38 OFFCURVE",
"493 38 CURVE",
"493 0 LINE",
"17 0 LINE",
"17 38 LINE",
"131 38 OFFCURVE",
"164 50 OFFCURVE",
"164 207 CURVE SMOOTH",
"164 562 LINE SMOOTH",
"164 756 OFFCURVE",
"157 774 OFFCURVE",
"135 798 CURVE",
"104 815 OFFCURVE",
"73 820 OFFCURVE",
"17 797 CURVE",
"8 833 LINE",
"292 943 LINE",
"331 943 LINE",
"331 737 LINE",
"407 874 OFFCURVE",
"486 943 OFFCURVE",
"568 943 CURVE SMOOTH",
"642 943 OFFCURVE",
"698 897 OFFCURVE",
"698 833 CURVE SMOOTH"
);
}
);
width = 703;
}
);
unicode = 0072;
},
{
color = (31,255,0,1);
glyphname = s;
lastChange = "2018-01-18 17:35:03 +0000";
layers = (
{
anchors = (
{
name = L;
position = "{413, -100}";
},
{
name = U;
position = "{413, 1000}";
}
);
hints = (
{
place = "{105, 112}";
},
{
place = "{577, 150}";
},
{
horizontal = 1;
place = "{-30, 62}";
},
{
horizontal = 1;
place = "{885, 58}";
},
{
horizontal = 1;
place = "{-13, 21}";
target = up;
type = BottomGhost;
}
);
layerId = UUID0;
paths = (
{
closed = 1;
nodes = (
"727 91 OFFCURVE",
"582 -30 OFFCURVE",
"420 -30 CURVE SMOOTH",
"321 -30 OFFCURVE",
"234 24 OFFCURVE",
"174 32 CURVE",
"158 32 OFFCURVE",
"146 4 OFFCURVE",
"138 -13 CURVE",
"105 -13 LINE",
"105 314 LINE",
"138 314 LINE",
"172 128 OFFCURVE",
"290 32 OFFCURVE",
"420 32 CURVE SMOOTH",
"518 32 OFFCURVE",
"577 95 OFFCURVE",
"577 167 CURVE",
"580 258 OFFCURVE",
"544 311 OFFCURVE",
"345 412 CURVE",
"152 514 OFFCURVE",
"100 584 OFFCURVE",
"100 698 CURVE SMOOTH",
"100 834 OFFCURVE",
"207 943 OFFCURVE",
"398 943 CURVE SMOOTH",
"480 943 OFFCURVE",
"566 907 OFFCURVE",
"598 907 CURVE SMOOTH",
"617 907 OFFCURVE",
"627 911 OFFCURVE",
"643 943 CURVE",
"676 943 LINE",
"676 630 LINE",
"643 630 LINE",
"598 828 OFFCURVE",
"507 885 OFFCURVE",
"396 885 CURVE SMOOTH",
"273 885 OFFCURVE",
"218 837 OFFCURVE",
"217 766 CURVE",
"214 690 OFFCURVE",
"241 636 OFFCURVE",
"367 574 CURVE",
"515 504 LINE",
"655 441 OFFCURVE",
"727 348 OFFCURVE",
"727 231 CURVE SMOOTH"
);
}
);
width = 798;
}
);
unicode = 0073;
},
{
color = (31,255,0,1);
glyphname = t;
lastChange = "2018-01-18 17:35:03 +0000";
layers = (
{
anchors = (
{
name = L;
position = "{293, -100}";
},
{
name = U;
position = "{285, 1298}";
}
);
background = {
paths = (
{
closed = 1;
nodes = (
"572 167 LINE",
"556 116 LINE",
"502 42 LINE",
"440 -6 LINE",
"373 -30 LINE",
"343 -30 LINE",
"310 -30 LINE",
"246 -12 LINE",
"194 41 LINE",
"162 136 LINE",
"162 213 LINE",
"162 848 LINE",
"15 848 LINE",
"15 879 LINE",
"56 894 LINE",
"147 969 LINE",
"186 1015 LINE",
"200 1032 LINE",
"222 1062 LINE",
"248 1105 LINE",
"278 1169 LINE",
"299 1218 LINE",
"329 1218 LINE",
"329 916 LINE",
"544 916 LINE",
"544 848 LINE",
"329 848 LINE",
"329 237 LINE",
"329 192 LINE",
"343 134 LINE",
"368 100 LINE",
"401 86 LINE",
"420 85 LINE",
"457 83 LINE",
"514 128 LINE",
"532 167 LINE"
);
}
);
};
hints = (
{
place = "{162, 167}";
},
{
horizontal = 1;
place = "{849, 68}";
},
{
horizontal = 1;
place = "{1219, -20}";
target = down;
type = TopGhost;
},
{
horizontal = 1;
place = "{-30, 21}";
target = up;
type = BottomGhost;
}
);
layerId = UUID0;
paths = (
{
closed = 1;
nodes = (
"573 167 LINE",
"531 33 OFFCURVE",
"422 -30 OFFCURVE",
"343 -30 CURVE SMOOTH",
"256 -30 OFFCURVE",
"162 8 OFFCURVE",
"162 213 CURVE SMOOTH",
"162 849 LINE",
"15 849 LINE",
"15 880 LINE",
"70 900 OFFCURVE",
"134 954 OFFCURVE",
"186 1015 CURVE",
"222 1062 OFFCURVE",
"242 1086 OFFCURVE",
"299 1219 CURVE",
"329 1219 LINE",
"329 917 LINE",
"544 917 LINE",
"544 849 LINE",
"329 849 LINE",
"329 237 LINE SMOOTH",
"329 118 OFFCURVE",
"369 88 OFFCURVE",
"420 85 CURVE SMOOTH",
"471 82 OFFCURVE",
"508 115 OFFCURVE",
"532 167 CURVE"
);
}
);
width = 570;
}
);
unicode = 0074;
},
{
color = (31,255,0,1);
glyphname = u;
lastChange = "2018-01-18 17:35:03 +0000";
layers = (
{
anchors = (
{
name = L;
position = "{513, -100}";
},
{
name = U;
position = "{513, 1000}";
}
);
hints = (
{
place = "{156, 167}";
},
{
place = "{704, 168}";
},
{
horizontal = 1;
place = "{-30, 124}";
},
{
horizontal = 1;
place = "{917, -20}";
target = down;
type = TopGhost;
}
);
layerId = UUID0;
paths = (
{
closed = 1;
nodes = (
"750 -30 LINE",
"704 -30 LINE",
"704 166 LINE",
"550 4 OFFCURVE",
"483 -30 OFFCURVE",
"393 -30 CURVE SMOOTH",
"179 -30 OFFCURVE",
"156 181 OFFCURVE",
"156 327 CURVE SMOOTH",
"156 737 LINE SMOOTH",
"156 856 OFFCURVE",
"116 880 OFFCURVE",
"0 880 CURVE",
"0 917 LINE",
"323 917 LINE",
"323 304 LINE SMOOTH",
"323 198 OFFCURVE",
"344 94 OFFCURVE",
"475 94 CURVE SMOOTH",
"529 94 OFFCURVE",
"602 122 OFFCURVE",
"704 224 CURVE",
"704 745 LINE SMOOTH",
"704 856 OFFCURVE",
"661 877 OFFCURVE",
"557 880 CURVE",
"557 917 LINE",
"872 917 LINE",
"872 243 LINE SMOOTH",
"872 134 OFFCURVE",
"890 105 OFFCURVE",
"934 105 CURVE SMOOTH",
"953 105 OFFCURVE",
"984 109 OFFCURVE",
"1013 120 CURVE",
"1027 85 LINE"
);
}
);
width = 1026;
}
);
unicode = 0075;
},
{
color = (31,255,0,1);
glyphname = v;
lastChange = "2018-01-18 17:35:03 +0000";
layers = (
{
anchors = (
{
name = L;
position = "{512, -100}";
},
{
name = U;
position = "{512, 1000}";
}
);
background = {
paths = (
{
closed = 1;
nodes = (
"1008 879 LINE",
"981 877 LINE",
"946 868 LINE",
"933 859 LINE",
"916 842 LINE",
"886 794 LINE",
"871 758 LINE",
"546 -30 LINE",
"504 -30 LINE",
"175 747 LINE",
"165 772 LINE",
"145 808 LINE",
"123 834 LINE",
"99 854 LINE",
"85 863 LINE",
"76 868 LINE",
"42 874 LINE",
"15 879 LINE",
"15 916 LINE",
"449 916 LINE",
"449 879 LINE",
"420 879 LINE",
"401 879 LINE",
"369 872 LINE",
"361 861 LINE",
"341 840 LINE",
"338 776 LINE",
"361 726 LINE",
"574 220 LINE",
"788 747 LINE",
"806 789 LINE",
"816 839 LINE",
"805 856 LINE",
"802 860 LINE",
"791 868 LINE",
"770 875 LINE",
"735 879 LINE",
"707 879 LINE",
"707 916 LINE",
"1008 916 LINE"
);
}
);
};
hints = (
{
horizontal = 1;
place = "{917, -20}";
target = down;
type = TopGhost;
},
{
horizontal = 1;
place = "{-30, 21}";
target = up;
type = BottomGhost;
}
);
layerId = UUID0;
paths = (
{
closed = 1;
nodes = (
"1009 880 LINE",
"972 876 OFFCURVE",
"950 871 OFFCURVE",
"934 859 CURVE",
"911 838 OFFCURVE",
"892 807 OFFCURVE",
"872 758 CURVE SMOOTH",
"546 -30 LINE",
"504 -30 LINE",
"175 747 LINE",
"151 815 OFFCURVE",
"120 839 OFFCURVE",
"85 864 CURVE",
"73 869 OFFCURVE",
"52 872 OFFCURVE",
"15 880 CURVE",
"15 917 LINE",
"450 917 LINE",
"450 880 LINE",
"420 880 LINE SMOOTH",
"395 880 OFFCURVE",
"372 877 OFFCURVE",
"361 861 CURVE",
"336 834 OFFCURVE",
"330 792 OFFCURVE",
"361 727 CURVE",
"574 220 LINE",
"789 747 LINE SMOOTH",
"812 803 OFFCURVE",
"820 833 OFFCURVE",
"805 857 CURVE SMOOTH",
"799 866 OFFCURVE",
"779 880 OFFCURVE",
"707 880 CURVE",
"707 917 LINE",
"1009 917 LINE"
);
}
);
width = 1026;
}
);
unicode = 0076;
},
{
color = (31,255,0,1);
glyphname = w;
lastChange = "2018-01-18 17:35:03 +0000";
layers = (
{
anchors = (
{
name = L;
position = "{737, -100}";
},
{
name = U;
position = "{737, 1000}";
}
);
background = {
paths = (
{
closed = 1;
nodes = (
"1463 879 LINE",
"1374 867 LINE",
"1332 763 LINE",
"1027 -30 LINE",
"985 -30 LINE",
"756 558 LINE",
"491 -30 LINE",
"453 -30 LINE",
"158 741 LINE",
"143 778 LINE",
"115 826 LINE",
"100 839 LINE",
"89 853 LINE",
"43 873 LINE",
"12 879 LINE",
"12 916 LINE",
"398 916 LINE",
"398 879 LINE",
"345 876 LINE",
"327 861 LINE",
"310 844 LINE",
"309 788 LINE",
"327 741 LINE",
"525 215 LINE",
"722 645 LINE",
"670 781 LINE",
"646 840 LINE",
"607 863 LINE",
"584 876 LINE",
"525 879 LINE",
"525 916 LINE",
"961 916 LINE",
"961 879 LINE",
"924 877 LINE",
"874 867 LINE",
"859 856 LINE",
"853 850 LINE",
"843 829 LINE",
"838 803 LINE",
"841 775 LINE",
"848 763 LINE",
"1057 237 LINE",
"1247 741 LINE",
"1269 797 LINE",
"1269 828 LINE",
"1269 834 LINE",
"1263 851 LINE",
"1243 868 LINE",
"1205 879 LINE",
"1173 879 LINE",
"1173 916 LINE",
"1463 916 LINE"
);
}
);
};
hints = (
{
horizontal = 1;
place = "{917, -20}";
target = down;
type = TopGhost;
},
{
horizontal = 1;
place = "{-30, 21}";
target = up;
type = BottomGhost;
}
);
layerId = UUID0;
paths = (
{
closed = 1;
nodes = (
"1464 880 LINE",
"1404 871 OFFCURVE",
"1360 833 OFFCURVE",
"1333 764 CURVE SMOOTH",
"1027 -30 LINE",
"986 -30 LINE",
"757 558 LINE",
"491 -30 LINE",
"453 -30 LINE",
"158 742 LINE",
"138 791 OFFCURVE",
"120 823 OFFCURVE",
"100 839 CURVE",
"85 858 OFFCURVE",
"54 872 OFFCURVE",
"11 880 CURVE",
"11 917 LINE",
"398 917 LINE",
"398 880 LINE",
"363 877 OFFCURVE",
"339 871 OFFCURVE",
"327 861 CURVE",
"304 838 OFFCURVE",
"303 805 OFFCURVE",
"327 742 CURVE SMOOTH",
"526 215 LINE",
"722 645 LINE",
"670 781 LINE SMOOTH",
"654 821 OFFCURVE",
"633 849 OFFCURVE",
"607 864 CURVE SMOOTH",
"592 872 OFFCURVE",
"565 877 OFFCURVE",
"526 880 CURVE",
"526 917 LINE",
"961 917 LINE",
"961 880 LINE",
"913 876 OFFCURVE",
"879 870 OFFCURVE",
"859 857 CURVE",
"844 839 OFFCURVE",
"828 796 OFFCURVE",
"849 764 CURVE",
"1058 237 LINE",
"1248 742 LINE",
"1263 779 OFFCURVE",
"1270 807 OFFCURVE",
"1270 828 CURVE SMOOTH",
"1270 844 OFFCURVE",
"1258 880 OFFCURVE",
"1174 880 CURVE",
"1174 917 LINE",
"1464 917 LINE"
);
}
);
width = 1481;
}
);
unicode = 0077;
},
{
color = (31,255,0,1);
glyphname = x;
lastChange = "2018-01-18 17:35:03 +0000";
layers = (
{
anchors = (
{
name = L;
position = "{514, -100}";
},
{
name = U;
position = "{514, 1000}";
}
);
hints = (
{
horizontal = 1;
place = "{0, 21}";
target = up;
type = BottomGhost;
},
{
horizontal = 1;
place = "{917, -20}";
target = down;
type = TopGhost;
}
);
layerId = UUID0;
paths = (
{
closed = 1;
nodes = (
"568 0 LINE",
"568 38 LINE",
"670 38 OFFCURVE",
"664 98 OFFCURVE",
"650 126 CURVE",
"459 406 LINE",
"260 140 LINE",
"235 105 OFFCURVE",
"232 41 OFFCURVE",
"335 38 CURVE",
"335 0 LINE",
"36 0 LINE",
"36 38 LINE",
"88 41 OFFCURVE",
"123 74 OFFCURVE",
"224 209 CURVE",
"419 466 LINE",
"244 718 LINE",
"147 862 OFFCURVE",
"113 877 OFFCURVE",
"28 880 CURVE",
"28 917 LINE",
"459 917 LINE",
"459 880 LINE",
"382 883 OFFCURVE",
"372 832 OFFCURVE",
"389 806 CURVE SMOOTH",
"520 601 LINE",
"654 798 LINE SMOOTH",
"673 827 OFFCURVE",
"676 880 OFFCURVE",
"593 880 CURVE",
"593 917 LINE",
"904 917 LINE",
"904 880 LINE",
"819 877 OFFCURVE",
"779 834 OFFCURVE",
"682 705 CURVE",
"558 536 LINE",
"787 209 LINE",
"839 131 OFFCURVE",
"854 117 OFFCURVE",
"907 64 CURVE",
"918 51 OFFCURVE",
"962 39 OFFCURVE",
"1002 38 CURVE",
"1002 0 LINE"
);
}
);
width = 1026;
}
);
unicode = 0078;
},
{
color = (31,255,0,1);
glyphname = y;
lastChange = "2018-01-18 17:35:03 +0000";
layers = (
{
anchors = (
{
name = L;
position = "{513, -500}";
},
{
name = U;
position = "{550, 1000}";
}
);
background = {
paths = (
{
closed = 1;
nodes = (
"1013 879 LINE",
"991 878 LINE",
"957 868 LINE",
"926 839 LINE",
"896 786 LINE",
"877 741 LINE",
"504 -173 LINE",
"478 -238 LINE",
"407 -339 LINE",
"326 -408 LINE",
"238 -444 LINE",
"195 -444 LINE",
"165 -444 LINE",
"115 -426 LINE",
"79 -395 LINE",
"59 -353 LINE",
"59 -329 LINE",
"59 -289 LINE",
"111 -239 LINE",
"162 -239 LINE",
"178 -239 LINE",
"221 -250 LINE",
"263 -263 LINE",
"295 -274 LINE",
"301 -274 LINE",
"317 -274 LINE",
"351 -259 LINE",
"386 -224 LINE",
"422 -166 LINE",
"440 -122 LINE",
"504 38 LINE",
"175 728 LINE",
"166 746 LINE",
"141 795 LINE",
"103 841 LINE",
"49 876 LINE",
"12 879 LINE",
"12 916 LINE",
"440 916 LINE",
"440 879 LINE",
"418 879 LINE",
"381 879 LINE",
"327 845 LINE",
"327 812 LINE",
"327 791 LINE",
"344 739 LINE",
"361 704 LINE",
"583 243 LINE",
"788 749 LINE",
"803 777 LINE",
"812 840 LINE",
"800 857 LINE",
"797 861 LINE",
"789 869 LINE",
"771 875 LINE",
"740 879 LINE",
"715 879 LINE",
"715 916 LINE",
"1013 916 LINE"
);
}
);
};
hints = (
{
horizontal = 1;
place = "{-444, 205}";
},
{
horizontal = 1;
place = "{917, -20}";
target = down;
type = TopGhost;
}
);
layerId = UUID0;
paths = (
{
closed = 1;
nodes = (
"1013 880 LINE",
"955 877 OFFCURVE",
"929 859 OFFCURVE",
"877 742 CURVE",
"504 -174 LINE SMOOTH",
"434 -346 OFFCURVE",
"311 -444 OFFCURVE",
"195 -444 CURVE SMOOTH",
"116 -444 OFFCURVE",
"59 -395 OFFCURVE",
"59 -329 CURVE SMOOTH",
"59 -276 OFFCURVE",
"95 -239 OFFCURVE",
"162 -239 CURVE SMOOTH",
"204 -239 OFFCURVE",
"287 -274 OFFCURVE",
"301 -274 CURVE SMOOTH",
"343 -274 OFFCURVE",
"392 -238 OFFCURVE",
"440 -122 CURVE",
"504 38 LINE",
"175 728 LINE",
"150 778 OFFCURVE",
"113 869 OFFCURVE",
"11 880 CURVE",
"11 917 LINE",
"440 917 LINE",
"440 880 LINE",
"419 880 LINE SMOOTH",
"368 880 OFFCURVE",
"327 856 OFFCURVE",
"327 812 CURVE SMOOTH",
"327 784 OFFCURVE",
"338 751 OFFCURVE",
"361 704 CURVE SMOOTH",
"583 243 LINE",
"789 750 LINE",
"809 786 OFFCURVE",
"816 835 OFFCURVE",
"800 858 CURVE",
"792 866 OFFCURVE",
"785 880 OFFCURVE",
"715 880 CURVE",
"715 917 LINE",
"1013 917 LINE"
);
}
);
width = 1026;
}
);
unicode = 0079;
},
{
color = (31,255,0,1);
glyphname = z;
lastChange = "2018-01-18 17:35:03 +0000";
layers = (
{
anchors = (
{
name = L;
position = "{459, -100}";
},
{
name = U;
position = "{459, 1000}";
}
);
hints = (
{
horizontal = 1;
place = "{0, 67}";
},
{
horizontal = 1;
place = "{849, 68}";
}
);
layerId = UUID0;
paths = (
{
closed = 1;
nodes = (
"262 67 LINE",
"598 67 LINE SMOOTH",
"667 67 OFFCURVE",
"713 73 OFFCURVE",
"737 85 CURVE SMOOTH",
"782 106 OFFCURVE",
"808 111 OFFCURVE",
"827 281 CURVE",
"861 281 LINE",
"850 0 LINE",
"41 0 LINE",
"41 38 LINE",
"651 849 LINE",
"348 849 LINE SMOOTH",
"285 849 OFFCURVE",
"244 841 OFFCURVE",
"220 834 CURVE",
"181 815 OFFCURVE",
"152 771 OFFCURVE",
"141 662 CURVE",
"102 662 LINE",
"109 917 LINE",
"877 917 LINE",
"877 880 LINE"
);
}
);
width = 911;
}
);
unicode = 007A;
},
{
color = (31,255,0,1);
glyphname = braceleft;
lastChange = "2018-01-18 17:35:03 +0000";
layers = (
{
layerId = UUID0;
paths = (
{
closed = 1;
nodes = (
"775 -406 LINE",
"643 -373 OFFCURVE",
"551 -289 OFFCURVE",
"551 -141 CURVE SMOOTH",
"551 -47 OFFCURVE",
"596 38 OFFCURVE",
"596 132 CURVE SMOOTH",
"596 312 OFFCURVE",
"481 435 OFFCURVE",
"321 491 CURVE",
"480 549 OFFCURVE",
"596 668 OFFCURVE",
"596 846 CURVE SMOOTH",
"596 943 OFFCURVE",
"551 1029 OFFCURVE",
"551 1124 CURVE SMOOTH",
"551 1270 OFFCURVE",
"643 1355 OFFCURVE",
"775 1389 CURVE",
"775 1424 LINE",
"589 1404 OFFCURVE",
"402 1245 OFFCURVE",
"402 1053 CURVE SMOOTH",
"402 941 OFFCURVE",
"448 825 OFFCURVE",
"448 731 CURVE SMOOTH",
"448 605 OFFCURVE",
"314 528 OFFCURVE",
"218 517 CURVE",
"218 466 LINE",
"316 453 OFFCURVE",
"448 374 OFFCURVE",
"448 246 CURVE SMOOTH",
"448 158 OFFCURVE",
"402 49 OFFCURVE",
"402 -57 CURVE SMOOTH",
"402 -258 OFFCURVE",
"583 -422 OFFCURVE",
"775 -443 CURVE"
);
}
);
width = 981;
}
);
unicode = 007B;
},
{
color = (31,255,0,1);
glyphname = bar;
lastChange = "2018-01-18 17:35:03 +0000";
layers = (
{
layerId = UUID0;
paths = (
{
closed = 1;
nodes = (
"381 -508 LINE",
"381 1570 LINE",
"281 1570 LINE",
"281 -508 LINE"
);
}
);
width = 660;
}
);
unicode = 007C;
},
{
color = (31,255,0,1);
glyphname = braceright;
lastChange = "2018-01-18 17:35:03 +0000";
layers = (
{
layerId = UUID0;
paths = (
{
closed = 1;
nodes = (
"761 517 LINE",
"666 528 OFFCURVE",
"532 605 OFFCURVE",
"532 731 CURVE SMOOTH",
"532 825 OFFCURVE",
"577 941 OFFCURVE",
"577 1053 CURVE SMOOTH",
"577 1245 OFFCURVE",
"391 1404 OFFCURVE",
"205 1424 CURVE",
"205 1389 LINE",
"337 1355 OFFCURVE",
"427 1270 OFFCURVE",
"427 1124 CURVE SMOOTH",
"427 1029 OFFCURVE",
"384 943 OFFCURVE",
"384 846 CURVE SMOOTH",
"384 668 OFFCURVE",
"500 549 OFFCURVE",
"658 491 CURVE",
"499 435 OFFCURVE",
"384 312 OFFCURVE",
"384 132 CURVE SMOOTH",
"384 38 OFFCURVE",
"427 -47 OFFCURVE",
"427 -141 CURVE SMOOTH",
"427 -289 OFFCURVE",
"337 -373 OFFCURVE",
"205 -406 CURVE",
"205 -443 LINE",
"397 -422 OFFCURVE",
"577 -258 OFFCURVE",
"577 -57 CURVE SMOOTH",
"577 49 OFFCURVE",
"532 158 OFFCURVE",
"532 246 CURVE SMOOTH",
"532 374 OFFCURVE",
"665 453 OFFCURVE",
"761 466 CURVE"
);
}
);
width = 981;
}
);
unicode = 007D;
},
{
color = (31,255,0,1);
glyphname = asciitilde;
lastChange = "2018-01-18 17:35:03 +0000";
layers = (
{
layerId = UUID0;
paths = (
{
closed = 1;
nodes = (
"1020 705 LINE",
"981 627 OFFCURVE",
"899 528 OFFCURVE",
"805 528 CURVE SMOOTH",
"695 528 OFFCURVE",
"466 681 OFFCURVE",
"323 681 CURVE SMOOTH",
"177 681 OFFCURVE",
"102 558 OFFCURVE",
"39 444 CURVE",
"94 371 LINE",
"144 453 OFFCURVE",
"204 560 OFFCURVE",
"314 560 CURVE SMOOTH",
"458 560 OFFCURVE",
"637 412 OFFCURVE",
"795 412 CURVE SMOOTH",
"927 412 OFFCURVE",
"1020 523 OFFCURVE",
"1076 630 CURVE"
);
}
);
width = 1115;
}
);
unicode = 007E;
},
{
color = (31,255,0,1);
glyphname = Euro;
lastChange = "2018-01-18 17:35:03 +0000";
layers = (
{
background = {
paths = (
{
closed = 1;
nodes = (
"943 339 LINE",
"824 113 OFFCURVE",
"737 57 OFFCURVE",
"606 57 CURVE SMOOTH",
"379 57 OFFCURVE",
"230 269 OFFCURVE",
"230 656 CURVE SMOOTH",
"230 1108 OFFCURVE",
"378 1317 OFFCURVE",
"585 1317 CURVE SMOOTH",
"739 1317 OFFCURVE",
"858 1204 OFFCURVE",
"919 927 CURVE",
"943 927 LINE",
"919 1388 LINE",
"892 1388 LINE",
"882 1324 OFFCURVE",
"858 1293 OFFCURVE",
"831 1293 CURVE SMOOTH",
"800 1293 OFFCURVE",
"724 1388 OFFCURVE",
"572 1388 CURVE SMOOTH",
"264 1388 OFFCURVE",
"61 1053 OFFCURVE",
"61 658 CURVE SMOOTH",
"61 288 OFFCURVE",
"242 -32 OFFCURVE",
"549 -32 CURVE SMOOTH",
"737 -32 OFFCURVE",
"864 81 OFFCURVE",
"964 318 CURVE"
);
},
{
closed = 1;
nodes = (
"758 727 LINE",
"778 812 LINE",
"-39 812 LINE",
"-59 727 LINE"
);
},
{
closed = 1;
nodes = (
"722 571 LINE",
"741 655 LINE",
"-39 655 LINE",
"-59 571 LINE"
);
}
);
};
layerId = UUID0;
paths = (
{
closed = 1;
nodes = (
"722 572 LINE",
"742 655 LINE",
"230 655 LINE",
"230 657 LINE",
"230 681 OFFCURVE",
"230 704 OFFCURVE",
"231 727 CURVE",
"758 727 LINE",
"779 812 LINE",
"237 812 LINE",
"268 1157 OFFCURVE",
"404 1318 OFFCURVE",
"585 1318 CURVE SMOOTH",
"739 1318 OFFCURVE",
"858 1204 OFFCURVE",
"920 927 CURVE",
"943 927 LINE",
"920 1389 LINE",
"892 1389 LINE",
"882 1325 OFFCURVE",
"858 1294 OFFCURVE",
"831 1294 CURVE SMOOTH",
"800 1294 OFFCURVE",
"724 1389 OFFCURVE",
"573 1389 CURVE SMOOTH",
"305 1389 OFFCURVE",
"117 1136 OFFCURVE",
"72 812 CURVE",
"-39 812 LINE",
"-59 727 LINE",
"63 727 LINE",
"61 704 OFFCURVE",
"61 681 OFFCURVE",
"61 658 CURVE SMOOTH",
"61 655 LINE",
"-39 655 LINE",
"-59 572 LINE",
"64 572 LINE",
"90 239 OFFCURVE",
"266 -32 OFFCURVE",
"550 -32 CURVE SMOOTH",
"737 -32 OFFCURVE",
"865 80 OFFCURVE",
"965 319 CURVE",
"943 339 LINE",
"825 113 OFFCURVE",
"737 57 OFFCURVE",
"606 57 CURVE SMOOTH",
"397 57 OFFCURVE",
"253 238 OFFCURVE",
"232 572 CURVE"
);
}
);
width = 1026;
}
);
unicode = 20AC;
},
{
color = (31,255,0,1);
glyphname = quotesinglbase;
lastChange = "2018-01-18 17:35:03 +0000";
layers = (
{
layerId = UUID0;
paths = (
{
closed = 1;
nodes = (
"499 122 OFFCURVE",
"406 199 OFFCURVE",
"325 199 CURVE SMOOTH",
"270 199 OFFCURVE",
"193 162 OFFCURVE",
"193 83 CURVE SMOOTH",
"193 15 OFFCURVE",
"248 -24 OFFCURVE",
"294 -24 CURVE SMOOTH",
"320 -24 OFFCURVE",
"351 -8 OFFCURVE",
"369 -8 CURVE SMOOTH",
"378 -8 OFFCURVE",
"406 -17 OFFCURVE",
"406 -69 CURVE SMOOTH",
"406 -177 OFFCURVE",
"310 -235 OFFCURVE",
"239 -276 CURVE",
"239 -320 LINE",
"316 -294 OFFCURVE",
"499 -209 OFFCURVE",
"499 0 CURVE"
);
}
);
width = 682;
}
);
unicode = 201A;
},
{
color = (31,255,0,1);
glyphname = florin;
lastChange = "2018-01-18 17:35:03 +0000";
layers = (
{
anchors = (
{
name = L;
position = "{460, -100}";
},
{
name = U;
position = "{460, 1435}";
}
);
layerId = UUID0;
paths = (
{
closed = 1;
nodes = (
"891 1216 OFFCURVE",
"856 1168 OFFCURVE",
"810 1168 CURVE",
"707 1164 OFFCURVE",
"699 1348 OFFCURVE",
"560 1348 CURVE SMOOTH",
"432 1348 OFFCURVE",
"422 1240 OFFCURVE",
"422 982 CURVE SMOOTH",
"422 916 LINE",
"658 916 LINE",
"658 844 LINE",
"422 844 LINE",
"422 4 LINE SMOOTH",
"422 -410 OFFCURVE",
"144 -442 OFFCURVE",
"79 -442 CURVE SMOOTH",
"-38 -442 OFFCURVE",
"-130 -361 OFFCURVE",
"-130 -270 CURVE SMOOTH",
"-130 -235 OFFCURVE",
"-98 -188 OFFCURVE",
"-53 -188 CURVE SMOOTH",
"80 -188 OFFCURVE",
"11 -367 OFFCURVE",
"141 -367 CURVE SMOOTH",
"237 -367 OFFCURVE",
"254 -259 OFFCURVE",
"254 0 CURVE SMOOTH",
"254 844 LINE",
"75 844 LINE",
"75 916 LINE",
"254 916 LINE",
"254 978 LINE SMOOTH",
"254 1392 OFFCURVE",
"575 1423 OFFCURVE",
"639 1423 CURVE SMOOTH",
"755 1423 OFFCURVE",
"891 1343 OFFCURVE",
"891 1251 CURVE SMOOTH"
);
}
);
width = 682;
}
);
unicode = 0192;
},
{
color = (31,255,0,1);
glyphname = quotedblbase;
lastChange = "2018-01-18 17:35:03 +0000";
layers = (
{
layerId = UUID0;
paths = (
{
closed = 1;
nodes = (
"852 120 OFFCURVE",
"758 197 OFFCURVE",
"678 197 CURVE SMOOTH",
"623 197 OFFCURVE",
"546 160 OFFCURVE",
"546 80 CURVE SMOOTH",
"546 13 OFFCURVE",
"601 -26 OFFCURVE",
"647 -26 CURVE SMOOTH",
"673 -26 OFFCURVE",
"704 -10 OFFCURVE",
"722 -10 CURVE SMOOTH",
"731 -10 OFFCURVE",
"758 -20 OFFCURVE",
"758 -71 CURVE SMOOTH",
"758 -179 OFFCURVE",
"662 -237 OFFCURVE",
"591 -278 CURVE",
"591 -321 LINE",
"668 -296 OFFCURVE",
"852 -212 OFFCURVE",
"852 -2 CURVE"
);
},
{
closed = 1;
nodes = (
"373 122 OFFCURVE",
"281 199 OFFCURVE",
"199 199 CURVE SMOOTH",
"144 199 OFFCURVE",
"67 162 OFFCURVE",
"67 83 CURVE SMOOTH",
"67 15 OFFCURVE",
"122 -24 OFFCURVE",
"167 -24 CURVE SMOOTH",
"193 -24 OFFCURVE",
"224 -8 OFFCURVE",
"243 -8 CURVE SMOOTH",
"252 -8 OFFCURVE",
"281 -17 OFFCURVE",
"281 -69 CURVE SMOOTH",
"281 -177 OFFCURVE",
"183 -235 OFFCURVE",
"113 -276 CURVE",
"113 -320 LINE",
"190 -294 OFFCURVE",
"373 -209 OFFCURVE",
"373 0 CURVE"
);
}
);
width = 910;
}
);
unicode = 201E;
},
{
color = (31,255,0,1);
glyphname = ellipsis;
lastChange = "2018-01-18 17:35:03 +0000";
layers = (
{
layerId = UUID0;
paths = (
{
closed = 1;
nodes = (
"1822 149 OFFCURVE",
"1771 195 OFFCURVE",
"1712 195 CURVE SMOOTH",
"1649 195 OFFCURVE",
"1601 148 OFFCURVE",
"1601 85 CURVE SMOOTH",
"1601 24 OFFCURVE",
"1643 -30 OFFCURVE",
"1712 -30 CURVE SMOOTH",
"1777 -30 OFFCURVE",
"1822 24 OFFCURVE",
"1822 85 CURVE"
);
},
{
closed = 1;
nodes = (
"1136 149 OFFCURVE",
"1084 195 OFFCURVE",
"1026 195 CURVE SMOOTH",
"961 195 OFFCURVE",
"914 148 OFFCURVE",
"914 85 CURVE SMOOTH",
"914 24 OFFCURVE",
"957 -30 OFFCURVE",
"1026 -30 CURVE SMOOTH",
"1090 -30 OFFCURVE",
"1136 24 OFFCURVE",
"1136 85 CURVE"
);
},
{
closed = 1;
nodes = (
"453 149 OFFCURVE",
"402 195 OFFCURVE",
"343 195 CURVE SMOOTH",
"281 195 OFFCURVE",
"233 148 OFFCURVE",
"233 85 CURVE SMOOTH",
"233 24 OFFCURVE",
"274 -30 OFFCURVE",
"343 -30 CURVE SMOOTH",
"408 -30 OFFCURVE",
"453 24 OFFCURVE",
"453 85 CURVE"
);
}
);
width = 2055;
}
);
unicode = 2026;
},
{
color = (31,255,0,1);
glyphname = uni2025;
lastChange = "2018-01-18 17:35:03 +0000";
layers = (
{
layerId = UUID0;
paths = (
{
closed = 1;
nodes = (
"1136 149 OFFCURVE",
"1084 195 OFFCURVE",
"1026 195 CURVE SMOOTH",
"961 195 OFFCURVE",
"914 148 OFFCURVE",
"914 85 CURVE SMOOTH",
"914 24 OFFCURVE",
"957 -30 OFFCURVE",
"1026 -30 CURVE SMOOTH",
"1090 -30 OFFCURVE",
"1136 24 OFFCURVE",
"1136 85 CURVE SMOOTH"
);
},
{
closed = 1;
nodes = (
"453 149 OFFCURVE",
"402 195 OFFCURVE",
"343 195 CURVE SMOOTH",
"281 195 OFFCURVE",
"233 148 OFFCURVE",
"233 85 CURVE SMOOTH",
"233 24 OFFCURVE",
"274 -30 OFFCURVE",
"343 -30 CURVE SMOOTH",
"408 -30 OFFCURVE",
"453 24 OFFCURVE",
"453 85 CURVE SMOOTH"
);
}
);
width = 1370;
}
);
unicode = 2025;
},
{
color = (31,255,0,1);
glyphname = dagger;
lastChange = "2018-01-18 17:35:03 +0000";
layers = (
{
layerId = UUID0;
paths = (
{
closed = 1;
nodes = (
"926 974 OFFCURVE",
"874 1012 OFFCURVE",
"819 1012 CURVE SMOOTH",
"769 1012 OFFCURVE",
"724 988 OFFCURVE",
"657 961 CURVE SMOOTH",
"615 946 OFFCURVE",
"573 935 OFFCURVE",
"526 934 CURVE",
"527 981 OFFCURVE",
"543 1032 OFFCURVE",
"565 1089 CURVE SMOOTH",
"588 1145 OFFCURVE",
"618 1211 OFFCURVE",
"618 1275 CURVE SMOOTH",
"618 1333 OFFCURVE",
"577 1404 OFFCURVE",
"508 1404 CURVE SMOOTH",
"450 1404 OFFCURVE",
"398 1360 OFFCURVE",
"398 1275 CURVE SMOOTH",
"398 1230 OFFCURVE",
"411 1166 OFFCURVE",
"451 1081 CURVE SMOOTH",
"480 1023 OFFCURVE",
"489 960 OFFCURVE",
"489 934 CURVE",
"440 935 OFFCURVE",
"397 944 OFFCURVE",
"355 961 CURVE SMOOTH",
"292 989 OFFCURVE",
"252 1013 OFFCURVE",
"205 1013 CURVE SMOOTH",
"152 1013 OFFCURVE",
"100 973 OFFCURVE",
"100 912 CURVE SMOOTH",
"100 859 OFFCURVE",
"138 819 OFFCURVE",
"204 819 CURVE SMOOTH",
"235 819 OFFCURVE",
"286 833 OFFCURVE",
"355 861 CURVE SMOOTH",
"400 881 OFFCURVE",
"446 894 OFFCURVE",
"489 896 CURVE",
"481 833 OFFCURVE",
"474 784 OFFCURVE",
"459 753 CURVE SMOOTH",
"446 720 OFFCURVE",
"420 689 OFFCURVE",
"386 660 CURVE",
"419 540 OFFCURVE",
"443 412 OFFCURVE",
"455 281 CURVE SMOOTH",
"475 102 OFFCURVE",
"485 -132 OFFCURVE",
"489 -420 CURVE",
"526 -420 LINE",
"535 -64 OFFCURVE",
"546 175 OFFCURVE",
"558 296 CURVE SMOOTH",
"570 416 OFFCURVE",
"593 536 OFFCURVE",
"626 660 CURVE",
"591 689 OFFCURVE",
"568 718 OFFCURVE",
"551 753 CURVE SMOOTH",
"538 787 OFFCURVE",
"527 834 OFFCURVE",
"526 896 CURVE",
"551 894 OFFCURVE",
"621 883 OFFCURVE",
"657 866 CURVE SMOOTH",
"728 830 OFFCURVE",
"784 819 OFFCURVE",
"820 819 CURVE SMOOTH",
"858 819 OFFCURVE",
"926 839 OFFCURVE",
"926 912 CURVE"
);
}
);
width = 1026;
}
);
unicode = 2020;
},
{
color = (31,255,0,1);
glyphname = daggerdbl;
lastChange = "2018-01-18 17:35:03 +0000";
layers = (
{
layerId = UUID0;
paths = (
{
closed = 1;
nodes = (
"885 41 OFFCURVE",
"839 74 OFFCURVE",
"792 74 CURVE SMOOTH",
"758 74 OFFCURVE",
"715 61 OFFCURVE",
"658 39 CURVE",
"623 22 OFFCURVE",
"577 8 OFFCURVE",
"530 6 CURVE",
"536 49 OFFCURVE",
"546 75 OFFCURVE",
"558 97 CURVE SMOOTH",
"570 118 OFFCURVE",
"593 144 OFFCURVE",
"626 169 CURVE",
"588 220 OFFCURVE",
"530 305 OFFCURVE",
"530 483 CURVE SMOOTH",
"530 676 OFFCURVE",
"591 758 OFFCURVE",
"626 808 CURVE",
"591 834 OFFCURVE",
"568 858 OFFCURVE",
"558 880 CURVE SMOOTH",
"544 904 OFFCURVE",
"535 934 OFFCURVE",
"530 979 CURVE",
"560 974 OFFCURVE",
"581 981 OFFCURVE",
"666 941 CURVE SMOOTH",
"697 927 OFFCURVE",
"753 910 OFFCURVE",
"790 910 CURVE SMOOTH",
"837 910 OFFCURVE",
"885 935 OFFCURVE",
"885 996 CURVE SMOOTH",
"885 1058 OFFCURVE",
"844 1084 OFFCURVE",
"797 1084 CURVE SMOOTH",
"743 1084 OFFCURVE",
"698 1065 OFFCURVE",
"665 1050 CURVE SMOOTH",
"612 1023 OFFCURVE",
"560 1018 OFFCURVE",
"530 1015 CURVE",
"535 1071 OFFCURVE",
"546 1120 OFFCURVE",
"566 1166 CURVE SMOOTH",
"585 1216 OFFCURVE",
"609 1255 OFFCURVE",
"609 1310 CURVE SMOOTH",
"609 1363 OFFCURVE",
"585 1424 OFFCURVE",
"512 1424 CURVE SMOOTH",
"446 1424 OFFCURVE",
"411 1366 OFFCURVE",
"411 1313 CURVE SMOOTH",
"411 1266 OFFCURVE",
"440 1201 OFFCURVE",
"453 1166 CURVE SMOOTH",
"477 1106 OFFCURVE",
"491 1043 OFFCURVE",
"491 1015 CURVE",
"466 1018 OFFCURVE",
"438 1015 OFFCURVE",
"358 1050 CURVE SMOOTH",
"299 1073 OFFCURVE",
"256 1084 OFFCURVE",
"224 1084 CURVE SMOOTH",
"177 1084 OFFCURVE",
"140 1051 OFFCURVE",
"140 997 CURVE SMOOTH",
"140 936 OFFCURVE",
"183 911 OFFCURVE",
"227 911 CURVE SMOOTH",
"260 911 OFFCURVE",
"301 917 OFFCURVE",
"345 936 CURVE SMOOTH",
"438 979 OFFCURVE",
"463 976 OFFCURVE",
"491 979 CURVE",
"481 931 OFFCURVE",
"474 896 OFFCURVE",
"459 875 CURVE",
"450 854 OFFCURVE",
"425 830 OFFCURVE",
"396 808 CURVE",
"425 774 OFFCURVE",
"493 689 OFFCURVE",
"493 497 CURVE SMOOTH",
"493 310 OFFCURVE",
"423 212 OFFCURVE",
"396 169 CURVE",
"427 144 OFFCURVE",
"451 120 OFFCURVE",
"463 100 CURVE",
"475 75 OFFCURVE",
"483 47 OFFCURVE",
"491 8 CURVE",
"412 8 OFFCURVE",
"382 28 OFFCURVE",
"351 41 CURVE SMOOTH",
"299 64 OFFCURVE",
"262 74 OFFCURVE",
"239 74 CURVE SMOOTH",
"195 74 OFFCURVE",
"141 49 OFFCURVE",
"141 -17 CURVE SMOOTH",
"141 -85 OFFCURVE",
"190 -107 OFFCURVE",
"233 -107 CURVE SMOOTH",
"258 -107 OFFCURVE",
"296 -94 OFFCURVE",
"345 -74 CURVE SMOOTH",
"378 -57 OFFCURVE",
"419 -38 OFFCURVE",
"491 -38 CURVE",
"485 -85 OFFCURVE",
"475 -126 OFFCURVE",
"459 -169 CURVE SMOOTH",
"438 -229 OFFCURVE",
"412 -294 OFFCURVE",
"412 -335 CURVE SMOOTH",
"412 -404 OFFCURVE",
"469 -444 OFFCURVE",
"512 -444 CURVE SMOOTH",
"566 -444 OFFCURVE",
"615 -402 OFFCURVE",
"615 -337 CURVE SMOOTH",
"615 -299 OFFCURVE",
"598 -246 OFFCURVE",
"566 -174 CURVE SMOOTH",
"553 -148 OFFCURVE",
"530 -81 OFFCURVE",
"530 -38 CURVE",
"596 -39 OFFCURVE",
"635 -55 OFFCURVE",
"666 -69 CURVE SMOOTH",
"727 -92 OFFCURVE",
"767 -107 OFFCURVE",
"792 -107 CURVE SMOOTH",
"842 -107 OFFCURVE",
"885 -79 OFFCURVE",
"885 -13 CURVE"
);
}
);
width = 1026;
}
);
unicode = 2021;
},
{
color = (31,255,0,1);
glyphname = circumflex;
lastChange = "2018-01-18 17:35:03 +0000";
layers = (
{
layerId = UUID0;
paths = (
{
closed = 1;
nodes = (
"643 1043 LINE",
"386 1387 LINE",
"258 1387 LINE",
"0 1043 LINE",
"71 1043 LINE",
"321 1257 LINE",
"573 1043 LINE"
);
}
);
width = 643;
}
);
unicode = 02C6;
},
{
color = (31,255,0,1);
glyphname = perthousand;
lastChange = "2018-01-18 17:35:03 +0000";
layers = (
{
layerId = UUID0;
paths = (
{
closed = 1;
nodes = (
"2130 618 OFFCURVE",
"2050 735 OFFCURVE",
"1911 735 CURVE SMOOTH",
"1678 735 OFFCURVE",
"1466 475 OFFCURVE",
"1466 252 CURVE SMOOTH",
"1466 98 OFFCURVE",
"1517 -30 OFFCURVE",
"1726 -30 CURVE SMOOTH",
"1903 -30 OFFCURVE",
"2130 186 OFFCURVE",
"2130 508 CURVE"
);
},
{
closed = 1;
nodes = (
"1393 618 OFFCURVE",
"1313 735 OFFCURVE",
"1174 735 CURVE SMOOTH",
"941 735 OFFCURVE",
"728 475 OFFCURVE",
"728 252 CURVE SMOOTH",
"728 98 OFFCURVE",
"780 -30 OFFCURVE",
"988 -30 CURVE SMOOTH",
"1166 -30 OFFCURVE",
"1393 186 OFFCURVE",
"1393 508 CURVE"
);
},
{
closed = 1;
nodes = (
"1164 1395 LINE",
"1041 1395 LINE",
"961 1319 OFFCURVE",
"922 1255 OFFCURVE",
"781 1255 CURVE SMOOTH",
"613 1255 OFFCURVE",
"527 1393 OFFCURVE",
"435 1393 CURVE SMOOTH",
"254 1393 OFFCURVE",
"36 1203 OFFCURVE",
"36 935 CURVE SMOOTH",
"36 790 OFFCURVE",
"94 642 OFFCURVE",
"270 642 CURVE SMOOTH",
"508 642 OFFCURVE",
"628 971 OFFCURVE",
"628 1151 CURVE SMOOTH",
"628 1178 OFFCURVE",
"626 1204 OFFCURVE",
"621 1228 CURVE",
"743 1190 OFFCURVE",
"885 1186 OFFCURVE",
"1012 1299 CURVE",
"218 -32 LINE",
"316 -32 LINE"
);
},
{
closed = 1;
nodes = (
"2077 331 OFFCURVE",
"1942 34 OFFCURVE",
"1750 34 CURVE SMOOTH",
"1669 34 OFFCURVE",
"1620 94 OFFCURVE",
"1620 171 CURVE SMOOTH",
"1620 367 OFFCURVE",
"1763 668 OFFCURVE",
"1934 668 CURVE SMOOTH",
"2027 668 OFFCURVE",
"2077 577 OFFCURVE",
"2077 497 CURVE"
);
},
{
closed = 1;
nodes = (
"1340 331 OFFCURVE",
"1204 34 OFFCURVE",
"1012 34 CURVE SMOOTH",
"931 34 OFFCURVE",
"883 94 OFFCURVE",
"883 171 CURVE SMOOTH",
"883 355 OFFCURVE",
"1026 668 OFFCURVE",
"1197 668 CURVE SMOOTH",
"1289 668 OFFCURVE",
"1340 577 OFFCURVE",
"1340 497 CURVE"
);
},
{
closed = 1;
nodes = (
"576 938 OFFCURVE",
"438 704 OFFCURVE",
"294 704 CURVE SMOOTH",
"213 704 OFFCURVE",
"192 774 OFFCURVE",
"192 881 CURVE SMOOTH",
"192 1018 OFFCURVE",
"282 1302 OFFCURVE",
"438 1335 CURVE",
"474 1299 OFFCURVE",
"515 1270 OFFCURVE",
"562 1245 CURVE",
"576 1219 OFFCURVE",
"576 1183 OFFCURVE",
"576 1150 CURVE"
);
}
);
width = 2165;
}
);
unicode = 2030;
},
{
color = (31,255,0,1);
glyphname = Scaron;
lastChange = "2018-01-18 17:35:03 +0000";
layers = (
{
background = {
paths = (
{
closed = 1;
nodes = (
"1031 346 LINE",
"1031 269 LINE",
"968 131 LINE",
"854 28 LINE",
"697 -32 LINE",
"603 -32 LINE",
"534 -32 LINE",
"420 -8 LINE",
"330 22 LINE",
"262 46 LINE",
"238 46 LINE",
"214 46 LINE",
"184 12 LINE",
"177 -32 LINE",
"141 -32 LINE",
"141 434 LINE",
"177 434 LINE",
"190 329 LINE",
"265 182 LINE",
"374 89 LINE",
"509 47 LINE",
"581 47 LINE",
"643 47 LINE",
"744 83 LINE",
"814 144 LINE",
"852 224 LINE",
"852 269 LINE",
"852 319 LINE",
"817 395 LINE",
"739 466 LINE",
"614 543 LINE",
"525 593 LINE",
"404 661 LINE",
"250 768 LINE",
"162 867 LINE",
"130 968 LINE",
"130 1031 LINE",
"130 1103 LINE",
"185 1232 LINE",
"288 1330 LINE",
"434 1388 LINE",
"525 1388 LINE",
"584 1388 LINE",
"681 1364 LINE",
"757 1335 LINE",
"816 1312 LINE",
"838 1312 LINE",
"861 1312 LINE",
"892 1345 LINE",
"903 1388 LINE",
"940 1388 LINE",
"940 918 LINE",
"903 918 LINE",
"893 1014 LINE",
"827 1160 LINE",
"726 1259 LINE",
"598 1309 LINE",
"526 1309 LINE",
"477 1309 LINE",
"390 1275 LINE",
"326 1218 LINE",
"288 1142 LINE",
"288 1100 LINE",
"288 1060 LINE",
"318 993 LINE",
"394 922 LINE",
"525 840 LINE",
"625 786 LINE",
"722 734 LINE",
"849 655 LINE",
"885 628 LINE",
"954 577 LINE",
"1031 430 LINE"
);
},
{
closed = 1;
nodes = (
"902 1821 LINE",
"831 1821 LINE",
"580 1610 LINE",
"330 1821 LINE",
"259 1821 LINE",
"517 1477 LINE",
"645 1477 LINE"
);
}
);
};
components = (
{
name = S;
},
{
name = uni030C;
transform = "{1, 0, 0, 1, 1090, 432}";
}
);
layerId = UUID0;
width = 1140;
}
);
unicode = 0160;
},
{
color = (31,255,0,1);
glyphname = guilsinglleft;
lastChange = "2018-01-18 17:35:03 +0000";
layers = (
{
layerId = UUID0;
paths = (
{
closed = 1;
nodes = (
"560 -8 LINE",
"316 466 LINE",
"560 935 LINE",
"506 935 LINE",
"118 466 LINE",
"506 -8 LINE"
);
}
);
width = 682;
}
);
unicode = 2039;
},
{
color = (31,255,0,1);
glyphname = OE;
lastChange = "2018-01-18 17:35:03 +0000";
layers = (
{
anchors = (
{
name = L;
position = "{920, -100}";
},
{
name = U;
position = "{920, 1435}";
}
);
layerId = UUID0;
paths = (
{
closed = 1;
nodes = (
"1765 342 LINE",
"1726 342 LINE",
"1689 258 OFFCURVE",
"1644 195 OFFCURVE",
"1596 148 CURVE SMOOTH",
"1526 83 OFFCURVE",
"1450 75 OFFCURVE",
"1331 75 CURVE SMOOTH",
"1225 75 LINE SMOOTH",
"1124 75 OFFCURVE",
"1106 89 OFFCURVE",
"1106 224 CURVE SMOOTH",
"1106 673 LINE",
"1288 673 LINE SMOOTH",
"1368 673 OFFCURVE",
"1420 658 OFFCURVE",
"1447 632 CURVE SMOOTH",
"1477 605 OFFCURVE",
"1493 553 OFFCURVE",
"1497 471 CURVE",
"1538 471 LINE",
"1538 943 LINE",
"1497 943 LINE",
"1497 875 OFFCURVE",
"1485 827 OFFCURVE",
"1450 797 CURVE",
"1420 764 OFFCURVE",
"1365 750 OFFCURVE",
"1288 750 CURVE SMOOTH",
"1106 750 LINE",
"1106 1283 LINE",
"1363 1283 LINE SMOOTH",
"1558 1283 OFFCURVE",
"1559 1236 OFFCURVE",
"1584 1211 CURVE SMOOTH",
"1604 1188 OFFCURVE",
"1609 1138 OFFCURVE",
"1626 1061 CURVE",
"1656 1061 LINE",
"1644 1357 LINE",
"1172 1357 LINE SMOOTH",
"1087 1357 OFFCURVE",
"996 1358 OFFCURVE",
"905 1363 CURVE SMOOTH",
"789 1366 OFFCURVE",
"727 1370 OFFCURVE",
"710 1370 CURVE SMOOTH",
"307 1370 OFFCURVE",
"75 1061 OFFCURVE",
"75 676 CURVE SMOOTH",
"75 290 OFFCURVE",
"325 -15 OFFCURVE",
"689 -15 CURVE SMOOTH",
"747 -15 OFFCURVE",
"986 0 OFFCURVE",
"1002 0 CURVE SMOOTH",
"1172 0 LINE",
"1656 0 LINE"
);
},
{
closed = 1;
nodes = (
"912 342 LINE",
"912 244 OFFCURVE",
"907 183 OFFCURVE",
"896 152 CURVE SMOOTH",
"872 87 OFFCURVE",
"808 55 OFFCURVE",
"710 55 CURVE SMOOTH",
"411 55 OFFCURVE",
"305 367 OFFCURVE",
"305 668 CURVE SMOOTH",
"305 1056 OFFCURVE",
"443 1305 OFFCURVE",
"713 1305 CURVE SMOOTH",
"806 1305 OFFCURVE",
"867 1275 OFFCURVE",
"894 1216 CURVE SMOOTH",
"907 1186 OFFCURVE",
"912 1130 OFFCURVE",
"912 1043 CURVE SMOOTH"
);
}
);
width = 1824;
}
);
unicode = 0152;
},
{
color = (31,255,0,1);
glyphname = Zcaron;
lastChange = "2018-01-18 17:35:03 +0000";
layers = (
{
background = {
paths = (
{
closed = 1;
nodes = (
"1132 0 LINE",
"28 0 LINE",
"28 38 LINE",
"895 1277 LINE",
"463 1277 LINE",
"385 1277 LINE",
"295 1254 LINE",
"266 1228 LINE",
"253 1216 LINE",
"231 1184 LINE",
"211 1136 LINE",
"194 1067 LINE",
"186 1017 LINE",
"148 1017 LINE",
"175 1356 LINE",
"1179 1356 LINE",
"288 83 LINE",
"844 83 LINE",
"908 83 LINE",
"1004 109 LINE",
"1038 138 LINE",
"1074 166 LINE",
"1134 278 LINE",
"1163 365 LINE",
"1194 359 LINE"
);
},
{
closed = 1;
nodes = (
"933 1821 LINE",
"862 1821 LINE",
"611 1610 LINE",
"361 1821 LINE",
"290 1821 LINE",
"548 1477 LINE",
"676 1477 LINE"
);
}
);
};
components = (
{
name = Z;
},
{
name = uni030C;
transform = "{1, 0, 0, 1, 1130, 430}";
}
);
layerId = UUID0;
width = 1251;
}
);
unicode = 017D;
},
{
color = (31,255,0,1);
glyphname = caron;
lastChange = "2018-01-18 17:35:03 +0000";
layers = (
{
anchors = (
{
name = U;
position = "{321, 1375}";
}
);
layerId = UUID0;
paths = (
{
closed = 1;
nodes = (
"643 1387 LINE",
"573 1387 LINE",
"321 1175 LINE",
"71 1387 LINE",
"0 1387 LINE",
"258 1043 LINE",
"386 1043 LINE"
);
}
);
width = 643;
}
);
unicode = 02C7;
},
{
color = (31,255,0,1);
glyphname = quoteleft;
lastChange = "2018-01-18 17:35:03 +0000";
layers = (
{
layerId = UUID0;
paths = (
{
closed = 1;
nodes = (
"491 1053 OFFCURVE",
"436 1092 OFFCURVE",
"391 1092 CURVE SMOOTH",
"366 1092 OFFCURVE",
"333 1076 OFFCURVE",
"316 1076 CURVE SMOOTH",
"305 1076 OFFCURVE",
"278 1087 OFFCURVE",
"278 1138 CURVE SMOOTH",
"278 1245 OFFCURVE",
"374 1304 OFFCURVE",
"446 1344 CURVE",
"446 1389 LINE",
"369 1363 OFFCURVE",
"186 1278 OFFCURVE",
"186 1068 CURVE SMOOTH",
"186 946 OFFCURVE",
"278 869 OFFCURVE",
"359 869 CURVE SMOOTH",
"414 869 OFFCURVE",
"491 907 OFFCURVE",
"491 986 CURVE"
);
}
);
width = 682;
}
);
unicode = 2018;
},
{
color = (31,255,0,1);
glyphname = quoteright;
lastChange = "2018-01-18 17:35:03 +0000";
layers = (
{
layerId = UUID0;
paths = (
{
closed = 1;
nodes = (
"497 1312 OFFCURVE",
"404 1389 OFFCURVE",
"323 1389 CURVE SMOOTH",
"269 1389 OFFCURVE",
"192 1350 OFFCURVE",
"192 1272 CURVE SMOOTH",
"192 1204 OFFCURVE",
"246 1166 OFFCURVE",
"292 1166 CURVE SMOOTH",
"319 1166 OFFCURVE",
"348 1181 OFFCURVE",
"367 1181 CURVE SMOOTH",
"376 1181 OFFCURVE",
"404 1172 OFFCURVE",
"404 1120 CURVE SMOOTH",
"404 1012 OFFCURVE",
"307 954 OFFCURVE",
"237 912 CURVE",
"237 869 LINE",
"314 896 OFFCURVE",
"497 981 OFFCURVE",
"497 1189 CURVE"
);
}
);
width = 682;
}
);
unicode = 2019;
},
{
color = (31,255,0,1);
glyphname = quotedblleft;
lastChange = "2018-01-18 17:35:03 +0000";
layers = (
{
layerId = UUID0;
paths = (
{
closed = 1;
nodes = (
"852 1056 OFFCURVE",
"797 1095 OFFCURVE",
"751 1095 CURVE SMOOTH",
"727 1095 OFFCURVE",
"695 1079 OFFCURVE",
"676 1079 CURVE SMOOTH",
"666 1079 OFFCURVE",
"639 1089 OFFCURVE",
"639 1140 CURVE SMOOTH",
"639 1248 OFFCURVE",
"735 1305 OFFCURVE",
"806 1347 CURVE",
"806 1390 LINE",
"729 1365 OFFCURVE",
"546 1280 OFFCURVE",
"546 1071 CURVE SMOOTH",
"546 949 OFFCURVE",
"639 872 OFFCURVE",
"720 872 CURVE SMOOTH",
"775 872 OFFCURVE",
"852 910 OFFCURVE",
"852 988 CURVE"
);
},
{
closed = 1;
nodes = (
"373 1058 OFFCURVE",
"319 1097 OFFCURVE",
"273 1097 CURVE SMOOTH",
"246 1097 OFFCURVE",
"215 1081 OFFCURVE",
"197 1081 CURVE SMOOTH",
"189 1081 OFFCURVE",
"160 1090 OFFCURVE",
"160 1142 CURVE SMOOTH",
"160 1250 OFFCURVE",
"256 1308 OFFCURVE",
"327 1349 CURVE",
"327 1393 LINE",
"250 1366 OFFCURVE",
"67 1281 OFFCURVE",
"67 1073 CURVE SMOOTH",
"67 950 OFFCURVE",
"160 874 OFFCURVE",
"241 874 CURVE SMOOTH",
"296 874 OFFCURVE",
"373 911 OFFCURVE",
"373 989 CURVE"
);
}
);
width = 1043;
}
);
unicode = 201C;
},
{
color = (31,255,0,1);
glyphname = quotedblright;
lastChange = "2018-01-18 17:35:03 +0000";
layers = (
{
layerId = UUID0;
paths = (
{
closed = 1;
nodes = (
"976 1310 OFFCURVE",
"883 1387 OFFCURVE",
"804 1387 CURVE SMOOTH",
"747 1387 OFFCURVE",
"670 1349 OFFCURVE",
"670 1270 CURVE SMOOTH",
"670 1203 OFFCURVE",
"727 1164 OFFCURVE",
"772 1164 CURVE SMOOTH",
"797 1164 OFFCURVE",
"828 1180 OFFCURVE",
"846 1180 CURVE SMOOTH",
"857 1180 OFFCURVE",
"883 1168 OFFCURVE",
"883 1118 CURVE SMOOTH",
"883 1011 OFFCURVE",
"787 952 OFFCURVE",
"715 911 CURVE",
"715 867 LINE",
"792 894 OFFCURVE",
"976 979 OFFCURVE",
"976 1188 CURVE"
);
},
{
closed = 1;
nodes = (
"497 1312 OFFCURVE",
"404 1389 OFFCURVE",
"323 1389 CURVE SMOOTH",
"269 1389 OFFCURVE",
"192 1350 OFFCURVE",
"192 1272 CURVE SMOOTH",
"192 1204 OFFCURVE",
"246 1166 OFFCURVE",
"292 1166 CURVE SMOOTH",
"319 1166 OFFCURVE",
"348 1181 OFFCURVE",
"367 1181 CURVE SMOOTH",
"376 1181 OFFCURVE",
"404 1172 OFFCURVE",
"404 1120 CURVE SMOOTH",
"404 1012 OFFCURVE",
"307 954 OFFCURVE",
"237 912 CURVE",
"237 869 LINE",
"314 896 OFFCURVE",
"497 981 OFFCURVE",
"497 1189 CURVE"
);
}
);
width = 1043;
}
);
unicode = 201D;
},
{
color = (31,255,0,1);
glyphname = bullet;
lastChange = "2018-01-18 17:35:03 +0000";
layers = (
{
layerId = UUID0;
paths = (
{
closed = 1;
nodes = (
"523 797 OFFCURVE",
"422 897 OFFCURVE",
"296 897 CURVE SMOOTH",
"169 897 OFFCURVE",
"69 797 OFFCURVE",
"69 670 CURVE SMOOTH",
"69 544 OFFCURVE",
"169 444 OFFCURVE",
"296 444 CURVE SMOOTH",
"422 444 OFFCURVE",
"523 544 OFFCURVE",
"523 670 CURVE"
);
}
);
width = 591;
}
);
unicode = 2022;
},
{
color = (31,255,0,1);
glyphname = endash;
lastChange = "2018-01-18 17:35:03 +0000";
layers = (
{
layerId = UUID0;
paths = (
{
closed = 1;
nodes = (
"1015 451 LINE",
"1015 528 LINE",
"-43 528 LINE",
"-43 451 LINE"
);
}
);
width = 986;
}
);
unicode = 2013;
},
{
color = (31,255,0,1);
glyphname = emdash;
lastChange = "2018-01-18 17:35:03 +0000";
layers = (
{
layerId = UUID0;
paths = (
{
closed = 1;
nodes = (
"1972 451 LINE",
"1972 528 LINE",
"0 528 LINE",
"0 451 LINE"
);
}
);
width = 1972;
}
);
unicode = 2014;
},
{
color = (31,255,0,1);
glyphname = tilde;
lastChange = "2018-01-18 17:35:03 +0000";
layers = (
{
background = {
paths = (
{
closed = 1;
nodes = (
"682 1344 LINE",
"678 1303 LINE",
"641 1224 LINE",
"583 1163 LINE",
"508 1125 LINE",
"465 1125 LINE",
"428 1125 LINE",
"373 1139 LINE",
"329 1160 LINE",
"292 1185 LINE",
"251 1206 LINE",
"202 1220 LINE",
"169 1220 LINE",
"149 1220 LINE",
"109 1203 LINE",
"77 1176 LINE",
"55 1142 LINE",
"53 1125 LINE",
"0 1125 LINE",
"11 1169 LINE",
"48 1246 LINE",
"103 1302 LINE",
"179 1334 LINE",
"227 1334 LINE",
"266 1334 LINE",
"327 1306 LINE",
"386 1271 LINE",
"448 1243 LINE",
"487 1243 LINE",
"511 1243 LINE",
"557 1256 LINE",
"595 1282 LINE",
"622 1320 LINE",
"628 1344 LINE"
);
}
);
};
layerId = UUID0;
paths = (
{
closed = 1;
nodes = (
"682 1344 LINE",
"671 1236 OFFCURVE",
"579 1126 OFFCURVE",
"466 1126 CURVE SMOOTH",
"315 1126 OFFCURVE",
"301 1220 OFFCURVE",
"169 1220 CURVE SMOOTH",
"116 1220 OFFCURVE",
"58 1171 OFFCURVE",
"53 1126 CURVE",
"0 1126 LINE",
"30 1244 OFFCURVE",
"97 1335 OFFCURVE",
"227 1335 CURVE SMOOTH",
"330 1335 OFFCURVE",
"382 1243 OFFCURVE",
"488 1243 CURVE SMOOTH",
"554 1243 OFFCURVE",
"612 1280 OFFCURVE",
"628 1344 CURVE"
);
}
);
width = 682;
}
);
unicode = 02DC;
},
{
color = (31,255,0,1);
glyphname = trademark;
lastChange = "2018-01-18 17:35:03 +0000";
layers = (
{
layerId = UUID0;
paths = (
{
closed = 1;
nodes = (
"1976 550 LINE",
"1976 585 LINE",
"1883 585 OFFCURVE",
"1863 607 OFFCURVE",
"1863 718 CURVE SMOOTH",
"1863 1186 LINE SMOOTH",
"1863 1267 OFFCURVE",
"1863 1327 OFFCURVE",
"1976 1320 CURVE",
"1976 1357 LINE",
"1696 1357 LINE",
"1432 784 LINE",
"1158 1357 LINE",
"872 1357 LINE",
"872 1320 LINE",
"982 1320 OFFCURVE",
"984 1288 OFFCURVE",
"984 1183 CURVE SMOOTH",
"984 718 LINE SMOOTH",
"984 620 OFFCURVE",
"981 585 OFFCURVE",
"872 585 CURVE",
"872 550 LINE",
"1178 550 LINE",
"1178 585 LINE",
"1056 585 OFFCURVE",
"1046 609 OFFCURVE",
"1046 718 CURVE SMOOTH",
"1046 1198 LINE",
"1357 550 LINE",
"1389 550 LINE",
"1696 1211 LINE",
"1696 715 LINE SMOOTH",
"1696 605 OFFCURVE",
"1674 585 OFFCURVE",
"1577 585 CURVE",
"1577 550 LINE"
);
},
{
closed = 1;
nodes = (
"804 1158 LINE",
"787 1357 LINE",
"45 1357 LINE",
"32 1158 LINE",
"64 1158 LINE",
"89 1267 OFFCURVE",
"135 1297 OFFCURVE",
"254 1297 CURVE SMOOTH",
"329 1297 LINE",
"329 718 LINE SMOOTH",
"329 593 OFFCURVE",
"314 600 OFFCURVE",
"229 585 CURVE",
"229 550 LINE",
"605 550 LINE",
"605 585 LINE",
"506 589 OFFCURVE",
"499 615 OFFCURVE",
"499 718 CURVE SMOOTH",
"499 1297 LINE",
"574 1297 LINE SMOOTH",
"715 1297 OFFCURVE",
"758 1245 OFFCURVE",
"767 1158 CURVE"
);
}
);
width = 2010;
}
);
unicode = 2122;
},
{
color = (31,255,0,1);
glyphname = scaron;
lastChange = "2018-01-18 17:35:03 +0000";
layers = (
{
background = {
paths = (
{
closed = 1;
nodes = (
"726 231 LINE",
"726 179 LINE",
"676 84 LINE",
"592 12 LINE",
"481 -30 LINE",
"420 -30 LINE",
"383 -30 LINE",
"314 -13 LINE",
"251 9 LINE",
"196 29 LINE",
"173 32 LINE",
"162 32 LINE",
"144 0 LINE",
"138 -13 LINE",
"105 -13 LINE",
"105 314 LINE",
"138 314 LINE",
"151 244 LINE",
"206 139 LINE",
"281 68 LINE",
"371 32 LINE",
"420 32 LINE",
"457 32 LINE",
"515 54 LINE",
"555 91 LINE",
"577 140 LINE",
"577 167 LINE",
"578 201 LINE",
"561 258 LINE",
"511 313 LINE",
"420 374 LINE",
"345 412 LINE",
"272 450 LINE",
"177 516 LINE",
"122 584 LINE",
"100 656 LINE",
"100 698 LINE",
"100 749 LINE",
"139 838 LINE",
"215 904 LINE",
"326 942 LINE",
"398 942 LINE",
"429 942 LINE",
"490 931 LINE",
"544 918 LINE",
"586 907 LINE",
"598 907 LINE",
"612 907 LINE",
"631 918 LINE",
"643 942 LINE",
"676 942 LINE",
"676 630 LINE",
"643 630 LINE",
"625 704 LINE",
"575 802 LINE",
"513 860 LINE",
"438 885 LINE",
"395 885 LINE",
"303 885 LINE",
"218 818 LINE",
"217 765 LINE",
"216 738 LINE",
"227 687 LINE",
"260 640 LINE",
"319 596 LINE",
"367 574 LINE",
"515 504 LINE",
"619 456 LINE",
"726 318 LINE"
);
},
{
closed = 1;
nodes = (
"735 1386 LINE",
"664 1386 LINE",
"413 1175 LINE",
"163 1386 LINE",
"92 1386 LINE",
"350 1042 LINE",
"478 1042 LINE"
);
}
);
};
components = (
{
name = s;
transform = "{1, 0, 0, 1, -1, 0}";
},
{
name = uni030C;
transform = "{1, 0, 0, 1, 930, 0}";
}
);
layerId = UUID0;
width = 798;
}
);
unicode = 0161;
},
{
color = (31,255,0,1);
glyphname = guilsinglright;
lastChange = "2018-01-18 17:35:03 +0000";
layers = (
{
layerId = UUID0;
paths = (
{
closed = 1;
nodes = (
"565 461 LINE",
"175 935 LINE",
"122 935 LINE",
"367 461 LINE",
"122 -8 LINE",
"175 -8 LINE"
);
}
);
width = 682;
}
);
unicode = 203A;
},
{
color = (31,255,0,1);
glyphname = oe;
lastChange = "2018-01-18 17:35:03 +0000";
layers = (
{
anchors = (
{
name = H;
position = "{802, 0}";
},
{
name = L;
position = "{741, -100}";
},
{
name = O;
position = "{1229, 0}";
},
{
name = R;
position = "{1481, 900}";
},
{
name = U;
position = "{741, 1000}";
}
);
layerId = UUID0;
paths = (
{
closed = 1;
nodes = (
"1381 355 LINE",
"1322 193 OFFCURVE",
"1243 138 OFFCURVE",
"1140 138 CURVE SMOOTH",
"968 138 OFFCURVE",
"852 305 OFFCURVE",
"866 574 CURVE",
"1413 574 LINE",
"1419 800 OFFCURVE",
"1294 944 OFFCURVE",
"1087 944 CURVE SMOOTH",
"961 944 OFFCURVE",
"874 894 OFFCURVE",
"805 784 CURVE",
"737 881 OFFCURVE",
"630 943 OFFCURVE",
"491 943 CURVE SMOOTH",
"252 943 OFFCURVE",
"67 750 OFFCURVE",
"67 444 CURVE SMOOTH",
"67 156 OFFCURVE",
"250 -32 OFFCURVE",
"483 -30 CURVE SMOOTH",
"627 -28 OFFCURVE",
"727 32 OFFCURVE",
"805 135 CURVE",
"849 43 OFFCURVE",
"946 -32 OFFCURVE",
"1073 -30 CURVE SMOOTH",
"1245 -28 OFFCURVE",
"1365 89 OFFCURVE",
"1413 339 CURVE"
);
},
{
closed = 1;
nodes = (
"866 639 LINE",
"869 804 OFFCURVE",
"961 877 OFFCURVE",
"1038 877 CURVE SMOOTH",
"1174 877 OFFCURVE",
"1217 747 OFFCURVE",
"1217 639 CURVE"
);
},
{
closed = 1;
nodes = (
"715 128 OFFCURVE",
"627 43 OFFCURVE",
"511 43 CURVE SMOOTH",
"351 43 OFFCURVE",
"254 260 OFFCURVE",
"254 540 CURVE SMOOTH",
"254 798 OFFCURVE",
"345 888 OFFCURVE",
"453 888 CURVE SMOOTH",
"632 888 OFFCURVE",
"715 676 OFFCURVE",
"715 378 CURVE"
);
}
);
width = 1481;
}
);
unicode = 0153;
},
{
color = (31,255,0,1);
glyphname = zcaron;
lastChange = "2018-01-18 17:35:03 +0000";
layers = (
{
background = {
paths = (
{
closed = 1;
nodes = (
"262 67 LINE",
"598 67 LINE",
"701 67 LINE",
"737 85 LINE",
"754 93 LINE",
"780 109 LINE",
"801 146 LINE",
"819 217 LINE",
"826 280 LINE",
"861 280 LINE",
"850 0 LINE",
"41 0 LINE",
"41 38 LINE",
"651 848 LINE",
"348 848 LINE",
"301 848 LINE",
"238 839 LINE",
"220 833 LINE",
"191 820 LINE",
"149 744 LINE",
"141 662 LINE",
"102 662 LINE",
"109 916 LINE",
"877 916 LINE",
"877 879 LINE"
);
},
{
closed = 1;
nodes = (
"781 1386 LINE",
"710 1386 LINE",
"459 1175 LINE",
"209 1386 LINE",
"138 1386 LINE",
"396 1042 LINE",
"524 1042 LINE"
);
}
);
};
components = (
{
name = z;
},
{
name = uni030C;
transform = "{1, 0, 0, 1, 973, 0}";
}
);
layerId = UUID0;
width = 911;
}
);
unicode = 017E;
},
{
color = (31,255,0,1);
glyphname = Ydieresis;
lastChange = "2018-01-18 17:35:03 +0000";
layers = (
{
background = {
paths = (
{
closed = 1;
nodes = (
"1425 1320 LINE",
"1413 1320 LINE",
"1373 1310 LINE",
"1328 1289 LINE",
"1279 1256 LINE",
"1258 1232 LINE",
"1237 1209 LINE",
"1188 1139 LINE",
"1157 1090 LINE",
"828 576 LINE",
"828 237 LINE",
"828 109 LINE",
"857 79 LINE",
"892 38 LINE",
"978 38 LINE",
"1021 38 LINE",
"1021 0 LINE",
"446 0 LINE",
"446 38 LINE",
"493 38 LINE",
"536 38 LINE",
"594 62 LINE",
"615 90 LINE",
"624 106 LINE",
"634 177 LINE",
"634 237 LINE",
"634 558 LINE",
"264 1125 LINE",
"231 1174 LINE",
"184 1243 LINE",
"156 1266 LINE",
"130 1285 LINE",
"58 1320 LINE",
"17 1320 LINE",
"17 1356 LINE",
"600 1356 LINE",
"600 1320 LINE",
"570 1320 LINE",
"556 1320 LINE",
"513 1313 LINE",
"473 1294 LINE",
"444 1259 LINE",
"444 1232 LINE",
"444 1215 LINE",
"473 1149 LINE",
"504 1100 LINE",
"786 664 LINE",
"1055 1082 LINE",
"1077 1116 LINE",
"1106 1171 LINE",
"1119 1216 LINE",
"1112 1255 LINE",
"1098 1273 LINE",
"1086 1293 LINE",
"1034 1320 LINE",
"978 1320 LINE",
"978 1356 LINE",
"1450 1356 LINE",
"1450 1320 LINE"
);
},
{
closed = 1;
nodes = (
"1040 1718 OFFCURVE",
"993 1765 OFFCURVE",
"937 1765 CURVE SMOOTH",
"886 1765 OFFCURVE",
"835 1714 OFFCURVE",
"835 1663 CURVE SMOOTH",
"835 1610 OFFCURVE",
"882 1560 OFFCURVE",
"937 1560 CURVE SMOOTH",
"993 1560 OFFCURVE",
"1040 1608 OFFCURVE",
"1040 1663 CURVE"
);
},
{
closed = 1;
nodes = (
"630 1718 OFFCURVE",
"583 1765 OFFCURVE",
"527 1765 CURVE SMOOTH",
"476 1765 OFFCURVE",
"427 1714 OFFCURVE",
"427 1663 CURVE SMOOTH",
"427 1610 OFFCURVE",
"474 1560 OFFCURVE",
"527 1560 CURVE SMOOTH",
"583 1560 OFFCURVE",
"630 1608 OFFCURVE",
"630 1663 CURVE"
);
}
);
};
components = (
{
name = Y;
},
{
name = uni0308;
transform = "{1, 0, 0, 1, 1243, 438}";
}
);
layerId = UUID0;
width = 1481;
}
);
unicode = 0178;
},
{
color = (31,255,0,1);
glyphname = exclamdown;
lastChange = "2018-01-18 17:35:03 +0000";
layers = (
{
layerId = UUID0;
paths = (
{
closed = 1;
nodes = (
"453 943 OFFCURVE",
"386 976 OFFCURVE",
"342 976 CURVE SMOOTH",
"282 976 OFFCURVE",
"231 926 OFFCURVE",
"231 861 CURVE SMOOTH",
"231 795 OFFCURVE",
"290 753 OFFCURVE",
"342 753 CURVE SMOOTH",
"393 753 OFFCURVE",
"453 790 OFFCURVE",
"453 861 CURVE"
);
},
{
closed = 1;
nodes = (
"455 -286 OFFCURVE",
"453 -273 OFFCURVE",
"448 -224 CURVE SMOOTH",
"361 588 LINE",
"321 588 LINE",
"231 -224 LINE SMOOTH",
"227 -252 OFFCURVE",
"227 -276 OFFCURVE",
"227 -292 CURVE SMOOTH",
"227 -402 OFFCURVE",
"290 -443 OFFCURVE",
"339 -443 CURVE SMOOTH",
"404 -443 OFFCURVE",
"455 -391 OFFCURVE",
"455 -301 CURVE"
);
}
);
width = 682;
}
);
unicode = 00A1;
},
{
color = (31,255,0,1);
glyphname = cent;
lastChange = "2018-01-18 17:35:03 +0000";
layers = (
{
background = {
paths = (
{
closed = 1;
nodes = (
"899 348 LINE",
"886 265 LINE",
"813 126 LINE",
"710 26 LINE",
"584 -30 LINE",
"517 -30 LINE",
"479 -30 LINE",
"409 -14 LINE",
"376 0 LINE",
"365 -33 LINE",
"346 -87 LINE",
"322 -155 LINE",
"309 -190 LINE",
"241 -378 LINE",
"169 -378 LINE",
"320 32 LINE",
"277 62 LINE",
"205 146 LINE",
"154 254 LINE",
"126 383 LINE",
"126 457 LINE",
"126 566 LINE",
"196 745 LINE",
"315 872 LINE",
"474 942 LINE",
"564 942 LINE",
"586 942 LINE",
"627 939 LINE",
"647 934 LINE",
"788 1326 LINE",
"859 1326 LINE",
"711 916 LINE",
"753 899 LINE",
"786 871 LINE",
"875 802 LINE",
"875 724 LINE",
"875 689 LINE",
"829 639 LINE",
"781 639 LINE",
"766 639 LINE",
"730 645 LINE",
"697 668 LINE",
"673 715 LINE",
"670 756 LINE",
"670 775 LINE",
"664 788 LINE",
"442 175 LINE",
"473 155 LINE",
"545 130 LINE",
"587 130 LINE",
"629 130 LINE",
"706 149 LINE",
"776 201 LINE",
"841 292 LINE",
"871 363 LINE"
);
},
{
closed = 1;
nodes = (
"290 544 LINE",
"290 452 LINE",
"339 284 LINE",
"388 227 LINE",
"389 227 LINE",
"409 281 LINE",
"442 370 LINE",
"483 483 LINE",
"526 600 LINE",
"567 713 LINE",
"598 802 LINE",
"617 856 LINE",
"600 866 LINE",
"559 877 LINE",
"530 877 LINE",
"473 877 LINE",
"384 826 LINE",
"322 737 LINE",
"290 615 LINE"
);
}
);
};
layerId = UUID0;
paths = (
{
closed = 1;
nodes = (
"899 348 LINE",
"867 127 OFFCURVE",
"694 -30 OFFCURVE",
"517 -30 CURVE SMOOTH",
"468 -30 OFFCURVE",
"420 -19 OFFCURVE",
"376 0 CURVE",
"357 -62 OFFCURVE",
"337 -115 OFFCURVE",
"309 -190 CURVE SMOOTH",
"241 -378 LINE",
"169 -378 LINE",
"320 32 LINE",
"205 112 OFFCURVE",
"126 258 OFFCURVE",
"126 458 CURVE SMOOTH",
"126 747 OFFCURVE",
"325 943 OFFCURVE",
"565 943 CURVE SMOOTH",
"593 943 OFFCURVE",
"620 942 OFFCURVE",
"647 935 CURVE",
"789 1327 LINE",
"859 1327 LINE",
"712 917 LINE",
"739 905 OFFCURVE",
"764 890 OFFCURVE",
"787 872 CURVE SMOOTH",
"846 826 OFFCURVE",
"875 777 OFFCURVE",
"875 724 CURVE SMOOTH",
"875 677 OFFCURVE",
"845 639 OFFCURVE",
"781 639 CURVE SMOOTH",
"739 639 OFFCURVE",
"681 646 OFFCURVE",
"670 757 CURVE",
"670 769 OFFCURVE",
"668 780 OFFCURVE",
"665 789 CURVE",
"443 175 LINE",
"484 148 OFFCURVE",
"531 130 OFFCURVE",
"588 130 CURVE SMOOTH",
"698 130 OFFCURVE",
"792 173 OFFCURVE",
"872 363 CURVE"
);
},
{
closed = 1;
nodes = (
"290 421 OFFCURVE",
"322 303 OFFCURVE",
"389 227 CURVE",
"388 227 OFFCURVE",
"423 316 OFFCURVE",
"463 426 CURVE SMOOTH",
"490 502 OFFCURVE",
"520 581 OFFCURVE",
"547 656 CURVE SMOOTH",
"574 732 OFFCURVE",
"591 785 OFFCURVE",
"618 857 CURVE",
"594 869 OFFCURVE",
"569 877 OFFCURVE",
"530 877 CURVE SMOOTH",
"379 877 OFFCURVE",
"290 734 OFFCURVE",
"290 544 CURVE SMOOTH"
);
}
);
width = 1026;
}
);
unicode = 00A2;
},
{
color = (31,255,0,1);
glyphname = sterling;
lastChange = "2018-01-18 17:35:03 +0000";
layers = (
{
layerId = UUID0;
paths = (
{
closed = 1;
nodes = (
"941 314 LINE",
"926 256 OFFCURVE",
"889 152 OFFCURVE",
"729 152 CURVE SMOOTH",
"635 152 OFFCURVE",
"535 192 OFFCURVE",
"404 235 CURVE",
"481 436 OFFCURVE",
"466 613 OFFCURVE",
"466 660 CURVE",
"724 660 LINE",
"724 756 LINE",
"466 756 LINE",
"463 777 OFFCURVE",
"444 960 OFFCURVE",
"444 1050 CURVE SMOOTH",
"444 1263 OFFCURVE",
"521 1331 OFFCURVE",
"626 1331 CURVE SMOOTH",
"712 1331 OFFCURVE",
"747 1275 OFFCURVE",
"747 1216 CURVE SMOOTH",
"747 1133 OFFCURVE",
"784 1098 OFFCURVE",
"827 1098 CURVE SMOOTH",
"866 1098 OFFCURVE",
"904 1142 OFFCURVE",
"904 1181 CURVE SMOOTH",
"904 1283 OFFCURVE",
"805 1387 OFFCURVE",
"651 1387 CURVE SMOOTH",
"481 1387 OFFCURVE",
"278 1251 OFFCURVE",
"278 954 CURVE SMOOTH",
"278 920 OFFCURVE",
"286 857 OFFCURVE",
"292 756 CURVE",
"98 756 LINE",
"98 660 LINE",
"292 660 LINE",
"305 499 OFFCURVE",
"320 355 OFFCURVE",
"310 252 CURVE",
"292 256 OFFCURVE",
"266 260 OFFCURVE",
"224 260 CURVE SMOOTH",
"169 260 OFFCURVE",
"61 233 OFFCURVE",
"61 105 CURVE SMOOTH",
"61 43 OFFCURVE",
"92 -24 OFFCURVE",
"177 -24 CURVE SMOOTH",
"278 -24 OFFCURVE",
"339 85 OFFCURVE",
"366 138 CURVE",
"506 34 OFFCURVE",
"565 -24 OFFCURVE",
"690 -24 CURVE SMOOTH",
"867 -24 OFFCURVE",
"960 149 OFFCURVE",
"979 304 CURVE"
);
},
{
closed = 1;
nodes = (
"278 89 OFFCURVE",
"239 36 OFFCURVE",
"186 36 CURVE SMOOTH",
"149 36 OFFCURVE",
"118 57 OFFCURVE",
"118 113 CURVE SMOOTH",
"118 162 OFFCURVE",
"149 199 OFFCURVE",
"213 199 CURVE SMOOTH",
"256 199 OFFCURVE",
"286 181 OFFCURVE",
"299 171 CURVE"
);
}
);
width = 1026;
}
);
unicode = 00A3;
},
{
color = (31,255,0,1);
glyphname = currency;
lastChange = "2018-01-18 17:35:03 +0000";
layers = (
{
layerId = UUID0;
paths = (
{
closed = 1;
nodes = (
"1143 386 LINE",
"941 589 LINE",
"999 660 OFFCURVE",
"1027 751 OFFCURVE",
"1027 844 CURVE SMOOTH",
"1027 936 OFFCURVE",
"994 1035 OFFCURVE",
"938 1104 CURVE",
"1143 1310 LINE",
"1073 1381 LINE",
"864 1172 LINE",
"797 1228 OFFCURVE",
"705 1260 OFFCURVE",
"615 1260 CURVE SMOOTH",
"523 1260 OFFCURVE",
"427 1230 OFFCURVE",
"358 1174 CURVE",
"149 1381 LINE",
"79 1310 LINE",
"286 1103 LINE",
"222 1034 OFFCURVE",
"195 934 OFFCURVE",
"195 842 CURVE SMOOTH",
"195 750 OFFCURVE",
"224 660 OFFCURVE",
"282 589 CURVE",
"79 386 LINE",
"149 316 LINE",
"353 520 LINE",
"425 455 OFFCURVE",
"517 425 OFFCURVE",
"615 425 CURVE SMOOTH",
"705 425 OFFCURVE",
"798 458 OFFCURVE",
"869 520 CURVE",
"1073 316 LINE"
);
},
{
closed = 1;
nodes = (
"914 678 OFFCURVE",
"782 538 OFFCURVE",
"615 538 CURVE SMOOTH",
"446 538 OFFCURVE",
"307 673 OFFCURVE",
"307 842 CURVE SMOOTH",
"307 1013 OFFCURVE",
"444 1148 OFFCURVE",
"615 1148 CURVE SMOOTH",
"781 1148 OFFCURVE",
"914 1009 OFFCURVE",
"914 844 CURVE"
);
}
);
width = 1203;
}
);
unicode = 00A4;
},
{
color = (31,255,0,1);
glyphname = yen;
lastChange = "2018-01-18 17:35:03 +0000";
layers = (
{
layerId = UUID0;
paths = (
{
closed = 1;
nodes = (
"1005 353 LINE",
"1005 425 LINE",
"598 425 LINE",
"598 588 LINE",
"605 605 LINE",
"1005 605 LINE",
"1005 678 LINE",
"635 678 LINE",
"852 1166 LINE SMOOTH",
"881 1230 OFFCURVE",
"911 1274 OFFCURVE",
"936 1296 CURVE SMOOTH",
"957 1313 OFFCURVE",
"984 1320 OFFCURVE",
"1026 1320 CURVE",
"1026 1357 LINE",
"678 1357 LINE",
"678 1320 LINE",
"718 1319 OFFCURVE",
"745 1316 OFFCURVE",
"769 1299 CURVE SMOOTH",
"806 1274 OFFCURVE",
"782 1217 OFFCURVE",
"769 1183 CURVE SMOOTH",
"557 678 LINE",
"343 1198 LINE SMOOTH",
"331 1230 OFFCURVE",
"301 1266 OFFCURVE",
"346 1296 CURVE SMOOTH",
"374 1313 OFFCURVE",
"398 1318 OFFCURVE",
"446 1320 CURVE",
"446 1357 LINE",
"2 1357 LINE",
"2 1320 LINE",
"39 1318 OFFCURVE",
"69 1310 OFFCURVE",
"92 1289 CURVE",
"118 1272 OFFCURVE",
"141 1233 OFFCURVE",
"166 1175 CURVE SMOOTH",
"378 678 LINE",
"20 678 LINE",
"20 605 LINE",
"412 605 LINE",
"425 570 LINE",
"425 425 LINE",
"20 425 LINE",
"20 353 LINE",
"425 353 LINE",
"425 244 LINE SMOOTH",
"425 175 OFFCURVE",
"427 107 OFFCURVE",
"406 83 CURVE SMOOTH",
"376 49 OFFCURVE",
"331 41 OFFCURVE",
"286 41 CURVE SMOOTH",
"252 41 LINE",
"252 0 LINE",
"769 0 LINE",
"769 41 LINE",
"728 41 LINE SMOOTH",
"697 41 OFFCURVE",
"647 53 OFFCURVE",
"623 80 CURVE SMOOTH",
"598 112 OFFCURVE",
"598 169 OFFCURVE",
"598 244 CURVE SMOOTH",
"598 353 LINE"
);
}
);
width = 1026;
}
);
unicode = 00A5;
},
{
color = (31,255,0,1);
glyphname = brokenbar;
lastChange = "2018-01-18 17:35:03 +0000";
layers = (
{
layerId = UUID0;
paths = (
{
closed = 1;
nodes = (
"390 662 LINE",
"390 1450 LINE",
"290 1450 LINE",
"290 662 LINE"
);
},
{
closed = 1;
nodes = (
"390 -391 LINE",
"390 398 LINE",
"290 398 LINE",
"290 -391 LINE"
);
}
);
width = 681;
}
);
unicode = 00A6;
},
{
color = (31,255,0,1);
glyphname = section;
lastChange = "2018-01-18 17:35:03 +0000";
layers = (
{
layerId = UUID0;
paths = (
{
closed = 1;
nodes = (
"869 678 OFFCURVE",
"674 814 OFFCURVE",
"543 914 CURVE SMOOTH",
"446 988 OFFCURVE",
"363 1053 OFFCURVE",
"363 1168 CURVE SMOOTH",
"363 1258 OFFCURVE",
"427 1343 OFFCURVE",
"536 1343 CURVE SMOOTH",
"607 1343 OFFCURVE",
"647 1302 OFFCURVE",
"647 1248 CURVE SMOOTH",
"647 1217 OFFCURVE",
"632 1172 OFFCURVE",
"632 1151 CURVE SMOOTH",
"632 1115 OFFCURVE",
"665 1074 OFFCURVE",
"712 1074 CURVE SMOOTH",
"756 1074 OFFCURVE",
"790 1111 OFFCURVE",
"790 1166 CURVE SMOOTH",
"790 1304 OFFCURVE",
"666 1387 OFFCURVE",
"536 1387 CURVE SMOOTH",
"429 1387 OFFCURVE",
"252 1299 OFFCURVE",
"252 1104 CURVE SMOOTH",
"252 981 OFFCURVE",
"335 894 OFFCURVE",
"376 844 CURVE",
"301 798 OFFCURVE",
"156 687 OFFCURVE",
"156 504 CURVE SMOOTH",
"156 346 OFFCURVE",
"274 224 OFFCURVE",
"463 85 CURVE SMOOTH",
"550 22 OFFCURVE",
"668 -69 OFFCURVE",
"668 -197 CURVE SMOOTH",
"668 -274 OFFCURVE",
"585 -361 OFFCURVE",
"493 -361 CURVE SMOOTH",
"438 -361 OFFCURVE",
"373 -335 OFFCURVE",
"373 -284 CURVE SMOOTH",
"373 -256 OFFCURVE",
"391 -201 OFFCURVE",
"391 -174 CURVE SMOOTH",
"391 -148 OFFCURVE",
"374 -87 OFFCURVE",
"314 -87 CURVE SMOOTH",
"278 -87 OFFCURVE",
"237 -116 OFFCURVE",
"237 -175 CURVE SMOOTH",
"237 -323 OFFCURVE",
"373 -400 OFFCURVE",
"485 -400 CURVE SMOOTH",
"639 -400 OFFCURVE",
"772 -286 OFFCURVE",
"772 -115 CURVE SMOOTH",
"772 11 OFFCURVE",
"695 90 OFFCURVE",
"650 140 CURVE",
"727 189 OFFCURVE",
"869 297 OFFCURVE",
"869 481 CURVE"
);
},
{
closed = 1;
nodes = (
"833 353 OFFCURVE",
"718 233 OFFCURVE",
"615 167 CURVE",
"544 248 OFFCURVE",
"374 329 OFFCURVE",
"296 461 CURVE SMOOTH",
"195 628 OFFCURVE",
"310 753 OFFCURVE",
"411 812 CURVE",
"446 774 OFFCURVE",
"653 637 OFFCURVE",
"724 526 CURVE"
);
}
);
width = 1026;
}
);
unicode = 00A7;
},
{
color = (31,255,0,1);
glyphname = dieresis;
lastChange = "2018-01-18 17:35:03 +0000";
layers = (
{
anchors = (
{
name = U;
position = "{306, 1375}";
}
);
layerId = UUID0;
paths = (
{
closed = 1;
nodes = (
"613 1283 OFFCURVE",
"566 1331 OFFCURVE",
"511 1331 CURVE SMOOTH",
"459 1331 OFFCURVE",
"408 1280 OFFCURVE",
"408 1228 CURVE SMOOTH",
"408 1175 OFFCURVE",
"455 1126 OFFCURVE",
"511 1126 CURVE SMOOTH",
"566 1126 OFFCURVE",
"613 1174 OFFCURVE",
"613 1228 CURVE"
);
},
{
closed = 1;
nodes = (
"204 1283 OFFCURVE",
"156 1331 OFFCURVE",
"100 1331 CURVE SMOOTH",
"49 1331 OFFCURVE",
"0 1280 OFFCURVE",
"0 1228 CURVE SMOOTH",
"0 1175 OFFCURVE",
"47 1126 OFFCURVE",
"100 1126 CURVE SMOOTH",
"156 1126 OFFCURVE",
"204 1174 OFFCURVE",
"204 1228 CURVE"
);
}
);
width = 613;
}
);
unicode = 00A8;
},
{
color = (31,255,0,1);
glyphname = copyright;
lastChange = "2018-01-18 17:35:03 +0000";
layers = (
{
layerId = UUID0;
paths = (
{
closed = 1;
nodes = (
"1490 1076 OFFCURVE",
"1180 1389 OFFCURVE",
"780 1389 CURVE SMOOTH",
"427 1389 OFFCURVE",
"69 1121 OFFCURVE",
"69 678 CURVE SMOOTH",
"69 273 OFFCURVE",
"389 -32 OFFCURVE",
"780 -32 CURVE SMOOTH",
"1172 -32 OFFCURVE",
"1490 278 OFFCURVE",
"1490 678 CURVE"
);
},
{
closed = 1;
nodes = (
"1427 301 OFFCURVE",
"1124 32 OFFCURVE",
"780 32 CURVE SMOOTH",
"429 32 OFFCURVE",
"132 305 OFFCURVE",
"132 678 CURVE SMOOTH",
"132 1079 OFFCURVE",
"461 1327 OFFCURVE",
"780 1327 CURVE SMOOTH",
"1136 1327 OFFCURVE",
"1427 1043 OFFCURVE",
"1427 678 CURVE"
);
},
{
closed = 1;
nodes = (
"1130 451 LINE",
"1053 343 OFFCURVE",
"950 290 OFFCURVE",
"819 290 CURVE SMOOTH",
"620 290 OFFCURVE",
"485 423 OFFCURVE",
"485 703 CURVE SMOOTH",
"485 936 OFFCURVE",
"605 1090 OFFCURVE",
"808 1090 CURVE SMOOTH",
"1020 1090 OFFCURVE",
"1087 934 OFFCURVE",
"1112 857 CURVE",
"1150 857 LINE",
"1130 1136 LINE",
"1090 1136 LINE",
"1082 1118 OFFCURVE",
"1079 1090 OFFCURVE",
"1041 1090 CURVE SMOOTH",
"1002 1090 OFFCURVE",
"946 1136 OFFCURVE",
"819 1136 CURVE SMOOTH",
"560 1136 OFFCURVE",
"320 968 OFFCURVE",
"320 673 CURVE SMOOTH",
"320 408 OFFCURVE",
"532 227 OFFCURVE",
"782 227 CURVE SMOOTH",
"950 227 OFFCURVE",
"1074 297 OFFCURVE",
"1166 429 CURVE"
);
}
);
width = 1558;
}
);
unicode = 00A9;
},
{
color = (31,255,0,1);
glyphname = ordfeminine;
lastChange = "2018-01-18 17:35:03 +0000";
layers = (
{
layerId = UUID0;
paths = (
{
closed = 1;
nodes = (
"651 920 LINE",
"600 875 OFFCURVE",
"589 872 OFFCURVE",
"574 872 CURVE SMOOTH",
"553 872 OFFCURVE",
"544 880 OFFCURVE",
"543 902 CURVE",
"538 912 OFFCURVE",
"538 946 OFFCURVE",
"538 997 CURVE SMOOTH",
"538 1186 LINE SMOOTH",
"538 1299 OFFCURVE",
"508 1372 OFFCURVE",
"319 1372 CURVE SMOOTH",
"192 1372 OFFCURVE",
"77 1320 OFFCURVE",
"77 1235 CURVE SMOOTH",
"77 1198 OFFCURVE",
"98 1178 OFFCURVE",
"138 1178 CURVE SMOOTH",
"174 1178 OFFCURVE",
"199 1198 OFFCURVE",
"197 1235 CURVE SMOOTH",
"195 1270 LINE",
"199 1308 OFFCURVE",
"235 1337 OFFCURVE",
"294 1337 CURVE SMOOTH",
"378 1337 OFFCURVE",
"419 1299 OFFCURVE",
"419 1193 CURVE SMOOTH",
"419 1172 LINE",
"105 1081 OFFCURVE",
"51 1018 OFFCURVE",
"51 936 CURVE SMOOTH",
"51 852 OFFCURVE",
"115 797 OFFCURVE",
"209 797 CURVE SMOOTH",
"278 797 OFFCURVE",
"301 811 OFFCURVE",
"419 885 CURVE",
"419 816 OFFCURVE",
"453 797 OFFCURVE",
"496 797 CURVE SMOOTH",
"546 797 OFFCURVE",
"598 827 OFFCURVE",
"651 885 CURVE"
);
},
{
closed = 1;
nodes = (
"639 654 LINE",
"639 698 LINE",
"59 698 LINE",
"59 654 LINE"
);
},
{
closed = 1;
nodes = (
"419 926 LINE",
"359 885 OFFCURVE",
"310 861 OFFCURVE",
"274 864 CURVE SMOOTH",
"218 866 OFFCURVE",
"174 910 OFFCURVE",
"174 964 CURVE SMOOTH",
"174 1018 OFFCURVE",
"195 1063 OFFCURVE",
"419 1136 CURVE"
);
}
);
width = 653;
}
);
unicode = 00AA;
},
{
color = (31,255,0,1);
glyphname = guillemotleft;
lastChange = "2018-01-18 17:35:03 +0000";
layers = (
{
layerId = UUID0;
paths = (
{
closed = 1;
nodes = (
"960 -8 LINE",
"715 466 LINE",
"960 935 LINE",
"904 935 LINE",
"508 466 LINE",
"904 -8 LINE"
);
},
{
closed = 1;
nodes = (
"506 -8 LINE",
"262 466 LINE",
"506 935 LINE",
"451 935 LINE",
"64 466 LINE",
"451 -8 LINE"
);
}
);
width = 1026;
}
);
unicode = 00AB;
},
{
color = (31,255,0,1);
glyphname = logicalnot;
lastChange = "2018-01-18 17:35:03 +0000";
layers = (
{
layerId = UUID0;
paths = (
{
closed = 1;
nodes = (
"1143 373 LINE",
"1143 828 LINE",
"79 828 LINE",
"79 710 LINE",
"1026 710 LINE",
"1026 373 LINE"
);
}
);
width = 1222;
}
);
unicode = 00AC;
},
{
color = (31,255,0,1);
glyphname = sfthyphen;
lastChange = "2018-01-18 17:35:03 +0000";
layers = (
{
anchors = (
{
name = U;
position = "{343, 1000}";
}
);
layerId = UUID0;
paths = (
{
closed = 1;
nodes = (
"600 382 LINE",
"600 535 LINE",
"83 535 LINE",
"83 382 LINE"
);
}
);
width = 682;
}
);
unicode = 00AD;
},
{
color = (31,255,0,1);
glyphname = registered;
lastChange = "2018-01-18 17:35:03 +0000";
layers = (
{
layerId = UUID0;
paths = (
{
closed = 1;
nodes = (
"1490 1076 OFFCURVE",
"1180 1389 OFFCURVE",
"780 1389 CURVE SMOOTH",
"427 1389 OFFCURVE",
"69 1121 OFFCURVE",
"69 678 CURVE SMOOTH",
"69 273 OFFCURVE",
"389 -32 OFFCURVE",
"780 -32 CURVE SMOOTH",
"1172 -32 OFFCURVE",
"1490 278 OFFCURVE",
"1490 678 CURVE"
);
},
{
closed = 1;
nodes = (
"1427 301 OFFCURVE",
"1124 32 OFFCURVE",
"780 32 CURVE SMOOTH",
"429 32 OFFCURVE",
"132 305 OFFCURVE",
"132 678 CURVE SMOOTH",
"132 1079 OFFCURVE",
"461 1327 OFFCURVE",
"780 1327 CURVE SMOOTH",
"1136 1327 OFFCURVE",
"1427 1043 OFFCURVE",
"1427 678 CURVE"
);
},
{
closed = 1;
nodes = (
"1180 250 LINE",
"1180 284 LINE",
"1156 286 OFFCURVE",
"1138 290 OFFCURVE",
"1126 297 CURVE SMOOTH",
"1104 312 OFFCURVE",
"1084 331 OFFCURVE",
"1058 371 CURVE SMOOTH",
"850 668 LINE",
"929 689 OFFCURVE",
"1071 742 OFFCURVE",
"1071 891 CURVE SMOOTH",
"1071 1013 OFFCURVE",
"964 1115 OFFCURVE",
"774 1115 CURVE SMOOTH",
"386 1115 LINE",
"386 1079 LINE",
"416 1079 OFFCURVE",
"438 1074 OFFCURVE",
"450 1066 CURVE SMOOTH",
"463 1058 OFFCURVE",
"471 1044 OFFCURVE",
"475 1032 CURVE SMOOTH",
"477 1023 OFFCURVE",
"477 994 OFFCURVE",
"477 943 CURVE SMOOTH",
"477 420 LINE SMOOTH",
"477 369 OFFCURVE",
"477 329 OFFCURVE",
"461 310 CURVE SMOOTH",
"443 284 OFFCURVE",
"406 284 OFFCURVE",
"374 284 CURVE",
"374 250 LINE",
"742 250 LINE",
"742 284 LINE",
"698 284 OFFCURVE",
"666 289 OFFCURVE",
"653 297 CURVE SMOOTH",
"639 307 OFFCURVE",
"623 323 OFFCURVE",
"623 345 CURVE SMOOTH",
"623 654 LINE",
"700 654 LINE",
"994 250 LINE"
);
},
{
closed = 1;
nodes = (
"911 703 OFFCURVE",
"710 698 OFFCURVE",
"623 698 CURVE",
"623 1058 LINE",
"654 1066 OFFCURVE",
"682 1071 OFFCURVE",
"707 1071 CURVE SMOOTH",
"834 1071 OFFCURVE",
"911 981 OFFCURVE",
"911 880 CURVE"
);
}
);
width = 1558;
}
);
unicode = 00AE;
},
{
color = (31,255,0,1);
glyphname = overscore;
lastChange = "2018-01-18 17:35:03 +0000";
layers = (
{
layerId = UUID0;
paths = (
{
closed = 1;
nodes = (
"643 1126 LINE",
"643 1236 LINE",
"0 1236 LINE",
"0 1126 LINE"
);
}
);
width = 643;
}
);
unicode = 00AF;
},
{
color = (31,255,0,1);
glyphname = degree;
lastChange = "2018-01-18 17:35:03 +0000";
layers = (
{
layerId = UUID0;
paths = (
{
closed = 1;
nodes = (
"532 1322 OFFCURVE",
"436 1420 OFFCURVE",
"316 1420 CURVE SMOOTH",
"195 1420 OFFCURVE",
"98 1322 OFFCURVE",
"98 1203 CURVE SMOOTH",
"98 1082 OFFCURVE",
"195 986 OFFCURVE",
"316 986 CURVE SMOOTH",
"436 986 OFFCURVE",
"532 1082 OFFCURVE",
"532 1203 CURVE"
);
},
{
closed = 1;
nodes = (
"453 1126 OFFCURVE",
"393 1065 OFFCURVE",
"316 1065 CURVE SMOOTH",
"239 1065 OFFCURVE",
"177 1126 OFFCURVE",
"177 1203 CURVE SMOOTH",
"177 1280 OFFCURVE",
"239 1342 OFFCURVE",
"316 1342 CURVE SMOOTH",
"393 1342 OFFCURVE",
"453 1280 OFFCURVE",
"453 1203 CURVE"
);
}
);
width = 630;
}
);
unicode = 00B0;
},
{
color = (31,255,0,1);
glyphname = plusminus;
lastChange = "2018-01-18 17:35:03 +0000";
layers = (
{
layerId = UUID0;
paths = (
{
closed = 1;
nodes = (
"1577 705 LINE",
"1577 828 LINE",
"1046 828 LINE",
"1046 1183 LINE",
"926 1183 LINE",
"926 828 LINE",
"396 828 LINE",
"396 705 LINE",
"926 705 LINE",
"926 351 LINE",
"1046 351 LINE",
"1046 705 LINE"
);
},
{
closed = 1;
nodes = (
"1577 0 LINE",
"1577 122 LINE",
"396 122 LINE",
"396 0 LINE"
);
}
);
width = 1972;
}
);
unicode = 00B1;
},
{
color = (31,255,0,1);
glyphname = twosuperior;
lastChange = "2018-01-18 17:35:03 +0000";
layers = (
{
anchors = (
{
name = L;
position = "{354, 750}";
},
{
name = U;
position = "{354, 1626}";
}
);
layerId = UUID0;
paths = (
{
closed = 1;
nodes = (
"676 961 LINE",
"651 961 LINE",
"605 910 OFFCURVE",
"589 897 OFFCURVE",
"443 897 CURVE SMOOTH",
"186 897 LINE",
"215 920 OFFCURVE",
"290 986 OFFCURVE",
"408 1095 CURVE SMOOTH",
"489 1166 OFFCURVE",
"618 1296 OFFCURVE",
"618 1424 CURVE SMOOTH",
"618 1558 OFFCURVE",
"477 1639 OFFCURVE",
"337 1639 CURVE SMOOTH",
"122 1639 OFFCURVE",
"74 1482 OFFCURVE",
"61 1408 CURVE",
"87 1408 LINE",
"105 1452 OFFCURVE",
"164 1547 OFFCURVE",
"299 1547 CURVE SMOOTH",
"361 1547 OFFCURVE",
"493 1509 OFFCURVE",
"493 1368 CURVE SMOOTH",
"493 1302 OFFCURVE",
"458 1227 OFFCURVE",
"391 1145 CURVE SMOOTH",
"321 1063 OFFCURVE",
"199 958 OFFCURVE",
"32 828 CURVE",
"32 806 LINE",
"607 806 LINE"
);
}
);
width = 737;
}
);
unicode = 00B2;
},
{
color = (31,255,0,1);
glyphname = threesuperior;
lastChange = "2018-01-18 17:35:03 +0000";
layers = (
{
anchors = (
{
name = L;
position = "{338, 750}";
},
{
name = U;
position = "{338, 1626}";
}
);
layerId = UUID0;
paths = (
{
closed = 1;
nodes = (
"615 1213 OFFCURVE",
"497 1270 OFFCURVE",
"435 1289 CURVE",
"523 1352 OFFCURVE",
"566 1413 OFFCURVE",
"566 1473 CURVE SMOOTH",
"566 1515 OFFCURVE",
"528 1639 OFFCURVE",
"339 1639 CURVE SMOOTH",
"162 1639 OFFCURVE",
"102 1517 OFFCURVE",
"75 1466 CURVE",
"98 1455 LINE",
"148 1523 OFFCURVE",
"212 1556 OFFCURVE",
"286 1556 CURVE SMOOTH",
"351 1556 OFFCURVE",
"448 1524 OFFCURVE",
"448 1419 CURVE SMOOTH",
"448 1267 OFFCURVE",
"260 1233 OFFCURVE",
"224 1228 CURVE",
"224 1211 LINE",
"224 1211 OFFCURVE",
"508 1219 OFFCURVE",
"508 1004 CURVE SMOOTH",
"508 907 OFFCURVE",
"412 844 OFFCURVE",
"325 844 CURVE SMOOTH",
"227 844 OFFCURVE",
"190 899 OFFCURVE",
"118 899 CURVE SMOOTH",
"87 899 OFFCURVE",
"61 881 OFFCURVE",
"61 858 CURVE SMOOTH",
"61 839 OFFCURVE",
"67 792 OFFCURVE",
"229 792 CURVE SMOOTH",
"467 792 OFFCURVE",
"615 910 OFFCURVE",
"615 1076 CURVE"
);
}
);
width = 737;
}
);
unicode = 00B3;
},
{
color = (31,255,0,1);
glyphname = acute;
lastChange = "2018-01-18 17:35:03 +0000";
layers = (
{
anchors = (
{
name = U;
position = "{471, 1375}";
}
);
layerId = UUID0;
paths = (
{
closed = 1;
nodes = (
"703 1358 OFFCURVE",
"670 1396 OFFCURVE",
"650 1396 CURVE SMOOTH",
"605 1396 OFFCURVE",
"560 1365 OFFCURVE",
"526 1328 CURVE SMOOTH",
"241 1043 LINE",
"323 1043 LINE",
"620 1230 LINE SMOOTH",
"662 1258 OFFCURVE",
"703 1291 OFFCURVE",
"703 1331 CURVE"
);
}
);
width = 703;
}
);
unicode = 00B4;
},
{
color = (31,255,0,1);
glyphname = micro;
lastChange = "2018-01-18 17:35:03 +0000";
layers = (
{
layerId = UUID0;
paths = (
{
closed = 1;
nodes = (
"1044 207 LINE",
"1026 112 OFFCURVE",
"1004 83 OFFCURVE",
"961 83 CURVE SMOOTH",
"926 83 OFFCURVE",
"896 87 OFFCURVE",
"896 264 CURVE SMOOTH",
"896 914 LINE",
"728 914 LINE",
"728 229 LINE",
"650 140 OFFCURVE",
"570 94 OFFCURVE",
"493 94 CURVE SMOOTH",
"429 94 OFFCURVE",
"384 136 OFFCURVE",
"369 186 CURVE SMOOTH",
"358 220 OFFCURVE",
"351 284 OFFCURVE",
"351 382 CURVE SMOOTH",
"351 914 LINE",
"189 914 LINE",
"189 192 LINE SMOOTH",
"189 -189 OFFCURVE",
"124 -212 OFFCURVE",
"124 -335 CURVE SMOOTH",
"124 -398 OFFCURVE",
"166 -444 OFFCURVE",
"212 -444 CURVE SMOOTH",
"260 -444 OFFCURVE",
"305 -397 OFFCURVE",
"305 -331 CURVE SMOOTH",
"305 -251 OFFCURVE",
"258 -116 OFFCURVE",
"258 10 CURVE SMOOTH",
"258 57 LINE",
"307 -26 OFFCURVE",
"384 -30 OFFCURVE",
"414 -30 CURVE SMOOTH",
"520 -30 OFFCURVE",
"615 32 OFFCURVE",
"728 162 CURVE",
"747 13 OFFCURVE",
"806 -30 OFFCURVE",
"885 -30 CURVE SMOOTH",
"988 -30 OFFCURVE",
"1073 38 OFFCURVE",
"1084 207 CURVE"
);
}
);
width = 1161;
}
);
unicode = 00B5;
},
{
color = (31,255,0,1);
glyphname = paragraph;
lastChange = "2018-01-18 17:35:03 +0000";
layers = (
{
layerId = UUID0;
paths = (
{
closed = 1;
nodes = (
"934 1302 LINE",
"934 1357 LINE",
"438 1357 LINE SMOOTH",
"222 1357 OFFCURVE",
"-13 1272 OFFCURVE",
"-13 982 CURVE SMOOTH",
"-13 668 OFFCURVE",
"237 609 OFFCURVE",
"467 604 CURVE",
"467 -444 LINE",
"540 -444 LINE",
"540 1302 LINE",
"727 1302 LINE",
"727 -444 LINE",
"800 -444 LINE",
"800 1302 LINE"
);
}
);
width = 929;
}
);
unicode = 00B6;
},
{
color = (31,255,0,1);
glyphname = periodcentered;
lastChange = "2018-01-18 17:35:03 +0000";
layers = (
{
layerId = UUID0;
paths = (
{
closed = 1;
nodes = (
"301 735 OFFCURVE",
"250 787 OFFCURVE",
"186 787 CURVE SMOOTH",
"120 787 OFFCURVE",
"69 735 OFFCURVE",
"69 670 CURVE SMOOTH",
"69 605 OFFCURVE",
"120 553 OFFCURVE",
"186 553 CURVE SMOOTH",
"250 553 OFFCURVE",
"301 605 OFFCURVE",
"301 670 CURVE"
);
}
);
width = 371;
}
);
unicode = 00B7;
},
{
color = (31,255,0,1);
glyphname = bulletOperator;
lastChange = "2018-01-18 17:35:03 +0000";
layers = (
{
layerId = UUID0;
paths = (
{
closed = 1;
nodes = (
"346 845 OFFCURVE",
"287 904 OFFCURVE",
"214 904 CURVE SMOOTH",
"138 904 OFFCURVE",
"79 845 OFFCURVE",
"79 770 CURVE SMOOTH",
"79 696 OFFCURVE",
"138 636 OFFCURVE",
"214 636 CURVE SMOOTH",
"287 636 OFFCURVE",
"346 696 OFFCURVE",
"346 770 CURVE SMOOTH"
);
}
);
width = 427;
}
);
unicode = 2219;
},
{
color = (31,255,0,1);
glyphname = cedilla;
lastChange = "2018-01-18 17:35:03 +0000";
layers = (
{
anchors = (
{
name = L;
position = "{214, -500}";
}
);
layerId = UUID0;
paths = (
{
closed = 1;
nodes = (
"429 -171 OFFCURVE",
"346 -128 OFFCURVE",
"258 -128 CURVE SMOOTH",
"237 -128 OFFCURVE",
"217 -130 OFFCURVE",
"199 -135 CURVE",
"262 25 LINE",
"189 25 LINE",
"92 -204 LINE",
"109 -215 LINE",
"136 -207 OFFCURVE",
"169 -202 OFFCURVE",
"201 -205 CURVE SMOOTH",
"246 -209 OFFCURVE",
"276 -237 OFFCURVE",
"276 -284 CURVE SMOOTH",
"276 -342 OFFCURVE",
"232 -371 OFFCURVE",
"156 -371 CURVE SMOOTH",
"122 -371 OFFCURVE",
"66 -359 OFFCURVE",
"30 -345 CURVE",
"0 -411 LINE",
"51 -427 OFFCURVE",
"110 -443 OFFCURVE",
"166 -443 CURVE SMOOTH",
"296 -443 OFFCURVE",
"429 -379 OFFCURVE",
"429 -270 CURVE SMOOTH"
);
}
);
width = 429;
}
);
unicode = 00B8;
},
{
color = (31,255,0,1);
glyphname = onesuperior;
lastChange = "2018-01-18 17:35:03 +0000";
layers = (
{
anchors = (
{
name = L;
position = "{366, 750}";
},
{
name = U;
position = "{366, 1626}";
}
);
layerId = UUID0;
paths = (
{
closed = 1;
nodes = (
"558 806 LINE",
"558 828 LINE",
"436 828 OFFCURVE",
"436 846 OFFCURVE",
"436 950 CURVE SMOOTH",
"436 1639 LINE",
"411 1639 LINE",
"174 1543 LINE",
"183 1523 LINE",
"327 1577 OFFCURVE",
"316 1497 OFFCURVE",
"316 1390 CURVE SMOOTH",
"316 950 LINE SMOOTH",
"316 849 OFFCURVE",
"312 828 OFFCURVE",
"190 828 CURVE",
"190 806 LINE"
);
}
);
width = 737;
}
);
unicode = 00B9;
},
{
color = (31,255,0,1);
glyphname = ordmasculine;
lastChange = "2018-01-18 17:35:03 +0000";
layers = (
{
layerId = UUID0;
paths = (
{
closed = 1;
nodes = (
"695 1248 OFFCURVE",
"566 1372 OFFCURVE",
"376 1372 CURVE SMOOTH",
"177 1372 OFFCURVE",
"57 1225 OFFCURVE",
"57 1076 CURVE SMOOTH",
"57 922 OFFCURVE",
"186 789 OFFCURVE",
"371 789 CURVE SMOOTH",
"585 789 OFFCURVE",
"695 950 OFFCURVE",
"695 1092 CURVE"
);
},
{
closed = 1;
nodes = (
"684 654 LINE",
"684 698 LINE",
"69 698 LINE",
"69 654 LINE"
);
},
{
closed = 1;
nodes = (
"560 888 OFFCURVE",
"496 833 OFFCURVE",
"400 833 CURVE SMOOTH",
"274 833 OFFCURVE",
"192 968 OFFCURVE",
"192 1126 CURVE SMOOTH",
"192 1286 OFFCURVE",
"281 1335 OFFCURVE",
"355 1335 CURVE SMOOTH",
"481 1335 OFFCURVE",
"560 1209 OFFCURVE",
"560 1044 CURVE"
);
}
);
width = 751;
}
);
unicode = 00BA;
},
{
color = (31,255,0,1);
glyphname = guillemotright;
lastChange = "2018-01-18 17:35:03 +0000";
layers = (
{
layerId = UUID0;
paths = (
{
closed = 1;
nodes = (
"961 463 LINE",
"574 935 LINE",
"520 935 LINE",
"764 463 LINE",
"520 -8 LINE",
"574 -8 LINE"
);
},
{
closed = 1;
nodes = (
"517 463 LINE",
"122 935 LINE",
"66 935 LINE",
"310 463 LINE",
"66 -8 LINE",
"122 -8 LINE"
);
}
);
width = 1026;
}
);
unicode = 00BB;
},
{
color = (31,255,0,1);
glyphname = onequarter;
lastChange = "2018-01-18 17:35:03 +0000";
layers = (
{
layerId = UUID0;
paths = (
{
closed = 1;
nodes = (
"1352 212 LINE",
"1352 296 LINE",
"1243 296 LINE",
"1243 833 LINE",
"1178 833 LINE",
"795 286 LINE",
"795 212 LINE",
"1143 212 LINE",
"1143 -8 LINE",
"1243 -8 LINE",
"1243 212 LINE"
);
},
{
closed = 1;
nodes = (
"1278 1382 LINE",
"1186 1382 LINE",
"252 -15 LINE",
"351 -15 LINE"
);
},
{
closed = 1;
nodes = (
"491 526 LINE",
"491 549 LINE",
"386 549 OFFCURVE",
"386 565 OFFCURVE",
"386 670 CURVE SMOOTH",
"386 1365 LINE",
"366 1365 LINE",
"166 1267 LINE",
"174 1245 LINE",
"297 1304 OFFCURVE",
"286 1222 OFFCURVE",
"286 1112 CURVE SMOOTH",
"286 670 LINE SMOOTH",
"286 565 OFFCURVE",
"282 549 OFFCURVE",
"179 549 CURVE",
"179 526 LINE"
);
},
{
closed = 1;
nodes = (
"1143 296 LINE",
"854 296 LINE",
"1143 704 LINE"
);
}
);
width = 1519;
}
);
unicode = 00BC;
},
{
color = (31,255,0,1);
glyphname = onehalf;
lastChange = "2018-01-18 17:35:03 +0000";
layers = (
{
layerId = UUID0;
paths = (
{
closed = 1;
nodes = (
"1382 149 LINE",
"1358 149 LINE",
"1320 97 OFFCURVE",
"1308 85 OFFCURVE",
"1183 85 CURVE SMOOTH",
"968 85 LINE",
"994 107 OFFCURVE",
"1056 174 OFFCURVE",
"1156 282 CURVE SMOOTH",
"1225 358 OFFCURVE",
"1331 488 OFFCURVE",
"1331 615 CURVE SMOOTH",
"1331 751 OFFCURVE",
"1213 833 OFFCURVE",
"1097 833 CURVE SMOOTH",
"914 833 OFFCURVE",
"872 674 OFFCURVE",
"864 601 CURVE",
"883 601 LINE",
"899 647 OFFCURVE",
"949 739 OFFCURVE",
"1065 739 CURVE SMOOTH",
"1115 739 OFFCURVE",
"1227 700 OFFCURVE",
"1227 560 CURVE SMOOTH",
"1227 491 OFFCURVE",
"1197 416 OFFCURVE",
"1140 333 CURVE SMOOTH",
"1081 250 OFFCURVE",
"981 146 OFFCURVE",
"837 15 CURVE",
"837 -8 LINE",
"1322 -8 LINE"
);
},
{
closed = 1;
nodes = (
"1195 1382 LINE",
"1098 1382 LINE",
"235 -15 LINE",
"333 -15 LINE"
);
},
{
closed = 1;
nodes = (
"461 526 LINE",
"461 549 LINE",
"358 549 OFFCURVE",
"358 565 OFFCURVE",
"358 670 CURVE SMOOTH",
"358 1365 LINE",
"335 1365 LINE",
"136 1267 LINE",
"144 1245 LINE",
"269 1304 OFFCURVE",
"256 1222 OFFCURVE",
"256 1112 CURVE SMOOTH",
"256 670 LINE SMOOTH",
"256 565 OFFCURVE",
"252 549 OFFCURVE",
"149 549 CURVE",
"149 526 LINE"
);
}
);
width = 1519;
}
);
unicode = 00BD;
},
{
color = (31,255,0,1);
glyphname = threequarters;
lastChange = "2018-01-18 17:35:03 +0000";
layers = (
{
layerId = UUID0;
paths = (
{
closed = 1;
nodes = (
"1379 212 LINE",
"1379 296 LINE",
"1270 296 LINE",
"1270 833 LINE",
"1203 833 LINE",
"820 286 LINE",
"820 212 LINE",
"1168 212 LINE",
"1168 -8 LINE",
"1270 -8 LINE",
"1270 212 LINE"
);
},
{
closed = 1;
nodes = (
"1322 1382 LINE",
"1230 1382 LINE",
"297 -15 LINE",
"397 -15 LINE"
);
},
{
closed = 1;
nodes = (
"607 935 OFFCURVE",
"506 991 OFFCURVE",
"455 1012 CURVE",
"528 1076 OFFCURVE",
"566 1138 OFFCURVE",
"566 1197 CURVE SMOOTH",
"566 1241 OFFCURVE",
"535 1365 OFFCURVE",
"374 1365 CURVE SMOOTH",
"224 1365 OFFCURVE",
"177 1241 OFFCURVE",
"152 1189 CURVE",
"174 1180 LINE",
"215 1245 OFFCURVE",
"269 1280 OFFCURVE",
"331 1280 CURVE SMOOTH",
"384 1280 OFFCURVE",
"466 1248 OFFCURVE",
"466 1142 CURVE SMOOTH",
"466 989 OFFCURVE",
"310 954 OFFCURVE",
"278 950 CURVE",
"278 931 LINE",
"278 931 OFFCURVE",
"520 941 OFFCURVE",
"520 722 CURVE SMOOTH",
"520 626 OFFCURVE",
"436 562 OFFCURVE",
"366 562 CURVE SMOOTH",
"281 562 OFFCURVE",
"248 618 OFFCURVE",
"190 618 CURVE SMOOTH",
"164 618 OFFCURVE",
"140 600 OFFCURVE",
"140 576 CURVE SMOOTH",
"140 558 OFFCURVE",
"146 508 OFFCURVE",
"282 508 CURVE SMOOTH",
"483 508 OFFCURVE",
"607 627 OFFCURVE",
"607 797 CURVE"
);
},
{
closed = 1;
nodes = (
"1168 296 LINE",
"880 296 LINE",
"1168 704 LINE"
);
}
);
width = 1519;
}
);
unicode = 00BE;
},
{
color = (31,255,0,1);
glyphname = uni2074;
lastChange = "2018-01-18 17:35:03 +0000";
layers = (
{
anchors = (
{
name = L;
position = "{354, 750}";
},
{
name = U;
position = "{354, 1626}";
}
);
layerId = UUID0;
paths = (
{
closed = 1;
nodes = (
"687 1021 LINE",
"687 1106 LINE",
"557 1106 LINE",
"557 1639 LINE",
"477 1639 LINE",
"22 1098 LINE",
"22 1021 LINE",
"438 1021 LINE",
"438 806 LINE",
"557 806 LINE",
"557 1021 LINE"
);
},
{
closed = 1;
nodes = (
"438 1106 LINE",
"92 1106 LINE",
"438 1512 LINE"
);
}
);
width = 737;
}
);
unicode = 2074;
},
{
color = (31,255,0,1);
glyphname = questiondown;
lastChange = "2018-01-18 17:35:03 +0000";
layers = (
{
layerId = UUID0;
paths = (
{
closed = 1;
nodes = (
"577 934 OFFCURVE",
"521 974 OFFCURVE",
"463 974 CURVE SMOOTH",
"412 974 OFFCURVE",
"353 935 OFFCURVE",
"353 861 CURVE SMOOTH",
"353 795 OFFCURVE",
"408 750 OFFCURVE",
"463 750 CURVE SMOOTH",
"523 750 OFFCURVE",
"577 797 OFFCURVE",
"577 861 CURVE"
);
},
{
closed = 1;
nodes = (
"812 -24 OFFCURVE",
"729 3 OFFCURVE",
"703 3 CURVE SMOOTH",
"666 3 OFFCURVE",
"621 -26 OFFCURVE",
"621 -83 CURVE SMOOTH",
"621 -128 OFFCURVE",
"684 -199 OFFCURVE",
"684 -254 CURVE SMOOTH",
"684 -314 OFFCURVE",
"623 -386 OFFCURVE",
"496 -386 CURVE SMOOTH",
"391 -386 OFFCURVE",
"262 -312 OFFCURVE",
"262 -112 CURVE SMOOTH",
"262 -6 OFFCURVE",
"316 118 OFFCURVE",
"358 189 CURVE SMOOTH",
"446 335 OFFCURVE",
"485 467 OFFCURVE",
"493 627 CURVE",
"450 627 LINE",
"443 440 OFFCURVE",
"374 366 OFFCURVE",
"233 205 CURVE SMOOTH",
"171 136 OFFCURVE",
"77 26 OFFCURVE",
"77 -126 CURVE SMOOTH",
"77 -323 OFFCURVE",
"235 -443 OFFCURVE",
"451 -443 CURVE SMOOTH",
"684 -443 OFFCURVE",
"812 -304 OFFCURVE",
"812 -154 CURVE"
);
}
);
width = 911;
}
);
unicode = 00BF;
},
{
color = (31,255,0,1);
glyphname = uni02D0;
lastChange = "2018-01-18 17:35:03 +0000";
layers = (
{
anchors = (
{
name = L;
position = "{215, -100}";
},
{
name = U;
position = "{215, 1000}";
}
);
layerId = UUID0;
paths = (
{
closed = 1;
nodes = (
"353 917 LINE",
"75 917 LINE",
"167 604 LINE",
"262 604 LINE"
);
},
{
closed = 1;
nodes = (
"353 0 LINE",
"262 314 LINE",
"167 314 LINE",
"75 0 LINE"
);
}
);
width = 427;
}
);
unicode = 02D0;
},
{
color = (31,255,0,1);
glyphname = Agrave;
lastChange = "2018-01-18 17:35:03 +0000";
layers = (
{
background = {
paths = (
{
closed = 1;
nodes = (
"922 0 LINE",
"922 38 LINE",
"993 39 LINE",
"1053 78 LINE",
"1063 140 LINE",
"1036 219 LINE",
"1019 260 LINE",
"938 455 LINE",
"412 455 LINE",
"320 239 LINE",
"301 193 LINE",
"281 123 LINE",
"302 73 LINE",
"373 44 LINE",
"444 38 LINE",
"444 0 LINE",
"15 0 LINE",
"15 38 LINE",
"58 41 LINE",
"122 72 LINE",
"173 130 LINE",
"217 215 LINE",
"241 270 LINE",
"717 1388 LINE",
"753 1388 LINE",
"1224 260 LINE",
"1254 189 LINE",
"1302 104 LINE",
"1353 58 LINE",
"1414 41 LINE",
"1456 38 LINE",
"1456 0 LINE"
);
},
{
closed = 1;
nodes = (
"680 1078 LINE",
"444 528 LINE",
"910 528 LINE"
);
},
{
closed = 1;
nodes = (
"912 1477 LINE",
"628 1763 LINE SMOOTH",
"591 1801 OFFCURVE",
"543 1830 OFFCURVE",
"509 1830 CURVE SMOOTH",
"469 1830 OFFCURVE",
"445 1801 OFFCURVE",
"445 1753 CURVE SMOOTH",
"445 1718 OFFCURVE",
"500 1686 OFFCURVE",
"534 1665 CURVE SMOOTH",
"829 1477 LINE"
);
}
);
};
components = (
{
name = A;
},
{
name = gravecomb;
transform = "{1, 0, 0, 1, 1250, 435}";
}
);
layerId = UUID0;
width = 1473;
}
);
unicode = 00C0;
},
{
color = (31,255,0,1);
glyphname = Aacute;
lastChange = "2018-01-18 17:35:03 +0000";
layers = (
{
background = {
paths = (
{
closed = 1;
nodes = (
"922 0 LINE",
"922 38 LINE",
"993 39 LINE",
"1053 78 LINE",
"1063 140 LINE",
"1036 219 LINE",
"1019 260 LINE",
"938 455 LINE",
"412 455 LINE",
"320 239 LINE",
"301 193 LINE",
"281 123 LINE",
"302 73 LINE",
"373 44 LINE",
"444 38 LINE",
"444 0 LINE",
"15 0 LINE",
"15 38 LINE",
"58 41 LINE",
"122 72 LINE",
"173 130 LINE",
"217 215 LINE",
"241 270 LINE",
"717 1388 LINE",
"753 1388 LINE",
"1224 260 LINE",
"1254 189 LINE",
"1302 104 LINE",
"1353 58 LINE",
"1414 41 LINE",
"1456 38 LINE",
"1456 0 LINE"
);
},
{
closed = 1;
nodes = (
"680 1078 LINE",
"444 528 LINE",
"910 528 LINE"
);
},
{
closed = 1;
nodes = (
"1022 1793 OFFCURVE",
"990 1830 OFFCURVE",
"969 1830 CURVE SMOOTH",
"925 1830 OFFCURVE",
"880 1799 OFFCURVE",
"845 1763 CURVE SMOOTH",
"561 1477 LINE",
"643 1477 LINE",
"939 1665 LINE SMOOTH",
"982 1693 OFFCURVE",
"1022 1726 OFFCURVE",
"1022 1765 CURVE"
);
}
);
};
components = (
{
name = A;
},
{
name = acutecomb;
transform = "{1, 0, 0, 1, 1248, 430}";
}
);
layerId = UUID0;
width = 1473;
}
);
unicode = 00C1;
},
{
color = (31,255,0,1);
glyphname = Acircumflex;
lastChange = "2018-01-18 17:35:03 +0000";
layers = (
{
background = {
paths = (
{
closed = 1;
nodes = (
"922 0 LINE",
"922 38 LINE",
"993 39 LINE",
"1053 78 LINE",
"1063 140 LINE",
"1036 219 LINE",
"1019 260 LINE",
"938 455 LINE",
"412 455 LINE",
"320 239 LINE",
"301 193 LINE",
"281 123 LINE",
"302 73 LINE",
"373 44 LINE",
"444 38 LINE",
"444 0 LINE",
"15 0 LINE",
"15 38 LINE",
"58 41 LINE",
"122 72 LINE",
"173 130 LINE",
"217 215 LINE",
"241 270 LINE",
"717 1388 LINE",
"753 1388 LINE",
"1224 260 LINE",
"1254 189 LINE",
"1302 104 LINE",
"1353 58 LINE",
"1414 41 LINE",
"1456 38 LINE",
"1456 0 LINE"
);
},
{
closed = 1;
nodes = (
"680 1078 LINE",
"444 528 LINE",
"910 528 LINE"
);
},
{
closed = 1;
nodes = (
"986 1477 LINE",
"735 1691 LINE",
"485 1477 LINE",
"414 1477 LINE",
"672 1821 LINE",
"800 1821 LINE",
"1057 1477 LINE"
);
}
);
};
components = (
{
name = A;
},
{
name = uni0302;
transform = "{1, 0, 0, 1, 1241, 430}";
}
);
layerId = UUID0;
width = 1473;
}
);
unicode = 00C2;
},
{
color = (31,255,0,1);
glyphname = Atilde;
lastChange = "2018-01-18 17:35:03 +0000";
layers = (
{
background = {
paths = (
{
closed = 1;
nodes = (
"922 0 LINE",
"922 38 LINE",
"993 39 LINE",
"1053 78 LINE",
"1063 140 LINE",
"1036 219 LINE",
"1019 260 LINE",
"938 455 LINE",
"412 455 LINE",
"320 239 LINE",
"301 193 LINE",
"281 123 LINE",
"302 73 LINE",
"373 44 LINE",
"444 38 LINE",
"444 0 LINE",
"15 0 LINE",
"15 38 LINE",
"58 41 LINE",
"122 72 LINE",
"173 130 LINE",
"217 215 LINE",
"241 270 LINE",
"717 1388 LINE",
"753 1388 LINE",
"1224 260 LINE",
"1254 189 LINE",
"1302 104 LINE",
"1353 58 LINE",
"1414 41 LINE",
"1456 38 LINE",
"1456 0 LINE"
);
},
{
closed = 1;
nodes = (
"680 1078 LINE",
"444 528 LINE",
"910 528 LINE"
);
},
{
closed = 1;
nodes = (
"1076 1779 LINE",
"1072 1738 LINE",
"1035 1659 LINE",
"977 1598 LINE",
"902 1560 LINE",
"859 1560 LINE",
"822 1560 LINE",
"767 1574 LINE",
"723 1595 LINE",
"686 1620 LINE",
"645 1641 LINE",
"596 1655 LINE",
"563 1655 LINE",
"543 1655 LINE",
"503 1638 LINE",
"471 1611 LINE",
"449 1577 LINE",
"447 1560 LINE",
"394 1560 LINE",
"405 1604 LINE",
"442 1681 LINE",
"497 1737 LINE",
"573 1769 LINE",
"621 1769 LINE",
"660 1769 LINE",
"721 1741 LINE",
"780 1706 LINE",
"842 1678 LINE",
"881 1678 LINE",
"905 1678 LINE",
"951 1691 LINE",
"989 1717 LINE",
"1016 1755 LINE",
"1022 1779 LINE"
);
}
);
};
components = (
{
name = A;
},
{
name = tildecomb;
transform = "{1, 0, 0, 1, 1245, 440}";
}
);
layerId = UUID0;
width = 1473;
}
);
unicode = 00C3;
},
{
color = (31,255,0,1);
glyphname = Adieresis;
lastChange = "2018-01-18 17:35:03 +0000";
layers = (
{
background = {
paths = (
{
closed = 1;
nodes = (
"922 0 LINE",
"922 38 LINE",
"993 39 LINE",
"1053 78 LINE",
"1063 140 LINE",
"1036 219 LINE",
"1019 260 LINE",
"938 455 LINE",
"412 455 LINE",
"320 239 LINE",
"301 193 LINE",
"281 123 LINE",
"302 73 LINE",
"373 44 LINE",
"444 38 LINE",
"444 0 LINE",
"15 0 LINE",
"15 38 LINE",
"58 41 LINE",
"122 72 LINE",
"173 130 LINE",
"217 215 LINE",
"241 270 LINE",
"717 1388 LINE",
"753 1388 LINE",
"1224 260 LINE",
"1254 189 LINE",
"1302 104 LINE",
"1353 58 LINE",
"1414 41 LINE",
"1456 38 LINE",
"1456 0 LINE"
);
},
{
closed = 1;
nodes = (
"680 1078 LINE",
"444 528 LINE",
"910 528 LINE"
);
},
{
closed = 1;
nodes = (
"1042 1718 OFFCURVE",
"995 1765 OFFCURVE",
"939 1765 CURVE SMOOTH",
"888 1765 OFFCURVE",
"837 1714 OFFCURVE",
"837 1663 CURVE SMOOTH",
"837 1610 OFFCURVE",
"884 1560 OFFCURVE",
"939 1560 CURVE SMOOTH",
"995 1560 OFFCURVE",
"1042 1608 OFFCURVE",
"1042 1663 CURVE"
);
},
{
closed = 1;
nodes = (
"632 1718 OFFCURVE",
"585 1765 OFFCURVE",
"529 1765 CURVE SMOOTH",
"478 1765 OFFCURVE",
"429 1714 OFFCURVE",
"429 1663 CURVE SMOOTH",
"429 1610 OFFCURVE",
"476 1560 OFFCURVE",
"529 1560 CURVE SMOOTH",
"585 1560 OFFCURVE",
"632 1608 OFFCURVE",
"632 1663 CURVE"
);
}
);
};
components = (
{
name = A;
},
{
name = uni0308;
transform = "{1, 0, 0, 1, 1250, 440}";
}
);
layerId = UUID0;
width = 1473;
}
);
unicode = 00C4;
},
{
color = (31,255,0,1);
glyphname = Aring;
lastChange = "2018-01-18 17:35:03 +0000";
layers = (
{
background = {
paths = (
{
closed = 1;
nodes = (
"922 0 LINE",
"922 38 LINE",
"993 39 LINE",
"1053 78 LINE",
"1063 140 LINE",
"1036 219 LINE",
"1019 260 LINE",
"938 455 LINE",
"412 455 LINE",
"320 239 LINE",
"301 193 LINE",
"281 123 LINE",
"302 73 LINE",
"373 44 LINE",
"444 38 LINE",
"444 0 LINE",
"15 0 LINE",
"15 38 LINE",
"58 41 LINE",
"122 72 LINE",
"173 130 LINE",
"217 215 LINE",
"241 270 LINE",
"717 1388 LINE",
"753 1388 LINE",
"1224 260 LINE",
"1254 189 LINE",
"1302 104 LINE",
"1353 58 LINE",
"1414 41 LINE",
"1456 38 LINE",
"1456 0 LINE"
);
},
{
closed = 1;
nodes = (
"680 1078 LINE",
"444 528 LINE",
"910 528 LINE"
);
},
{
closed = 1;
nodes = (
"926 1787 OFFCURVE",
"832 1860 OFFCURVE",
"737 1860 CURVE SMOOTH",
"634 1860 OFFCURVE",
"544 1783 OFFCURVE",
"544 1669 CURVE SMOOTH",
"544 1554 OFFCURVE",
"642 1477 OFFCURVE",
"737 1477 CURVE SMOOTH",
"832 1477 OFFCURVE",
"926 1554 OFFCURVE",
"926 1669 CURVE"
);
},
{
closed = 1;
nodes = (
"858 1603 OFFCURVE",
"804 1547 OFFCURVE",
"737 1547 CURVE SMOOTH",
"674 1547 OFFCURVE",
"613 1592 OFFCURVE",
"613 1669 CURVE SMOOTH",
"613 1742 OFFCURVE",
"670 1791 OFFCURVE",
"737 1791 CURVE SMOOTH",
"798 1791 OFFCURVE",
"858 1742 OFFCURVE",
"858 1669 CURVE"
);
}
);
};
components = (
{
name = A;
},
{
name = uni030A;
transform = "{1, 0, 0, 1, 1243, 438}";
}
);
layerId = UUID0;
width = 1473;
}
);
unicode = 00C5;
},
{
color = (31,255,0,1);
glyphname = AE;
lastChange = "2018-01-18 17:35:03 +0000";
layers = (
{
anchors = (
{
name = L;
position = "{871, -100}";
},
{
name = U;
position = "{871, 1435}";
}
);
layerId = UUID0;
paths = (
{
closed = 1;
nodes = (
"1765 343 LINE",
"1728 343 LINE",
"1636 152 OFFCURVE",
"1551 74 OFFCURVE",
"1325 74 CURVE SMOOTH",
"1143 74 LINE SMOOTH",
"1065 74 OFFCURVE",
"1046 97 OFFCURVE",
"1035 115 CURVE SMOOTH",
"1026 128 OFFCURVE",
"1027 169 OFFCURVE",
"1027 222 CURVE SMOOTH",
"1027 673 LINE",
"1286 673 LINE SMOOTH",
"1457 673 OFFCURVE",
"1482 632 OFFCURVE",
"1503 474 CURVE",
"1538 474 LINE",
"1538 943 LINE",
"1503 943 LINE",
"1490 798 OFFCURVE",
"1442 747 OFFCURVE",
"1286 747 CURVE SMOOTH",
"1027 747 LINE",
"1027 1283 LINE",
"1360 1283 LINE SMOOTH",
"1564 1283 OFFCURVE",
"1586 1245 OFFCURVE",
"1626 1061 CURVE",
"1658 1061 LINE",
"1643 1357 LINE",
"530 1357 LINE",
"530 1320 LINE",
"673 1313 OFFCURVE",
"704 1283 OFFCURVE",
"704 1239 CURVE SMOOTH",
"704 1206 OFFCURVE",
"678 1140 OFFCURVE",
"627 1044 CURVE SMOOTH",
"213 274 LINE SMOOTH",
"136 132 OFFCURVE",
"90 79 OFFCURVE",
"51 55 CURVE SMOOTH",
"32 43 OFFCURVE",
"6 38 OFFCURVE",
"-24 38 CURVE",
"-24 0 LINE",
"402 0 LINE",
"402 38 LINE",
"337 43 OFFCURVE",
"296 53 OFFCURVE",
"274 67 CURVE SMOOTH",
"220 100 OFFCURVE",
"241 154 OFFCURVE",
"316 292 CURVE SMOOTH",
"440 526 LINE",
"835 526 LINE",
"835 241 LINE SMOOTH",
"835 158 OFFCURVE",
"828 107 OFFCURVE",
"812 87 CURVE SMOOTH",
"784 53 OFFCURVE",
"745 38 OFFCURVE",
"689 38 CURVE SMOOTH",
"639 38 LINE",
"639 0 LINE",
"1658 0 LINE"
);
},
{
closed = 1;
nodes = (
"835 600 LINE",
"477 600 LINE",
"835 1283 LINE"
);
}
);
width = 1824;
}
);
unicode = 00C6;
},
{
color = (31,255,0,1);
glyphname = Ccedilla;
lastChange = "2018-01-18 17:35:03 +0000";
layers = (
{
background = {
paths = (
{
closed = 1;
nodes = (
"1295 318 LINE",
"1245 229 LINE",
"1129 98 LINE",
"991 11 LINE",
"829 -32 LINE",
"733 -32 LINE",
"629 -32 LINE",
"451 19 LINE",
"304 110 LINE",
"191 238 LINE",
"113 391 LINE",
"73 566 LINE",
"73 658 LINE",
"73 806 LINE",
"172 1071 LINE",
"353 1271 LINE",
"609 1388 LINE",
"765 1388 LINE",
"842 1388 LINE",
"959 1358 LINE",
"1044 1323 LINE",
"1100 1293 LINE",
"1115 1293 LINE",
"1142 1293 LINE",
"1187 1340 LINE",
"1198 1388 LINE",
"1234 1388 LINE",
"1266 927 LINE",
"1234 927 LINE",
"1203 1031 LINE",
"1113 1179 LINE",
"998 1273 LINE",
"860 1317 LINE",
"781 1317 LINE",
"676 1317 LINE",
"500 1238 LINE",
"373 1074 LINE",
"301 826 LINE",
"301 656 LINE",
"301 511 LINE",
"374 287 LINE",
"508 135 LINE",
"695 57 LINE",
"810 57 LINE",
"877 57 LINE",
"991 82 LINE",
"1099 145 LINE",
"1206 254 LINE",
"1266 339 LINE"
);
},
{
closed = 1;
nodes = (
"899 -171 OFFCURVE",
"816 -128 OFFCURVE",
"728 -128 CURVE SMOOTH",
"707 -128 OFFCURVE",
"687 -130 OFFCURVE",
"669 -134 CURVE",
"732 25 LINE",
"659 25 LINE",
"562 -203 LINE",
"579 -215 LINE",
"606 -207 OFFCURVE",
"639 -202 OFFCURVE",
"671 -205 CURVE SMOOTH",
"716 -209 OFFCURVE",
"746 -237 OFFCURVE",
"746 -284 CURVE SMOOTH",
"746 -341 OFFCURVE",
"702 -371 OFFCURVE",
"626 -371 CURVE SMOOTH",
"592 -371 OFFCURVE",
"535 -359 OFFCURVE",
"500 -345 CURVE",
"470 -410 LINE",
"521 -427 OFFCURVE",
"580 -442 OFFCURVE",
"636 -442 CURVE SMOOTH",
"765 -442 OFFCURVE",
"899 -379 OFFCURVE",
"899 -270 CURVE SMOOTH"
);
}
);
};
components = (
{
name = C;
},
{
name = uni0327;
transform = "{1, 0, 0, 1, 1201, 0}";
}
);
layerId = UUID0;
width = 1368;
}
);
unicode = 00C7;
},
{
color = (31,255,0,1);
glyphname = Egrave;
lastChange = "2018-01-18 17:35:03 +0000";
layers = (
{
background = {
paths = (
{
closed = 1;
nodes = (
"1088 0 LINE",
"43 0 LINE",
"43 38 LINE",
"90 38 LINE",
"99 38 LINE",
"126 41 LINE",
"157 48 LINE",
"187 60 LINE",
"197 69 LINE",
"207 78 LINE",
"222 100 LINE",
"232 138 LINE",
"237 196 LINE",
"237 241 LINE",
"237 1121 LINE",
"237 1187 LINE",
"223 1266 LINE",
"211 1279 LINE",
"175 1320 LINE",
"90 1320 LINE",
"43 1320 LINE",
"43 1356 LINE",
"1088 1356 LINE",
"1104 1061 LINE",
"1064 1061 LINE",
"1057 1090 LINE",
"1046 1145 LINE",
"1027 1195 LINE",
"997 1236 LINE",
"944 1266 LINE",
"863 1283 LINE",
"803 1283 LINE",
"427 1283 LINE",
"427 747 LINE",
"726 747 LINE",
"795 747 LINE",
"874 769 LINE",
"916 817 LINE",
"933 891 LINE",
"940 942 LINE",
"978 942 LINE",
"978 471 LINE",
"940 471 LINE",
"933 524 LINE",
"915 600 LINE",
"873 649 LINE",
"795 672 LINE",
"726 672 LINE",
"427 672 LINE",
"427 224 LINE",
"427 192 LINE",
"427 164 LINE",
"427 137 LINE",
"446 96 LINE",
"494 73 LINE",
"542 73 LINE",
"771 73 LINE",
"826 73 LINE",
"910 82 LINE",
"977 104 LINE",
"1030 143 LINE",
"1081 202 LINE",
"1133 285 LINE",
"1165 341 LINE",
"1206 341 LINE"
);
},
{
closed = 1;
nodes = (
"801 1477 LINE",
"517 1763 LINE SMOOTH",
"480 1801 OFFCURVE",
"432 1830 OFFCURVE",
"398 1830 CURVE SMOOTH",
"358 1830 OFFCURVE",
"334 1801 OFFCURVE",
"334 1753 CURVE SMOOTH",
"334 1718 OFFCURVE",
"389 1686 OFFCURVE",
"423 1665 CURVE SMOOTH",
"718 1477 LINE"
);
}
);
};
components = (
{
name = E;
transform = "{1, 0, 0, 1, -1, 0}";
},
{
name = gravecomb;
transform = "{1, 0, 0, 1, 1141, 430}";
}
);
layerId = UUID0;
width = 1295;
}
);
unicode = 00C8;
},
